<svg width="149" height="41" viewBox="0 0 149 41" fill="none" xmlns="http://www.w3.org/2000/svg">
<path d="M126.571 37.5089C128.64 37.7388 130.709 37.9687 132.663 38.1986L137.146 27.0491L141.399 39.233C143.582 39.4629 145.766 39.8078 147.95 40.1526L140.479 18.7733L148.065 0.152588H141.743L141.628 0.26753L137.605 10.2675L134.042 0.152588H127.72L134.157 18.5434L126.571 37.5089ZM121.743 37.0491V0.152588H115.422V36.5894C117.605 36.7043 119.674 36.9342 121.743 37.0491ZM74.502 34.9802H79.5595V21.5319H87.1457V15.7848H79.5595V5.89971H88.2951V0.152588H73.3526V34.9802H74.502ZM55.0767 35.325C57.1457 35.2101 59.2147 35.2101 61.3986 35.0951V5.89971H67.2607V0.152588H49.2147V5.89971H55.0767V35.325ZM6.91582 39.233V17.279L14.3871 38.4284L21.2836 37.7388V0.152588H15.3066V22.9112L7.26065 0.152588H0.938812V40.0376C3.00778 39.8078 4.9618 39.5779 6.91582 39.233ZM43.1227 5.89971V0.152588H28.0652V37.0491C33.0078 36.5894 38.0652 36.2445 43.0078 36.0147V30.2675C40.1342 30.3825 37.2607 30.6124 34.2721 30.8422V21.5319H41.8584V15.7848H34.2721V5.89971H43.1227ZM100.824 29.9227V0.152588H94.502V35.4399C99.5595 35.6698 104.502 35.8997 109.56 36.2445V30.4974C106.571 30.1526 103.697 30.0376 100.824 29.9227Z" fill="white"/>
</svg>
