<svg width="134" height="41" viewBox="0 0 134 41" fill="none" xmlns="http://www.w3.org/2000/svg">
<path d="M20.5714 0.152588C9.52529 0.152588 0.57135 9.10653 0.57135 20.1526C0.57135 31.1986 9.52529 40.1526 20.5714 40.1526C31.6174 40.1526 40.5714 31.1986 40.5714 20.1526C40.5714 9.10789 31.6174 0.153953 20.5714 0.152588ZM29.7436 28.9974C29.3847 29.5869 28.6164 29.7711 28.0296 29.4122C23.3335 26.5422 17.4216 25.894 10.4601 27.4839C9.78868 27.6381 9.11997 27.2178 8.96712 26.5463C8.81291 25.8749 9.23188 25.2062 9.90468 25.0533C17.5226 23.3133 24.0582 24.0625 29.3301 27.2833C29.917 27.6449 30.1039 28.4105 29.7436 28.9974ZM32.1906 23.5535C31.7389 24.2877 30.7781 24.517 30.0452 24.0666C24.671 20.7626 16.4745 19.8059 10.1162 21.7357C9.29192 21.9854 8.42123 21.52 8.17012 20.6971C7.92174 19.8728 8.38711 19.0035 9.21004 18.7524C16.4731 16.5484 25.5035 17.6156 31.6761 21.4095C32.4103 21.8612 32.6423 22.8206 32.1906 23.5535ZM32.4008 17.8817C25.9538 14.0536 15.3199 13.7015 9.165 15.5685C8.17695 15.8687 7.13157 15.3106 6.83269 14.3225C6.53382 13.3344 7.09063 12.2891 8.08005 11.9888C15.1452 9.84484 26.8886 10.2584 34.31 14.6637C35.1984 15.1918 35.4905 16.3396 34.9637 17.2266C34.4383 18.1164 33.2878 18.4098 32.4008 17.8817ZM54.9842 18.6159C51.5314 17.793 50.9159 17.2143 50.9159 15.9997C50.9159 14.852 51.9968 14.0809 53.6031 14.0809C55.1602 14.0809 56.7037 14.6678 58.3237 15.8742C58.3728 15.911 58.4342 15.9247 58.4942 15.9151C58.5543 15.9056 58.6075 15.8728 58.643 15.8223L60.3284 13.445C60.398 13.3467 60.3789 13.2116 60.2861 13.1379C58.3591 11.5917 56.1906 10.8397 53.6536 10.8397C49.9252 10.8397 47.3213 13.0779 47.3213 16.2781C47.3213 19.7118 49.5676 20.9264 53.4502 21.8653C56.7542 22.6268 57.3124 23.2642 57.3124 24.4037C57.3124 25.6674 56.1851 26.4521 54.3701 26.4521C52.3544 26.4521 50.7099 25.7725 48.8716 24.1799C48.8266 24.1403 48.7638 24.1226 48.7051 24.1253C48.6437 24.1308 48.5891 24.158 48.5495 24.2044L46.6594 26.4549C46.5802 26.5477 46.5898 26.6882 46.6812 26.7688C48.8211 28.6794 51.4523 29.6879 54.2936 29.6879C58.3114 29.6879 60.9071 27.4921 60.9071 24.0953C60.9139 21.2266 59.1971 19.6381 54.991 18.6159H54.9842ZM69.9975 15.2109C68.2561 15.2109 66.8272 15.8974 65.6495 17.3017V15.72C65.6495 15.5944 65.5485 15.4934 65.4229 15.4934H62.3305C62.2049 15.4934 62.1039 15.5958 62.1039 15.72V33.2976C62.1039 33.4231 62.2049 33.5241 62.3305 33.5241H65.4229C65.5471 33.5241 65.6495 33.4218 65.6495 33.2976V27.7486C66.8272 29.071 68.2561 29.7166 69.9975 29.7166C73.2332 29.7166 76.5086 27.2259 76.5086 22.4644C76.514 17.7015 73.236 15.2096 70.0002 15.2096L69.9975 15.2109ZM72.9139 22.4644C72.9139 24.8895 71.4209 26.5818 69.281 26.5818C67.1671 26.5818 65.5717 24.8131 65.5717 22.4644C65.5717 20.1171 67.1671 18.3471 69.281 18.3471C71.3854 18.3471 72.9139 20.0789 72.9139 22.4644ZM84.9043 15.2109C80.7365 15.2109 77.4721 18.4194 77.4721 22.5177C77.4721 26.5709 80.7146 29.7452 84.8525 29.7452C89.034 29.7452 92.3093 26.5477 92.3093 22.4658C92.3107 18.3976 89.0572 15.2109 84.9043 15.2109ZM84.9043 26.605C82.688 26.605 81.0163 24.824 81.0163 22.4631C81.0163 20.0912 82.6293 18.3716 84.8525 18.3716C87.0838 18.3716 88.7651 20.1526 88.7651 22.5149C88.7665 24.8854 87.1425 26.605 84.9043 26.605ZM101.21 15.4934H97.8078V12.0148C97.8078 11.8906 97.7068 11.7882 97.5826 11.7882H94.4915C94.366 11.7882 94.265 11.8906 94.265 12.0148V15.4934H92.7788C92.6546 15.4934 92.5536 15.5958 92.5536 15.72V18.3771C92.5536 18.5013 92.6546 18.6036 92.7788 18.6036H94.265V25.4791C94.265 28.2577 95.6474 29.6661 98.3755 29.6661C99.485 29.6661 100.405 29.4368 101.271 28.9455C101.342 28.9059 101.386 28.8295 101.386 28.749V26.2188C101.386 26.141 101.345 26.0673 101.278 26.0264C101.211 25.984 101.127 25.9813 101.059 26.0154C100.464 26.3157 99.8876 26.4535 99.2435 26.4535C98.2513 26.4535 97.8092 26.0031 97.8092 24.9933V18.6036H101.211C101.337 18.6036 101.437 18.5013 101.437 18.3771V15.72C101.442 15.5944 101.341 15.4934 101.214 15.4934H101.21ZM113.065 15.5071V15.0799C113.065 13.823 113.547 13.2621 114.628 13.2621C115.272 13.2621 115.791 13.3904 116.371 13.5842C116.442 13.606 116.517 13.5951 116.574 13.5528C116.634 13.5105 116.667 13.4409 116.667 13.3686V10.7619C116.667 10.6623 116.603 10.5736 116.507 10.5449C115.894 10.3621 115.111 10.1751 113.937 10.1751C111.081 10.1751 109.572 11.7827 109.572 14.8247V15.4784H108.086C107.961 15.4784 107.859 15.5808 107.859 15.705V18.3757C107.859 18.4999 107.961 18.6023 108.086 18.6023H109.572V29.2089C109.572 29.3344 109.673 29.4354 109.797 29.4354H112.889C113.015 29.4354 113.116 29.3331 113.116 29.2089V18.6036H116.002L120.424 29.2075C119.922 30.3211 119.428 30.5436 118.755 30.5436C118.21 30.5436 117.636 30.3812 117.05 30.0605C116.996 30.0304 116.93 30.025 116.87 30.0441C116.812 30.0646 116.761 30.1082 116.736 30.1656L115.688 32.4651C115.638 32.5743 115.682 32.7012 115.785 32.7572C116.88 33.3494 117.866 33.6019 119.088 33.6019C121.371 33.6019 122.633 32.5388 123.746 29.677L129.11 15.8155C129.138 15.7459 129.13 15.6667 129.086 15.6053C129.044 15.5439 128.975 15.5071 128.9 15.5071H125.681C125.584 15.5071 125.498 15.5685 125.467 15.6586L122.169 25.0779L118.557 15.6531C118.524 15.5658 118.44 15.5071 118.345 15.5071H113.065ZM106.191 15.4934H103.099C102.973 15.4934 102.872 15.5958 102.872 15.72V29.2102C102.872 29.3358 102.975 29.4368 103.099 29.4368H106.191C106.315 29.4368 106.418 29.3344 106.418 29.2102V15.7213C106.418 15.5958 106.317 15.4948 106.191 15.4934C106.193 15.4934 106.191 15.4934 106.191 15.4934ZM104.663 9.35081C103.437 9.35081 102.444 10.343 102.444 11.5671C102.444 12.7926 103.439 13.7862 104.663 13.7862C105.887 13.7862 106.88 12.794 106.88 11.5671C106.88 10.343 105.887 9.35081 104.663 9.35081ZM131.751 19.8305C130.527 19.8305 129.576 18.8479 129.576 17.6538C129.576 16.4597 130.541 15.4661 131.763 15.4661C132.988 15.4661 133.939 16.4487 133.939 17.6415C133.937 18.8356 132.973 19.8305 131.751 19.8305ZM131.762 15.6831C130.647 15.6831 129.804 16.5688 129.804 17.6538C129.804 18.7387 130.642 19.6122 131.75 19.6122C132.865 19.6122 133.708 18.7265 133.708 17.6415C133.71 16.5579 132.872 15.6831 131.762 15.6831ZM132.245 17.8653L132.861 18.7265H132.342L131.788 17.9363H131.312V18.7265H130.878V16.4419H131.896C132.427 16.4419 132.776 16.7135 132.776 17.1707C132.779 17.5446 132.56 17.7739 132.248 17.8639L132.245 17.8653ZM131.877 16.8349H131.31V17.5569H131.877C132.159 17.5569 132.328 17.4191 132.328 17.1952C132.328 16.9605 132.159 16.8349 131.877 16.8349Z" fill="white"/>
</svg>
