<svg width="14" height="24" viewBox="0 0 14 24" fill="none" xmlns="http://www.w3.org/2000/svg">
<path d="M14 0.674459C14 0.306392 13.7151 0.00801537 13.3636 0.00801537H10.1818C6.8464 -0.165987 4.00308 2.51397 3.81818 6.00601V9.60481H0.636364C0.28491 9.60481 0 9.90319 0 10.2713V13.7368C0 14.1048 0.28491 14.4032 0.636364 14.4032H3.81818V23.3336C3.81818 23.7016 4.10309 24 4.45455 24H8.27273C8.62418 24 8.90909 23.7016 8.90909 23.3336V14.4032H12.2436C12.5348 14.4076 12.7916 14.2045 12.8673 13.91L13.7836 10.4445C13.835 10.245 13.7949 10.0317 13.6753 9.86735C13.5557 9.70295 13.3701 9.60597 13.1727 9.60481H8.90909V6.00601C8.97469 5.32237 9.52575 4.80297 10.1818 4.80641H13.3636C13.7151 4.80641 14 4.50804 14 4.13997V0.674459Z" fill="#1877F2"/>
</svg>
