<svg width="24" height="25" viewBox="0 0 24 25" fill="none" xmlns="http://www.w3.org/2000/svg">
<g clip-path="url(#clip0_2601_11966)">
<path fill-rule="evenodd" clip-rule="evenodd" d="M6.14751 0.152588H14.1777L20.9753 7.24454V21.0305C20.9753 22.7549 19.5776 24.1526 17.8531 24.1526H6.14751C4.42305 24.1526 3.02539 22.7549 3.02539 21.0305V3.27471C3.02539 1.55028 4.42305 0.152588 6.14751 0.152588V0.152588Z" fill="#FF5630"/>
<path opacity="0.4" fill-rule="evenodd" clip-rule="evenodd" d="M14.168 0.152588V7.18629H20.9752L14.168 0.152588Z" fill="white"/>
<path d="M8.73194 18.0605H9.9452C9.97755 18.0605 10.0067 18.0378 10.0132 18.0087L10.369 16.7307H11.7441L12.1259 18.0087C12.1356 18.0378 12.1647 18.0605 12.197 18.0605H13.4556C13.4976 18.0605 13.53 18.0281 13.53 17.9893C13.53 17.9763 13.5268 17.9666 13.5235 17.9569L11.9188 12.7868C11.9091 12.7577 11.8832 12.7383 11.8508 12.7383H10.314C10.2817 12.7383 10.2526 12.7577 10.2461 12.7868L8.66074 17.9666C8.65428 17.9893 8.66074 18.0119 8.67368 18.0313C8.68666 18.0475 8.70932 18.0605 8.73194 18.0605ZM14.6397 13.8415C15.0474 13.8415 15.3418 13.5665 15.3418 13.1847C15.3321 12.7932 15.0474 12.5215 14.6462 12.5215C14.4424 12.5215 14.2612 12.5927 14.135 12.7188C14.0186 12.8386 13.9571 13.0068 13.9603 13.1847C13.9571 13.3594 14.0186 13.5212 14.1383 13.6409C14.2612 13.7703 14.4391 13.8415 14.6397 13.8415ZM14.0639 14.1586C14.0218 14.1586 13.9894 14.1909 13.9894 14.2298V17.9893C13.9894 18.0281 14.0218 18.0604 14.0639 18.0604H15.2318C15.2706 18.0604 15.303 18.0281 15.303 17.9893V14.2298C15.303 14.1909 15.2706 14.1586 15.2318 14.1586H14.0639ZM11.5306 15.7116H10.5794L10.8608 14.7021C10.9093 14.521 10.9579 14.3074 11.0064 14.1004C11.0161 14.0518 11.0258 14.0065 11.0388 13.958C11.1002 14.2071 11.1682 14.4756 11.2361 14.7054L11.5306 15.7116Z" fill="white"/>
</g>
<defs>
<clipPath id="clip0_2601_11966">
<rect width="24" height="24" fill="white" transform="translate(0 0.152588)"/>
</clipPath>
</defs>
</svg>
