<svg width="24" height="24" viewBox="0 0 24 24" fill="none" xmlns="http://www.w3.org/2000/svg">
<path d="M8.00001 12C8.00001 12.5523 8.44773 13 9.00001 13H15C15.5523 13 16 12.5523 16 12C16 11.4477 15.5523 11 15 11H9.00001C8.44773 11 8.00001 11.4477 8.00001 12Z" fill="#212B36"/>
<path d="M9.00001 16H7.21001C5.08052 16.0568 3.25716 14.4847 3.00001 12.37C2.89564 11.2466 3.27053 10.1314 4.03228 9.2992C4.79404 8.46698 5.87182 7.99515 7.00001 7.99999H9.00001C9.5523 7.99999 10 7.55228 10 6.99999C10 6.44771 9.5523 5.99999 9.00001 5.99999H7.21001C4.14529 5.95904 1.51821 8.18097 1.05001 11.21C0.822306 12.9244 1.34542 14.6536 2.4852 15.9543C3.62499 17.255 5.27059 18.0006 7.00001 18H9.00001C9.5523 18 10 17.5523 10 17C10 16.4477 9.5523 16 9.00001 16Z" fill="#212B36"/>
<path d="M23 11.24C22.5373 8.17062 19.8632 5.925 16.76 5.99999H15.25C14.44 5.99999 14 6.44999 14 6.99999C14 7.55228 14.4477 7.99999 15 7.99999H16.79C18.9195 7.94315 20.7429 9.51531 21 11.63C21.1044 12.7534 20.7295 13.8686 19.9677 14.7008C19.206 15.533 18.1282 16.0048 17 16H15C14.4477 16 14 16.4477 14 17C14 17.5523 14.4477 18 15 18H17C18.7322 18.014 20.3859 17.2786 21.5358 15.9831C22.6856 14.6875 23.2195 12.9583 23 11.24Z" fill="#212B36"/>
</svg>
