<svg width="24" height="24" viewBox="0 0 24 24" fill="none" xmlns="http://www.w3.org/2000/svg">
<path d="M12 22C8.77086 22.0783 6.08724 19.5289 6 16.3V6.12999C6.06003 3.79595 7.99573 1.94965 10.33 1.99999C12.6681 1.94406 14.61 3.79196 14.67 6.12999V16.31C14.5837 17.7185 13.4162 18.8167 12.005 18.8167C10.5938 18.8167 9.42632 17.7185 9.34 16.31V6.91999C9.34 6.3677 9.78772 5.91999 10.34 5.91999C10.8923 5.91999 11.34 6.3677 11.34 6.91999V16.31C11.3813 16.6459 11.6666 16.8983 12.005 16.8983C12.3434 16.8983 12.6287 16.6459 12.67 16.31V6.12999C12.6053 4.8988 11.5618 3.94897 10.33 3.99999C9.10199 3.95459 8.0647 4.90284 8 6.12999V16.3C8.08667 18.4245 9.87517 20.0789 12 20C14.1248 20.0789 15.9133 18.4245 16 16.3V6.12999C16 5.5777 16.4477 5.12999 17 5.12999C17.5523 5.12999 18 5.5777 18 6.12999V16.3C17.9128 19.5289 15.2291 22.0783 12 22Z" fill="#212B36"/>
</svg>
