<svg width="24" height="25" viewBox="0 0 24 25" fill="none" xmlns="http://www.w3.org/2000/svg">
<g clip-path="url(#clip0_2601_11924)">
<path fill-rule="evenodd" clip-rule="evenodd" d="M6.12082 0.152588H14.1479L20.9502 7.24266V21.0318C20.9502 22.7508 19.5484 24.1526 17.8294 24.1526H6.12082C4.39442 24.1526 3 22.7508 3 21.0318V3.27341C3 1.547 4.39442 0.152588 6.12082 0.152588V0.152588Z" fill="#00B8D9"/>
<path opacity="0.4" fill-rule="evenodd" clip-rule="evenodd" d="M14.1396 0.152588V7.18365H20.9493L14.1396 0.152588Z" fill="white"/>
<path d="M14.1177 15.9264C14.3464 15.5427 14.5014 15.0558 14.5309 14.5762C14.5456 14.2663 14.4792 13.9417 14.3317 13.6392C14.0956 13.1597 13.6972 12.8941 13.3061 12.6285C13.0184 12.4366 12.7454 12.2522 12.5536 11.994L12.5167 11.9497C12.406 11.7948 12.2732 11.6177 12.2511 11.4702C12.2363 11.3226 12.0961 11.2193 11.956 11.2267C11.801 11.2415 11.6904 11.3595 11.6904 11.5144V16.5756C11.4543 16.4281 11.1591 16.3395 10.8345 16.3395C10.0525 16.3395 9.41797 16.8486 9.41797 17.4757C9.41797 18.1028 10.0525 18.6119 10.8345 18.6119C11.6166 18.6119 12.2584 18.1028 12.2584 17.4757V14.163C12.6863 14.3327 13.3799 14.7459 13.5717 15.7124C13.5348 15.764 13.5053 15.823 13.461 15.8673C13.3577 15.9854 13.3725 16.1624 13.4905 16.2731C13.6086 16.3764 13.7856 16.3616 13.8889 16.2436C13.9627 16.155 14.0365 16.0591 14.0955 15.9485C14.1029 15.9411 14.1103 15.9337 14.1177 15.9264Z" fill="white"/>
</g>
<defs>
<clipPath id="clip0_2601_11924">
<rect width="24" height="24" fill="white" transform="translate(0 0.152588)"/>
</clipPath>
</defs>
</svg>
