<svg width="64" height="65" viewBox="0 0 64 65" fill="none" xmlns="http://www.w3.org/2000/svg">
<g clip-path="url(#clip0_2601_11778)">
<path d="M58.9345 16.817C50.7574 10.5304 42.8261 15.6539 33.9795 13.8424C25.069 12.0178 21.5189 5.94238 11.37 8.74675C2.37975 11.2309 -3.07525 21.1906 1.867 29.529C3.27537 31.9051 5.67462 33.6978 6.65512 36.3564C8.23675 40.6453 5.82925 43.938 6.29887 48.1529C8.25037 65.6655 34.9956 58.8821 44.8368 53.4335C60.2705 44.8885 70.7115 25.8714 58.9345 16.817Z" fill="url(#paint0_linear_2601_11778)" fill-opacity="0.12"/>
<path opacity="0.24" d="M51.3966 10.4495C50.9324 10.4495 50.4683 10.2727 50.1149 9.91949C49.4083 9.21286 49.4083 8.06299 50.1149 7.35623C50.8216 6.64948 51.9716 6.64948 52.6782 7.35623C53.3848 8.06299 53.3848 9.21274 52.6782 9.91949C52.3249 10.2727 51.8608 10.4495 51.3966 10.4495ZM51.3967 8.07561C51.2526 8.07561 51.1086 8.13036 50.9989 8.24011C50.7797 8.45936 50.7797 8.81624 50.9989 9.03561C51.2182 9.25486 51.5751 9.25499 51.7944 9.03561C52.0137 8.81636 52.0137 8.45949 51.7944 8.24011C51.6847 8.13036 51.5407 8.07561 51.3967 8.07561Z" fill="#00AB55"/>
<path opacity="0.48" d="M54.54 16.5608C54.0759 16.5609 53.6118 16.3841 53.2584 16.0308C52.916 15.6884 52.7275 15.2333 52.7275 14.7491C52.7275 14.265 52.916 13.8099 53.2584 13.4675C53.9649 12.7609 55.1148 12.7608 55.8215 13.4675C56.1639 13.8099 56.3524 14.265 56.3524 14.7491C56.3524 15.2334 56.1639 15.6885 55.8214 16.0308C55.4684 16.384 55.0042 16.5608 54.54 16.5608ZM54.54 14.1869C54.396 14.1869 54.2519 14.2416 54.1423 14.3514C54.0359 14.4576 53.9775 14.5989 53.9775 14.7491C53.9775 14.8994 54.036 15.0406 54.1423 15.1469C54.3617 15.3663 54.7185 15.3663 54.9378 15.1469C55.0442 15.0406 55.1025 14.8994 55.1025 14.7491C55.1025 14.5989 55.044 14.4578 54.9378 14.3514C54.8282 14.2416 54.6842 14.1869 54.54 14.1869Z" fill="#00AB55"/>
<path opacity="0.24" d="M13.1719 29.7474C12.7078 29.7474 12.2436 29.5707 11.8903 29.2174C11.1837 28.5107 11.1837 27.3608 11.8903 26.6542C12.5969 25.9477 13.7469 25.9476 14.4536 26.6542C15.1602 27.3609 15.1602 28.5107 14.4536 29.2174C14.1003 29.5707 13.6361 29.7474 13.1719 29.7474ZM13.1719 27.3736C13.0279 27.3736 12.8838 27.4283 12.7742 27.5381C12.5548 27.7573 12.5548 28.1142 12.7742 28.3336C12.9934 28.5529 13.3504 28.5528 13.5697 28.3336C13.7891 28.1143 13.7891 27.7574 13.5697 27.5381C13.4601 27.4283 13.3161 27.3736 13.1719 27.3736Z" fill="#00AB55"/>
<path opacity="0.48" d="M12.3662 35.3651C12.2062 35.3651 12.0463 35.3041 11.9242 35.1821L11.1787 34.4366L10.4332 35.1821C10.1891 35.4261 9.79343 35.4261 9.5493 35.1821C9.30518 34.938 9.30518 34.5422 9.5493 34.2982L10.7368 33.1107C10.9809 32.8667 11.3766 32.8667 11.6207 33.1107L12.8082 34.2982C13.0523 34.5424 13.0523 34.9381 12.8082 35.1821C12.6861 35.304 12.5262 35.3651 12.3662 35.3651Z" fill="#00AB55"/>
<path opacity="0.48" d="M53.3525 53.4649C53.1925 53.4649 53.0326 53.404 52.9105 53.282L52.165 52.5365L51.4195 53.282C51.1754 53.526 50.7798 53.526 50.5356 53.282C50.2915 53.0378 50.2915 52.6421 50.5356 52.3981L51.7231 51.2106C51.9673 50.9666 52.3629 50.9666 52.607 51.2106L53.7945 52.3981C54.0386 52.6422 54.0386 53.038 53.7945 53.282C53.6724 53.4038 53.5125 53.4649 53.3525 53.4649Z" fill="#00AB55"/>
<path d="M48 32.1526C48 40.9892 40.8364 48.1526 32 48.1526C23.1633 48.1526 16 40.9892 16 32.1526C16 23.3159 23.1633 16.1526 32 16.1526C40.8364 16.1526 48 23.3159 48 32.1526Z" fill="#FFD666"/>
<path d="M36.2146 22.5642C36.0327 21.8611 35.2566 20.8643 32.3162 20.8643C27.7732 20.8643 27.1263 21.5371 25.9173 20.3752C24.8973 19.395 24.2981 24.1128 25.6582 25.6111C25.0843 27.7331 25.5435 29.8586 25.5435 29.8586H38.3255C38.3252 29.8586 39.398 24.8938 36.2146 22.5642Z" fill="#B76E00"/>
<path d="M26.8339 30.0818C26.8339 30.0818 26.2829 29.0725 25.1808 29.0725C24.0788 29.0725 23.298 33.9178 26.8339 33.1101V30.0818Z" fill="#FFE4D1"/>
<path d="M37.0347 30.0818C37.0347 30.0818 37.5858 29.0725 38.6878 29.0725C39.7901 29.0725 40.5706 33.9178 37.0347 33.1101V30.0818Z" fill="#FFE4D1"/>
<path d="M31.934 23.5891C23.4906 23.5891 25.1049 37.4367 31.934 37.4367C38.7628 37.4367 40.3773 23.5891 31.934 23.5891Z" fill="#FFEFE4"/>
<path d="M28.893 22.1311C27.2754 22.2437 26.72 22.2824 25.9159 21.5098C25.393 21.0071 24.9814 22.0034 24.8871 23.2952C24.7572 21.5481 25.2455 19.731 25.9159 20.3753C26.7201 21.1479 27.2755 21.1093 28.8935 20.9967C29.7085 20.94 30.7931 20.8645 32.3148 20.8645C35.2555 20.8645 36.0316 21.8611 36.2133 22.5645C38.3463 24.125 38.568 26.8669 38.4826 28.5081C38.3957 26.9216 37.9064 24.9375 36.2133 23.6987C36.0316 22.9954 35.2555 21.9988 32.3148 21.9988C30.7928 21.9988 29.7081 22.0743 28.893 22.1311Z" fill="#B76E00"/>
<path d="M26.1909 29.3941C26.1909 22.0252 31.9341 22.8355 31.9341 22.8355C31.9341 22.8355 37.677 22.0252 37.677 29.3941C37.677 29.3941 36.9541 26.3485 35.2949 25.5179C34.9406 25.3404 34.6892 25.4506 34.2984 25.6219C33.8372 25.824 33.1818 26.1112 31.9341 26.1112C30.6862 26.1112 30.0308 25.824 29.5697 25.6219C29.1788 25.4506 28.9274 25.3404 28.573 25.5179C26.914 26.3485 26.1909 29.3941 26.1909 29.3941Z" fill="#B76E00"/>
<path d="M43.5526 43.2226C43.1422 42.217 42.3084 41.4109 41.2315 41.0569L36.043 39.352C35.5535 39.1912 35.221 38.7363 35.2164 38.2209L35.1978 36.1257C34.3306 36.9065 33.2511 37.3904 31.9886 37.4016C30.7264 37.4126 29.6385 36.9478 28.7574 36.1826L28.7752 38.2043C28.7799 38.7275 28.4454 39.1936 27.9481 39.3569L22.7616 41.0579C21.6871 41.4104 20.8541 42.2129 20.442 43.2151C23.3546 46.2576 27.4564 48.1526 32.0011 48.1526C36.5416 48.1526 40.6402 46.2607 43.5526 43.2226Z" fill="#FFAB00"/>
<path d="M31.8099 43.8921C34.4703 43.8921 36.7396 42.2222 37.63 39.8738L36.0423 39.3521C35.5528 39.1912 35.2203 38.7361 35.2159 38.2209L35.1974 36.1257C34.3299 36.9065 33.2506 37.3904 31.9881 37.4016C30.7257 37.4126 29.6378 36.9478 28.7569 36.1826L28.7748 38.2043C28.7794 38.7275 28.4449 39.1936 27.9476 39.3569L26.0335 39.9846C26.9525 42.2744 29.1915 43.8921 31.8099 43.8921Z" fill="#FFE4D1"/>
<path d="M32 17.4026C40.627 17.4026 47.6582 24.2309 47.9866 32.7776C47.9946 32.5701 48 32.362 48 32.1526C48 23.3162 40.8364 16.1526 32 16.1526C23.1633 16.1526 16 23.3162 16 32.1526C16 32.362 16.0051 32.5701 16.0132 32.7776C16.3416 24.2309 23.3728 17.4026 32 17.4026Z" fill="#FFAB00"/>
</g>
<defs>
<linearGradient id="paint0_linear_2601_11778" x1="43.8414" y1="68.5541" x2="70.1982" y2="13.0735" gradientUnits="userSpaceOnUse">
<stop stop-color="#00AB55"/>
<stop offset="1" stop-color="#00AB55" stop-opacity="0.01"/>
</linearGradient>
<clipPath id="clip0_2601_11778">
<rect width="64" height="64" fill="white" transform="translate(0 0.152588)"/>
</clipPath>
</defs>
</svg>
