<svg width="24" height="24" viewBox="0 0 24 24" fill="none" xmlns="http://www.w3.org/2000/svg">
<path d="M16.8463 0C16.8463 0 14.6542 0.0100644 13.0772 2.08839C11.6747 3.93677 12.0316 5.51768 12.0316 5.51768C12.0316 5.51768 13.933 5.84632 15.6057 3.83652C17.1723 1.95406 16.8463 0 16.8463 0Z" fill="#212B36"/>
<path d="M13.4903 6.50747C12.9742 6.71551 12.5502 6.88645 12.2325 6.88645C11.8365 6.88645 11.3588 6.70245 10.8037 6.48865C10.0339 6.19215 9.11537 5.83836 8.05962 5.83858C5.26323 5.83858 2.2822 8.34232 2.2822 13.1148C2.2822 17.9655 5.804 24.0004 8.59187 24.0004C9.02559 24.0004 9.5628 23.8057 10.1584 23.5899C10.8991 23.3214 11.7302 23.0203 12.5646 23.0203C13.3129 23.0203 13.9619 23.2627 14.6024 23.502C15.2264 23.7351 15.8424 23.9652 16.5343 23.9652C19.5874 23.9652 21.8476 17.6032 21.8476 17.6032C21.8476 17.6032 18.6142 16.3514 18.6142 12.7188C18.6142 9.49858 21.2097 8.17161 21.2097 8.17161C21.2097 8.17161 19.8827 5.77123 16.5092 5.77123C15.3166 5.77123 14.2923 6.18415 13.4903 6.50747Z" fill="#212B36"/>
</svg>
