<svg width="64" height="65" viewBox="0 0 64 65" fill="none" xmlns="http://www.w3.org/2000/svg">
<g clip-path="url(#clip0_2601_11827)">
<path d="M58.9345 16.817C50.7574 10.5304 42.8261 15.6539 33.9795 13.8424C25.069 12.0178 21.5189 5.94238 11.37 8.74675C2.37975 11.2309 -3.07525 21.1906 1.867 29.529C3.27537 31.9051 5.67462 33.6978 6.65512 36.3564C8.23675 40.6453 5.82925 43.938 6.29887 48.1529C8.25037 65.6655 34.9956 58.8821 44.8368 53.4335C60.2705 44.8885 70.7115 25.8714 58.9345 16.817Z" fill="url(#paint0_linear_2601_11827)" fill-opacity="0.12"/>
<path opacity="0.24" d="M51.3966 10.4495C50.9324 10.4495 50.4683 10.2727 50.1149 9.91949C49.4083 9.21286 49.4083 8.06299 50.1149 7.35623C50.8216 6.64948 51.9716 6.64948 52.6782 7.35623C53.3848 8.06299 53.3848 9.21274 52.6782 9.91949C52.3249 10.2727 51.8608 10.4495 51.3966 10.4495ZM51.3967 8.07561C51.2526 8.07561 51.1086 8.13036 50.9989 8.24011C50.7797 8.45936 50.7797 8.81624 50.9989 9.03561C51.2182 9.25486 51.5751 9.25499 51.7944 9.03561C52.0137 8.81636 52.0137 8.45949 51.7944 8.24011C51.6847 8.13036 51.5407 8.07561 51.3967 8.07561Z" fill="#00AB55"/>
<path opacity="0.48" d="M54.54 16.5608C54.0759 16.5609 53.6118 16.3841 53.2584 16.0308C52.916 15.6884 52.7275 15.2333 52.7275 14.7491C52.7275 14.265 52.916 13.8099 53.2584 13.4675C53.9649 12.7609 55.1148 12.7608 55.8215 13.4675C56.1639 13.8099 56.3524 14.265 56.3524 14.7491C56.3524 15.2334 56.1639 15.6885 55.8214 16.0308C55.4684 16.384 55.0042 16.5608 54.54 16.5608ZM54.54 14.1869C54.396 14.1869 54.2519 14.2416 54.1423 14.3514C54.0359 14.4576 53.9775 14.5989 53.9775 14.7491C53.9775 14.8994 54.036 15.0406 54.1423 15.1469C54.3617 15.3663 54.7185 15.3663 54.9378 15.1469C55.0442 15.0406 55.1025 14.8994 55.1025 14.7491C55.1025 14.5989 55.044 14.4578 54.9378 14.3514C54.8282 14.2416 54.6842 14.1869 54.54 14.1869Z" fill="#00AB55"/>
<path opacity="0.24" d="M13.1719 29.7474C12.7078 29.7474 12.2436 29.5707 11.8903 29.2174C11.1837 28.5107 11.1837 27.3608 11.8903 26.6542C12.5969 25.9477 13.7469 25.9476 14.4536 26.6542C15.1602 27.3609 15.1602 28.5107 14.4536 29.2174C14.1003 29.5707 13.6361 29.7474 13.1719 29.7474ZM13.1719 27.3736C13.0279 27.3736 12.8838 27.4283 12.7742 27.5381C12.5548 27.7573 12.5548 28.1142 12.7742 28.3336C12.9934 28.5529 13.3504 28.5528 13.5697 28.3336C13.7891 28.1143 13.7891 27.7574 13.5697 27.5381C13.4601 27.4283 13.3161 27.3736 13.1719 27.3736Z" fill="#00AB55"/>
<path opacity="0.48" d="M12.3662 35.3651C12.2062 35.3651 12.0463 35.3041 11.9242 35.1821L11.1787 34.4366L10.4332 35.1821C10.1891 35.4261 9.79343 35.4261 9.5493 35.1821C9.30518 34.938 9.30518 34.5422 9.5493 34.2982L10.7368 33.1107C10.9809 32.8667 11.3766 32.8667 11.6207 33.1107L12.8082 34.2982C13.0523 34.5424 13.0523 34.9381 12.8082 35.1821C12.6861 35.304 12.5262 35.3651 12.3662 35.3651Z" fill="#00AB55"/>
<path opacity="0.48" d="M53.3525 53.4649C53.1925 53.4649 53.0326 53.404 52.9105 53.282L52.165 52.5365L51.4195 53.282C51.1754 53.526 50.7798 53.526 50.5356 53.282C50.2915 53.0378 50.2915 52.6421 50.5356 52.3981L51.7231 51.2106C51.9673 50.9666 52.3629 50.9666 52.607 51.2106L53.7945 52.3981C54.0386 52.6422 54.0386 53.038 53.7945 53.282C53.6724 53.4038 53.5125 53.4649 53.3525 53.4649Z" fill="#00AB55"/>
<path d="M40.3208 20.3789H23.4151C22.0813 20.3789 21 21.4602 21 22.794V45.7374C21 47.0712 22.0813 48.1525 23.4151 48.1525H40.3208C41.6546 48.1525 42.7358 47.0712 42.7358 45.7374V22.794C42.7358 21.4602 41.6546 20.3789 40.3208 20.3789Z" fill="#FFAB00"/>
<path d="M23 23.1526H41V46.1526H23V23.1526Z" fill="#FFD666"/>
<path d="M36.5 43.1526H23V23.1526H41V39.0349L36.5 43.1526Z" fill="#FFF5CC"/>
<path d="M34.2832 19.7752V18.5677C34.2832 17.9272 34.0287 17.3129 33.5758 16.86C33.1229 16.407 32.5086 16.1526 31.8681 16.1526C31.2276 16.1526 30.6133 16.407 30.1604 16.86C29.7074 17.3129 29.453 17.9272 29.453 18.5677V19.7752H27.0379L25.8304 21.5865V23.3979H37.9058V21.5865L36.6983 19.7752H34.2832Z" fill="#FFB431"/>
<path d="M37 43.379V39.1526H41.2264L37 43.379Z" fill="#FFAB00"/>
<path d="M31.8681 38.4922C30.2858 37.9648 28.9095 36.9528 27.9342 35.5997C26.959 34.2466 26.4342 32.6209 26.4342 30.953V28.2281C28.0145 28.2281 29.5651 27.7986 30.9202 26.9855L31.8681 26.4167L32.816 26.9855C34.1712 27.7986 35.7218 28.2281 37.3021 28.2281V30.953C37.3021 32.6209 36.7773 34.2466 35.802 35.5997C34.8267 36.9528 33.4505 37.9648 31.8681 38.4922Z" fill="#36B37E"/>
<path d="M31.868 33.662C31.7743 33.662 31.6818 33.6402 31.598 33.5983C31.5141 33.5563 31.4412 33.4955 31.385 33.4205L29.5737 31.0054L30.5397 30.2809L31.868 32.052L36.8189 25.4507L37.785 26.1752L32.351 33.4205C32.2948 33.4955 32.2218 33.5563 32.138 33.5983C32.0542 33.6402 31.9617 33.662 31.868 33.662Z" fill="#1B806A"/>
<path d="M25.2266 37.8884H28.2454V39.096H25.2266V37.8884Z" fill="#FFAB00"/>
<path d="M25.2266 40.3035H29.453V41.511H25.2266V40.3035Z" fill="#FFAB00"/>
</g>
<defs>
<linearGradient id="paint0_linear_2601_11827" x1="43.8414" y1="68.5541" x2="70.1982" y2="13.0735" gradientUnits="userSpaceOnUse">
<stop stop-color="#00AB55"/>
<stop offset="1" stop-color="#00AB55" stop-opacity="0.01"/>
</linearGradient>
<clipPath id="clip0_2601_11827">
<rect width="64" height="64" fill="white" transform="translate(0 0.152588)"/>
</clipPath>
</defs>
</svg>
