<svg width="98" height="41" viewBox="0 0 98 41" fill="none" xmlns="http://www.w3.org/2000/svg">
<path d="M17.7664 0.566381H28.571V39.6928H17.7664V25.2101H10.8698V39.6928H0.0652466V0.566381H10.8698V15.325H17.7664V0.566381ZM97.0767 20.1526C97.0767 31.1871 88.1112 40.1526 77.0767 40.1526C68.594 40.1526 61.3296 34.8422 58.4331 27.394C58.4561 27.6468 58.4561 27.9227 58.4561 28.1986C58.4561 40.1526 48.1112 39.6928 48.1112 39.6928H30.8698V0.566381H47.4216C50.4101 0.566381 58.9158 2.19856 58.9158 10.5664C58.9158 11.0262 58.8928 11.4629 58.8698 11.8767C62.0193 4.95719 69.0078 0.152588 77.0767 0.152588C88.1112 0.152588 97.0767 9.1181 97.0767 20.1526ZM48.571 27.279C48.571 24.5204 46.2721 24.5204 46.2721 24.5204H40.525V30.4974H46.2721C46.2721 30.4974 48.571 30.2675 48.571 27.279ZM48.571 12.9112C48.571 10.0836 46.2721 10.1066 46.2721 10.1066H40.525V16.0147H46.2721C46.2721 16.0147 48.571 15.7388 48.571 12.9112ZM57.3296 23.279C57.1687 22.2675 57.0767 21.2101 57.0767 20.1526C57.0767 19.0951 57.1687 18.0836 57.3066 17.0721C56.1572 18.7963 54.548 19.5089 53.1687 19.7618C51.7894 20.0147 55.3986 19.8997 57.3296 23.279ZM86.9618 20.1526C86.9618 14.7043 82.525 10.2675 77.0767 10.2675C71.6285 10.2675 67.1917 14.7043 67.1917 20.1526C67.1917 25.6009 71.6285 30.0376 77.0767 30.0376C82.525 30.0376 86.9618 25.6009 86.9618 20.1526ZM77.0767 12.1066C72.64 12.1066 69.0308 15.7158 69.0308 20.1526C69.0308 24.5894 72.64 28.1986 77.0767 28.1986C81.5135 28.1986 85.1227 24.5894 85.1227 20.1526C85.1227 15.7158 81.5135 12.1066 77.0767 12.1066Z" fill="white"/>
</svg>
