<svg width="48" height="48" viewBox="0 0 48 48" fill="none" xmlns="http://www.w3.org/2000/svg">
    <rect width="48" height="48" rx="24" fill="#231F20" fill-opacity="0.16"/>
    <path opacity="0.5" d="M20.9996 32H26.9996C28.8852 32 29.828 32 30.4138 31.4142C30.8853 30.9427 30.9773 30.2398 30.9952 29H17.0039C17.0218 30.2398 17.1138 30.9427 17.5853 31.4142C18.1711 32 19.1139 32 20.9996 32Z" fill="#231F20"/>
    <path d="M23.25 18H21C19.1144 18 18.1716 18 17.5858 18.5858C17 19.1716 17 20.1144 17 22V28C17 28.3677 17 28.6996 17.0043 29H30.9957C31 28.6996 31 28.3677 31 28V22C31 20.1144 31 19.1716 30.4142 18.5858C29.8284 18 28.8856 18 27 18H24.75V22.9726L25.4306 22.1786C25.7001 21.8641 26.1736 21.8277 26.4881 22.0972C26.8026 22.3668 26.839 22.8403 26.5694 23.1548L24.5694 25.4881C24.427 25.6543 24.2189 25.75 24 25.75C23.7811 25.75 23.573 25.6543 23.4306 25.4881L21.4306 23.1548C21.161 22.8403 21.1974 22.3668 21.5119 22.0972C21.8264 21.8277 22.2999 21.8641 22.5694 22.1786L23.25 22.9726V18Z" fill="#231F20"/>
    <path opacity="0.5" d="M30.1111 15H17.8889C15.7411 15 14 16.8 14 19.0204C14 20.9246 15.2806 22.5196 17 22.9352V22C17 20.1144 17 19.1716 17.5858 18.5858C18.1716 18 19.1144 18 21 18H23.25H24.75H27C28.8856 18 29.8284 18 30.4142 18.5858C31 19.1716 31 20.1144 31 22V22.9352C32.7194 22.5196 34 20.9246 34 19.0204C34 16.8 32.2589 15 30.1111 15Z" fill="#231F20"/>
    </svg>
    