<svg width="133" height="41" viewBox="0 0 133 41" fill="none" xmlns="http://www.w3.org/2000/svg">
<path fill-rule="evenodd" clip-rule="evenodd" d="M76.9471 1.52178V4.55357C76.9471 4.94476 77.3383 5.23816 77.7295 5.33596H84.7711L76.6537 16.9741C76.1647 17.7565 76.1647 18.5389 76.1647 19.0279V22.0597C76.1647 22.5487 76.6537 22.9399 77.1427 22.7443C81.7393 20.2993 87.3139 20.5927 91.4215 22.7443C91.9105 23.0377 92.3995 22.5487 92.3995 22.0597V18.8323C92.3995 18.4411 92.2039 17.9521 91.7149 17.6587C89.3677 16.2895 86.6293 15.9961 83.9887 15.9961L91.0303 6.02056C91.1074 5.89198 91.1812 5.77015 91.2511 5.65465C91.7132 4.89164 92.0083 4.40433 92.0083 4.06457V1.52178C92.0083 1.13058 91.6171 0.739385 91.2259 0.739385H77.7295C77.2405 0.739385 76.9471 1.03278 76.9471 1.52178ZM23.5486 23.3311H27.6562C28.0474 23.3311 28.4386 23.0377 28.243 22.6465V11.3995C28.243 11.3207 28.2429 11.2411 28.2428 11.1609C28.2398 8.65376 28.2361 5.53156 31.0792 5.53156C33.7132 5.53156 33.6672 8.36923 33.6302 10.6478C33.626 10.9073 33.622 11.1596 33.622 11.3995V22.6465C33.622 23.0377 34.0131 23.4289 34.4043 23.4289H38.5119C38.9031 23.4289 39.2943 23.0377 39.2943 22.6465V11.3995C39.2943 10.1281 39.2943 8.36775 39.6855 7.29195C40.0767 6.21616 41.1525 5.53156 42.1305 5.53156C43.4019 5.53156 44.2821 6.02056 44.5755 7.38975C44.7292 8.08134 44.7017 9.61819 44.6829 10.672C44.6778 10.9594 44.6733 11.2109 44.6733 11.3995V22.6465C44.6733 23.0377 45.0645 23.4289 45.4557 23.4289H49.5633C49.9545 23.4289 50.3457 23.0377 50.3457 22.6465V9.24794C50.3457 8.87835 50.3529 8.50391 50.3602 8.12844C50.3993 6.11938 50.4389 4.08078 49.3677 2.59758C48.1941 0.934984 46.3359 0.250387 44.5755 0.250387C42.1305 0.250387 39.8811 1.52178 38.9031 4.16237C37.8273 1.52178 36.1647 0.250387 33.622 0.250387C31.177 0.250387 29.221 1.52178 28.243 4.16237H28.1452V1.42398C28.0474 1.03278 27.754 0.739385 27.3628 0.739385H23.5486C23.1574 0.739385 22.7662 1.13058 22.7662 1.52178V22.6465C22.864 23.0377 23.1574 23.3311 23.5486 23.3311ZM94.4532 12.0841C94.3554 5.43376 97.6806 0.348187 103.646 0.348187C109.808 0.348187 113.133 5.53156 113.035 12.2797C113.035 18.7345 109.417 23.8201 103.646 23.8201C97.6806 23.8201 94.4532 18.6367 94.4532 12.0841ZM100.517 11.6262C100.514 14.3405 100.509 19.5169 103.646 19.5169C106.776 19.5169 106.972 15.0181 107.069 12.2797C107.069 10.5193 106.972 8.36775 106.483 6.70515C105.994 5.23816 105.016 4.65137 103.744 4.65137C100.712 4.65137 100.517 8.85674 100.517 11.3995C100.517 11.473 100.517 11.5486 100.517 11.6262ZM116.849 23.3311H120.957C121.446 23.3311 121.837 23.0377 121.837 22.6465V11.2039C121.837 9.73694 121.935 8.46555 122.522 7.19415C122.913 6.21616 123.891 5.53156 124.869 5.53156C127.467 5.53156 127.439 8.32225 127.416 10.5951C127.414 10.8032 127.412 11.007 127.412 11.2039V22.6465C127.509 23.0377 127.803 23.3311 128.194 23.3311H132.204C132.595 23.3311 132.986 23.0377 132.986 22.6465V9.34574C132.986 7.29195 132.986 4.45577 131.91 2.79317C130.737 1.03278 128.976 0.348187 127.118 0.348187C124.282 0.348187 122.717 1.61958 121.544 4.55357H121.446V1.32618C121.348 1.03278 121.055 0.739385 120.664 0.739385H116.849C116.458 0.739385 116.067 1.03278 116.067 1.42398V22.5487C116.067 22.9399 116.458 23.3311 116.849 23.3311ZM73.319 19.2378C73.387 19.3299 73.4556 19.4226 73.5241 19.5169C73.8175 19.9081 73.8175 20.3971 73.4263 20.4949C72.9863 20.8372 72.3995 21.3506 71.8127 21.8641C71.2259 22.3775 70.6391 22.891 70.199 23.2333C69.9056 23.4289 69.5144 23.5267 69.221 23.3311C68.1726 22.5073 67.8123 21.9703 67.3497 21.2809C67.2082 21.0699 67.0571 20.8447 66.8738 20.5927C64.6244 22.9399 63.0596 23.6245 60.1256 23.6245C56.7026 23.6245 53.9642 21.4729 53.9642 17.2675C53.9642 13.8445 55.8224 11.5951 58.3652 10.5193C60.2242 9.71109 62.6843 9.43721 64.8072 9.20088C65.253 9.15125 65.684 9.10327 66.0914 9.05234V8.56335C66.0914 8.44313 66.0929 8.31997 66.0944 8.19475C66.1051 7.30128 66.1171 6.30357 65.6024 5.53156C65.1134 4.74917 64.2332 4.45577 63.353 4.45577C61.7882 4.45577 60.3212 5.23816 60.0278 6.90075C59.93 7.29195 59.7344 7.68315 59.3432 7.68315L55.3334 7.29195C55.04 7.19415 54.6488 6.90075 54.7466 6.41176C55.7246 1.61958 60.0278 0.152588 63.9398 0.152588C65.9936 0.152588 68.6342 0.641585 70.1012 2.20638C71.9891 4.00445 71.9763 6.21574 71.9619 8.68832C71.9606 8.90548 71.9594 9.12465 71.9594 9.34574V15.7027C71.9594 17.3981 72.6106 18.2793 73.319 19.2378ZM62.5706 19.5169C63.7442 19.5169 64.7222 18.8323 65.4068 17.6587C66.1892 16.1917 66.1892 14.8225 66.1892 13.2577V12.3775C63.1574 12.3775 60.0278 12.9643 60.0278 16.4851C60.0278 18.3433 61.0058 19.5169 62.5706 19.5169ZM19.3337 19.2378C19.4017 19.3299 19.4703 19.4226 19.5388 19.5169C19.8322 19.9081 19.93 20.3971 19.5388 20.4949C19.0987 20.8372 18.5119 21.3506 17.9251 21.8641C17.3383 22.3775 16.7515 22.891 16.3114 23.2333C16.018 23.4289 15.6268 23.5267 15.3334 23.3311C14.285 22.5073 13.9247 21.9703 13.4622 21.2809C13.3207 21.0699 13.1696 20.8447 12.9863 20.5927C10.7369 22.9399 9.17208 23.6245 6.23809 23.6245C2.81511 23.6245 0.0767212 21.4729 0.0767212 17.2675C0.0767212 13.8445 1.93491 11.5951 4.4777 10.5193C6.33666 9.71109 8.79679 9.43721 10.9196 9.20088C11.3655 9.15125 11.7965 9.10327 12.2039 9.05234V8.56335C12.2039 8.44313 12.2053 8.31995 12.2068 8.19473C12.2176 7.30126 12.2295 6.30356 11.7149 5.53156C11.2259 4.74917 10.3457 4.45577 9.46547 4.45577C7.90068 4.45577 6.43369 5.23816 6.14029 6.90075C6.04249 7.29195 5.84689 7.68315 5.45569 7.68315L1.44591 7.29195C1.05472 7.19415 0.761318 6.99855 0.859117 6.41176C1.83711 1.61958 6.14029 0.152588 10.0523 0.152588C12.0083 0.152588 14.6488 0.641585 16.1158 2.20638C18.0038 4.00445 17.991 6.21575 17.9766 8.68833C17.9753 8.90549 17.974 9.12466 17.974 9.34574V15.7027C17.974 17.3981 18.6253 18.2793 19.3337 19.2378ZM8.68308 19.5169C9.85667 19.5169 10.8347 18.8323 11.5193 17.6587C12.3017 16.1917 12.3017 14.8225 12.3017 13.2577V12.3775C9.26987 12.3775 6.14029 12.9643 6.14029 16.4851C6.14029 18.3433 7.11829 19.5169 8.68308 19.5169ZM54.0639 40.1526C63.7461 40.1526 74.8952 37.1208 82.6214 31.4484C83.8928 30.5682 82.817 29.1012 81.4478 29.5902C72.8414 33.3066 63.3549 35.067 54.8463 35.067C42.1324 35.067 29.8096 31.644 19.9319 25.8739C19.0517 25.2871 18.4649 26.1673 19.1495 26.8519C28.4405 35.1648 40.5676 40.1526 54.0639 40.1526ZM76.9321 27.429C79.4169 27.1306 84.8814 26.4745 85.8488 27.7321C86.7628 29.0117 84.9431 33.6232 83.9827 36.0571C83.9155 36.2274 83.8525 36.387 83.795 36.534C83.5016 37.2186 84.0884 37.512 84.773 37.023C88.9783 33.6 90.0541 26.2651 89.174 25.2871C88.2938 24.3091 81.0566 23.3311 76.6556 26.4607C75.971 26.8519 76.0688 27.5365 76.8512 27.4387L76.9321 27.429Z" fill="white"/>
</svg>
