<svg width="59" height="41" viewBox="0 0 59 41" fill="none" xmlns="http://www.w3.org/2000/svg">
<path d="M22.1428 21.0669C22.1428 21.424 21.9714 21.7669 21.6785 21.9669C20.5285 22.774 19.2857 21.9597 19.2857 20.8669V9.43833H10.7143V23.724C10.7143 27.6597 13.9214 30.8669 17.8571 30.8669C19.5571 30.8669 21.2071 30.2597 22.5 29.1526C22.3643 30.2097 21.7857 31.0812 20.8143 31.6883C19.9071 32.2597 18.7214 32.5597 17.3928 32.5597C16.0214 32.5597 14.6286 32.2383 13.3643 31.6312C13.3643 31.6312 13.1357 31.524 12.85 31.3597V38.974C14.7571 39.7454 16.85 40.1526 18.8714 40.1526C22.0714 40.1526 24.9928 39.1526 27.1 37.3312C29.4643 35.2954 30.7143 32.3169 30.7143 28.724V9.43833H22.1428V21.0669ZM8.57142 23.724V0.866915H0V22.2955C0 28.1812 3.88571 30.8669 7.49999 30.8669C8.57856 30.8669 9.65713 30.6169 10.6214 30.1669C10.7643 30.1026 10.9928 29.9597 10.9928 29.9597C10.9928 29.9597 10.7786 29.7312 10.6857 29.6312C9.31428 28.0669 8.57142 26.0383 8.57142 23.724ZM58.5714 18.0098V9.43833H55.5142C54.2357 2.70263 47.1571 -1.72594 40.0428 0.938343C36.0785 2.41691 32.8571 7.15262 32.8571 11.3883V30.8669H33.2285C35.4357 30.774 37.5 29.8383 39.0357 28.2383C40.5785 26.6312 41.4285 24.524 41.4285 22.3026H45V13.724H41.4285V11.3669C41.4285 10.4526 41.9142 9.59548 42.7142 9.15262C44.9071 7.93119 47.1428 9.50262 47.1428 11.5812V19.4383C47.1428 22.5455 48.3142 25.4312 50.4428 27.5669C52.4785 29.6026 55.2357 30.774 58.1999 30.8669H58.5642V22.2955C56.9642 22.2883 55.7071 21.0026 55.7071 19.4383V18.0098H58.5714Z" fill="white"/>
</svg>
