<svg width="100" height="41" viewBox="0 0 100 41" fill="none" xmlns="http://www.w3.org/2000/svg">
<path d="M0 0.152588V2.87986H19.4318V0.152588H0ZM22.2727 0.152588V2.87986H50C50 2.87986 47.1591 0.152588 43.4091 0.152588H22.2727ZM55.4545 0.152588V2.87986H72.2727L71.1364 0.152588H55.4545ZM84.2045 0.152588L83.1818 2.87986H99.7727V0.152588H84.2045ZM0 5.4935V8.22077H19.4318V5.4935H0ZM22.2727 5.4935V8.22077H53.1818C53.1818 8.22077 52.8409 6.06168 52.1591 5.4935H22.2727ZM55.4545 5.4935V8.22077H74.0909L73.1818 5.4935H55.4545ZM82.2727 5.4935L81.3636 8.22077H99.8864V5.4935H82.2727ZM5.56818 10.8344V13.5617H13.9773V10.8344H5.56818ZM27.8409 10.8344V13.5617H36.25V10.8344H27.8409ZM44.4318 10.8344V13.5617H52.8409C52.8409 13.5617 53.4091 12.0844 53.4091 10.8344H44.4318ZM61.0227 10.8344V13.5617H76.0227L75 10.8344H61.0227ZM80.3409 10.8344L79.3182 13.5617H94.3182V10.8344H80.3409ZM5.56818 16.1753V18.9026H13.9773V16.1753H5.56818ZM27.8409 16.1753V18.9026H49.3182C49.3182 18.9026 51.1364 17.5389 51.7045 16.1753H27.8409ZM61.0227 16.1753V18.9026H69.4318V17.4253L70 18.9026H85.4545L86.0227 17.4253V18.9026H94.4318V16.1753H78.6364L77.8409 18.448L77.0454 16.1753H61.0227ZM5.56818 21.4026V24.1299H13.9773V21.4026H5.56818ZM27.8409 21.4026V24.1299H51.7045C51.1364 22.7662 49.3182 21.4026 49.3182 21.4026H27.8409ZM61.0227 21.4026V24.1299H69.4318V21.4026H61.0227ZM70.9091 21.4026L71.9318 24.1299H83.5227L84.5454 21.4026H70.9091ZM86.0227 21.4026V24.1299H94.4318V21.4026H86.0227ZM5.56818 26.7435V29.4708H13.9773V26.7435H5.56818ZM27.8409 26.7435V29.4708H36.25V26.7435H27.8409ZM44.4318 26.7435V29.4708H53.4091C53.4091 28.2208 52.8409 26.7435 52.8409 26.7435H44.4318ZM61.0227 26.7435V29.4708H69.4318V26.7435H61.0227ZM72.8409 26.7435L73.8636 29.4708H81.5909L82.6136 26.7435H72.8409ZM86.0227 26.7435V29.4708H94.4318V26.7435H86.0227ZM0.113636 32.0844V34.8117H19.5455V32.0844H0.113636ZM22.2727 32.0844V34.8117H52.2727C52.9545 34.1299 53.2955 32.0844 53.2955 32.0844H22.2727ZM55.5682 32.0844V34.8117H69.4318V32.0844H55.5682ZM74.7727 32.0844L75.7954 34.8117H79.7727L80.6818 32.0844H74.7727ZM86.0227 32.0844V34.8117H100V32.0844H86.0227ZM0.113636 37.4253V40.1526H19.5455V37.4253H0.113636ZM22.2727 37.4253V40.1526H43.4091C47.1591 40.1526 50 37.4253 50 37.4253H22.2727ZM55.5682 37.4253V40.1526H69.4318V37.4253H55.5682ZM76.7045 37.4253L77.7273 40.1526H77.8409L78.8636 37.4253H76.7045ZM86.0227 37.4253V40.1526H100V37.4253H86.0227Z" fill="white"/>
</svg>
