<svg width="24" height="25" viewBox="0 0 24 25" fill="none" xmlns="http://www.w3.org/2000/svg">
<path d="M2.89771 4.33324C8.47614 -2.15917 18.8196 -0.877602 22.6864 6.70619C19.9644 6.70718 15.702 6.70538 13.3935 6.70619C11.7191 6.70677 10.6381 6.66871 9.46737 7.28502C8.09103 8.0095 7.05257 9.35244 6.69006 10.9298L2.89771 4.33324Z" fill="#EA4335"/>
<path d="M8.00772 12.1521C8.00772 14.3525 9.79683 16.1426 11.996 16.1426C14.1951 16.1426 15.9842 14.3525 15.9842 12.1521C15.9842 9.95178 14.1951 8.16162 11.996 8.16162C9.79683 8.16162 8.00772 9.95178 8.00772 12.1521Z" fill="#4285F4"/>
<path d="M13.5438 17.3754C11.3053 18.0407 8.68567 17.3029 7.25074 14.8261C6.15542 12.9354 3.26143 7.89378 1.94603 5.60132C-2.66093 12.6624 1.30962 22.2847 9.67323 23.9271L13.5438 17.3754Z" fill="#34A853"/>
<path d="M15.7007 8.16162C17.5652 9.89571 17.9714 12.7036 16.7084 14.8809C15.757 16.5212 12.7201 21.6468 11.2483 24.1287C19.8654 24.6599 26.1472 16.2144 23.3098 8.16162H15.7007Z" fill="#FBBC05"/>
</svg>
