<svg width="24" height="24" viewBox="0 0 24 24" fill="none" xmlns="http://www.w3.org/2000/svg">
<path fill-rule="evenodd" clip-rule="evenodd" d="M16.7 8.71L21.29 4.12C21.68 3.73 21.68 3.1 21.3 2.7C20.91 2.31 20.28 2.31 19.89 2.7L15.3 7.29L13.71 5.7C13.08 5.07 12 5.52 12 6.41V11.01C12 11.56 12.45 12.01 13 12.01H17.58C18.47 12.01 18.92 10.93 18.29 10.3L16.7 8.71ZM8.71 16.7L4.12 21.29C3.73 21.68 3.1 21.68 2.7 21.3C2.31 20.91 2.31 20.28 2.7 19.89L7.29 15.3L5.7 13.71C5.07 13.08 5.52 12 6.41 12H11.01C11.56 12 12.01 12.45 12.01 13V17.58C12.01 18.47 10.93 18.92 10.3 18.29L8.71 16.7Z" fill="#212B36"/>
</svg>
