<svg width="24" height="25" viewBox="0 0 24 25" fill="none" xmlns="http://www.w3.org/2000/svg">
<g id="icons/notification/ic_chat">
<g id="chat">
<path id="Path" d="M15.9547 7.42454C20.3369 7.3576 23.9137 10.8067 23.9985 15.1886C24.011 15.832 23.9467 16.4582 23.8142 17.0589C23.5899 18.0759 23.4565 19.1109 23.4565 20.1524V22.1656C23.4565 22.474 23.2065 22.724 22.898 22.724H20.8849C19.8433 22.724 18.8084 22.8574 17.7913 23.0817C17.1907 23.2142 16.5645 23.2785 15.9212 23.266C11.5393 23.1812 8.09018 19.6046 8.15702 15.2224C8.22223 10.9451 11.6774 7.48989 15.9547 7.42454Z" fill="url(#paint0_linear_2601_11656)"/>
<path id="Path_2" fill-rule="evenodd" clip-rule="evenodd" d="M15.9547 7.42454C20.3369 7.3576 23.9137 10.8067 23.9985 15.1886C24.011 15.832 23.9467 16.4582 23.8142 17.0589C23.5899 18.0759 23.4565 19.1109 23.4565 20.1524V22.1656C23.4565 22.474 23.2065 22.724 22.898 22.724H20.8849C19.8433 22.724 18.8084 22.8574 17.7913 23.0817C17.1907 23.2142 16.5645 23.2785 15.9212 23.266C11.5393 23.1812 8.09018 19.6046 8.15702 15.2224C8.22223 10.9451 11.6774 7.48989 15.9547 7.42454Z" fill="url(#paint1_linear_2601_11656)"/>
<path id="Path_3" fill-rule="evenodd" clip-rule="evenodd" d="M9.80149 0.195259C4.4627 0.113697 0.105251 4.31562 0.00184497 9.65403C-0.0132957 10.4377 0.0650325 11.2007 0.22647 11.9324C0.499751 13.1714 0.66222 14.4323 0.66222 15.7012V18.1538C0.66222 18.5295 0.966814 18.8342 1.34261 18.8342H3.7952C5.06402 18.8342 6.32491 18.9966 7.56395 19.2699C8.29567 19.4313 9.05861 19.5097 9.84231 19.4945C15.1806 19.3911 19.3825 15.0338 19.3012 9.69513C19.2217 4.48418 15.0124 0.274806 9.80149 0.195259Z" fill="url(#paint2_linear_2601_11656)"/>
<path id="Path_4" fill-rule="evenodd" clip-rule="evenodd" d="M6.19656 9.32781C5.92394 9.03812 5.53806 8.8562 5.10878 8.8562C4.28317 8.8562 3.61389 9.52548 3.61389 10.3511C3.61389 10.7803 3.79577 11.1662 4.0855 11.4389L7.31022 14.6636C7.58289 14.9533 7.96877 15.1352 8.398 15.1352C9.22361 15.1352 9.89289 14.4659 9.89289 13.6403C9.89289 13.2111 9.71097 12.8252 9.42128 12.5525L6.19656 9.32781Z" fill="#0C53B7"/>
<path id="Path_5" fill-rule="evenodd" clip-rule="evenodd" d="M10.4242 9.32781C10.1516 9.03812 9.76572 8.8562 9.33644 8.8562C8.51083 8.8562 7.84155 9.52548 7.84155 10.3511C7.84155 10.7803 8.02343 11.1662 8.31316 11.4389L11.5379 14.6636C11.8106 14.9533 12.1964 15.1352 12.6257 15.1352C13.4513 15.1352 14.1206 14.4659 14.1206 13.6403C14.1206 13.2111 13.9386 12.8252 13.6489 12.5525L10.4242 9.32781Z" fill="#0C53B7"/>
<path id="Path_6" fill-rule="evenodd" clip-rule="evenodd" d="M14.6518 9.32781C14.3792 9.03812 13.9933 8.8562 13.564 8.8562C12.7384 8.8562 12.0692 9.52548 12.0692 10.3511C12.0692 10.7803 12.2511 11.1662 12.5408 11.4389L15.7655 14.6636C16.0382 14.9533 16.424 15.1352 16.8533 15.1352C17.6789 15.1352 18.3482 14.4659 18.3482 13.6403C18.3482 13.2111 18.1662 12.8252 17.8765 12.5525L14.6518 9.32781Z" fill="#0C53B7"/>
<circle id="Oval" cx="5.10872" cy="10.3511" r="1.49489" fill="white"/>
<circle id="Oval_2" cx="9.3365" cy="10.3511" r="1.49489" fill="white"/>
<circle id="Oval_3" cx="13.5643" cy="10.3511" r="1.49489" fill="white"/>
</g>
</g>
<defs>
<linearGradient id="paint0_linear_2601_11656" x1="8.66349" y1="19.5623" x2="20.2943" y2="31.1931" gradientUnits="userSpaceOnUse">
<stop stop-color="#A7F3CE"/>
<stop offset="1" stop-color="#61DB99"/>
</linearGradient>
<linearGradient id="paint1_linear_2601_11656" x1="0.234077" y1="15.3456" x2="16.0781" y2="31.1896" gradientUnits="userSpaceOnUse">
<stop stop-color="#5BE584"/>
<stop offset="1" stop-color="#00AB55"/>
</linearGradient>
<linearGradient id="paint2_linear_2601_11656" x1="-9.65117" y1="9.84522" x2="9.65109" y2="29.1476" gradientUnits="userSpaceOnUse">
<stop stop-color="#74CAFF"/>
<stop offset="1" stop-color="#0C53B7"/>
</linearGradient>
</defs>
</svg>
