<svg width="18" height="18" viewBox="0 0 18 18" fill="none" xmlns="http://www.w3.org/2000/svg">
    <path d="M9.0001 10.05L5.3251 13.725C5.1876 13.8625 5.0126 13.9313 4.8001 13.9313C4.5876 13.9313 4.4126 13.8625 4.2751 13.725C4.1376 13.5875 4.06885 13.4125 4.06885 13.2C4.06885 12.9875 4.1376 12.8125 4.2751 12.675L7.9501 9L4.2751 5.325C4.1376 5.1875 4.06885 5.0125 4.06885 4.8C4.06885 4.5875 4.1376 4.4125 4.2751 4.275C4.4126 4.1375 4.5876 4.06875 4.8001 4.06875C5.0126 4.06875 5.1876 4.1375 5.3251 4.275L9.0001 7.95L12.6751 4.275C12.8126 4.1375 12.9876 4.06875 13.2001 4.06875C13.4126 4.06875 13.5876 4.1375 13.7251 4.275C13.8626 4.4125 13.9313 4.5875 13.9313 4.8C13.9313 5.0125 13.8626 5.1875 13.7251 5.325L10.0501 9L13.7251 12.675C13.8626 12.8125 13.9313 12.9875 13.9313 13.2C13.9313 13.4125 13.8626 13.5875 13.7251 13.725C13.5876 13.8625 13.4126 13.9313 13.2001 13.9313C12.9876 13.9313 12.8126 13.8625 12.6751 13.725L9.0001 10.05Z" fill="#212B36"/>
    </svg>
    