<svg width="32" height="32" viewBox="0 0 32 32" fill="none" xmlns="http://www.w3.org/2000/svg">
<path d="M19.6133 21.1733L14.44 16L19.6133 10.8267C19.7368 10.7032 19.8347 10.5567 19.9015 10.3954C19.9683 10.2341 20.0027 10.0612 20.0027 9.88667C20.0027 9.7121 19.9683 9.53923 19.9015 9.37795C19.8347 9.21666 19.7368 9.07012 19.6133 8.94667C19.4899 8.82323 19.3433 8.72531 19.182 8.6585C19.0208 8.5917 18.8479 8.55731 18.6733 8.55731C18.4987 8.55731 18.3259 8.5917 18.1646 8.6585C18.0033 8.72531 17.8568 8.82323 17.7333 8.94667L11.6133 15.0667C11.4897 15.19 11.3916 15.3365 11.3247 15.4978C11.2578 15.6591 11.2234 15.832 11.2234 16.0067C11.2234 16.1813 11.2578 16.3542 11.3247 16.5155C11.3916 16.6768 11.4897 16.8233 11.6133 16.9467L17.7333 23.0667C18.2533 23.5867 19.0933 23.5867 19.6133 23.0667C20.12 22.5467 20.1333 21.6933 19.6133 21.1733Z" fill="black"/>
</svg>