<svg width="32" height="32" viewBox="0 0 32 32" fill="none" xmlns="http://www.w3.org/2000/svg">
<path d="M12.3867 21.1733L17.56 16L12.3867 10.8267C12.2632 10.7032 12.1653 10.5567 12.0985 10.3954C12.0317 10.2341 11.9973 10.0612 11.9973 9.88667C11.9973 9.7121 12.0317 9.53923 12.0985 9.37795C12.1653 9.21666 12.2632 9.07012 12.3867 8.94667C12.5101 8.82323 12.6567 8.72531 12.818 8.6585C12.9792 8.5917 13.1521 8.55731 13.3267 8.55731C13.5012 8.55731 13.6741 8.5917 13.8354 8.6585C13.9967 8.72531 14.1432 8.82323 14.2667 8.94667L20.3867 15.0667C20.9067 15.5867 20.9067 16.4267 20.3867 16.9467L14.2667 23.0667C14.1433 23.1903 13.9968 23.2883 13.8355 23.3552C13.6742 23.4222 13.5013 23.4566 13.3267 23.4566C13.1521 23.4566 12.9791 23.4222 12.8178 23.3552C12.6565 23.2883 12.51 23.1903 12.3867 23.0667C11.88 22.5467 11.8667 21.6933 12.3867 21.1733Z" fill="black"/>
</svg>
