<svg width="24" height="24" viewBox="0 0 24 24" fill="none" xmlns="http://www.w3.org/2000/svg">
<path opacity="0.32" d="M14.3283 11.4343L18.5126 7.25C18.9268 6.8358 18.9268 6.1642 18.5126 5.75C18.0984 5.3358 17.4268 5.3358 17.0126 5.75L11.4696 11.2929C11.0792 11.6834 11.0792 12.3166 11.4696 12.7071L17.0126 18.25C17.4268 18.6642 18.0984 18.6642 18.5126 18.25C18.9268 17.8358 18.9268 17.1642 18.5126 16.75L14.3283 12.5657C14.254 12.4914 14.1951 12.4032 14.1549 12.3062C14.1147 12.2091 14.094 12.1051 14.094 12C14.094 11.8949 14.1147 11.7909 14.1549 11.6938C14.1951 11.5968 14.254 11.5086 14.3283 11.4343Z" fill="#637381"/>
<path d="M8.3283 11.4343L12.5126 7.25C12.9268 6.8358 12.9268 6.1642 12.5126 5.75C12.0984 5.3358 11.4268 5.3358 11.0126 5.75L5.4696 11.2929C5.0792 11.6834 5.0792 12.3166 5.4696 12.7071L11.0126 18.25C11.4268 18.6642 12.0984 18.6642 12.5126 18.25C12.9268 17.8358 12.9268 17.1642 12.5126 16.75L8.3283 12.5657C8.25401 12.4914 8.19508 12.4032 8.15487 12.3062C8.11467 12.2091 8.09397 12.1051 8.09397 12C8.09397 11.8949 8.11467 11.7909 8.15487 11.6938C8.19508 11.5968 8.25401 11.5086 8.3283 11.4343Z" fill="#637381"/>
</svg>
