<svg width="24" height="24" viewBox="0 0 24 24" fill="none" xmlns="http://www.w3.org/2000/svg">
<path d="M17.4 22C8.89938 21.989 2.01102 15.1006 2 6.59999C2 4.05948 4.05949 1.99999 6.6 1.99999C6.85834 1.99802 7.11625 2.02147 7.37 2.06999C7.61531 2.10629 7.85647 2.16658 8.09 2.24999C8.42419 2.36725 8.67143 2.65253 8.74 2.99999L10.11 8.99999C10.185 9.33091 10.0871 9.6773 9.85 9.91999C9.72 10.06 9.71 10.07 8.48 10.71C9.46499 12.8708 11.1932 14.6061 13.35 15.6C14 14.36 14.01 14.35 14.15 14.22C14.3927 13.9829 14.7391 13.885 15.07 13.96L21.07 15.33C21.4061 15.408 21.6782 15.6536 21.79 15.98C21.8744 16.2174 21.938 16.4616 21.98 16.71C22.0202 16.9613 22.0403 17.2155 22.04 17.47C22.0016 19.9988 19.929 22.0223 17.4 22Z" fill="#212B36"/>
</svg>
