<svg width="24" height="25" viewBox="0 0 24 25" fill="none" xmlns="http://www.w3.org/2000/svg">
    <path d="M7 22.5C6.45 22.5 5.979 22.304 5.587 21.912C5.195 21.52 4.99933 21.0493 5 20.5C5 19.95 5.196 19.479 5.588 19.087C5.98 18.695 6.45067 18.4993 7 18.5C7.55 18.5 8.021 18.696 8.413 19.088C8.805 19.48 9.00067 19.9507 9 20.5C9 21.05 8.804 21.521 8.412 21.913C8.02 22.305 7.54933 22.5007 7 22.5ZM17 22.5C16.45 22.5 15.979 22.304 15.587 21.912C15.195 21.52 14.9993 21.0493 15 20.5C15 19.95 15.196 19.479 15.588 19.087C15.98 18.695 16.4507 18.4993 17 18.5C17.55 18.5 18.021 18.696 18.413 19.088C18.805 19.48 19.0007 19.9507 19 20.5C19 21.05 18.804 21.521 18.412 21.913C18.02 22.305 17.5493 22.5007 17 22.5ZM6.15 6.5L8.55 11.5H15.55L18.3 6.5H6.15ZM5.2 4.5H19.95C20.3333 4.5 20.625 4.671 20.825 5.013C21.025 5.355 21.0333 5.70067 20.85 6.05L17.3 12.45C17.1167 12.7833 16.8707 13.0417 16.562 13.225C16.2533 13.4083 15.916 13.5 15.55 13.5H8.1L7 15.5H19V17.5H7C6.25 17.5 5.68333 17.1707 5.3 16.512C4.91667 15.8533 4.9 15.1993 5.25 14.55L6.6 12.1L3 4.5H1V2.5H4.25L5.2 4.5Z" fill="#231F20"/>
</svg>
    