<svg width="24" height="25" viewBox="0 0 24 25" fill="none" xmlns="http://www.w3.org/2000/svg">
<path fill-rule="evenodd" clip-rule="evenodd" d="M0.00015 4.79868L7.0599 0.152588L12.0001 4.3088L12 4.3089L12 4.30891L4.8819 8.73872L0.00015 4.79868ZM19.1181 8.73867L12 4.30891L12.0001 4.30883L12.0001 4.3088L16.9403 0.152663L24 4.79876L19.1182 8.73879L19.1181 8.73864L19.1181 8.73867ZM19.1181 8.73867L19.1182 8.73879L23.9998 12.6794L16.9401 17.3255L11.9999 13.1693L7.05975 17.3255L0 12.6794L4.88175 8.73932L12 13.1692L19.1181 8.73867ZM12.0145 14.0634L7.05997 18.2076L4.93972 16.8121V18.3762L12.0145 22.6526L19.0892 18.3762V16.8121L16.969 18.2076L12.0145 14.0634Z" fill="#0F82E2"/>
</svg>
