<svg width="48" height="49" viewBox="0 0 48 49" fill="none" xmlns="http://www.w3.org/2000/svg">
<path opacity="0.48" d="M34.3481 38.485C32.8525 36.9894 31.8332 35.0846 31.4186 33.0105L30.132 26.0008C29.97 25.9604 24.7734 24.9163 24.7734 24.9163L25.7468 29.7858C26.1613 31.8598 27.1806 33.7647 28.6762 35.2603L36.5059 43.09L37.7295 41.8664L34.3481 38.485Z" fill="#00AB55"/>
<path d="M36.3329 27.6037C34.5915 25.8622 32.3946 24.6868 29.9799 24.2041L25.1103 23.2307C24.547 23.1179 23.9645 23.2944 23.5581 23.7008C23.1518 24.1072 22.9755 24.6896 23.088 25.2531L24.0614 30.1227C24.5441 32.5375 25.7196 34.7342 27.4609 36.4757L35.2906 44.3053C36.4755 45.4902 38.0509 46.1428 39.7266 46.1428C41.4023 46.1428 42.9777 45.4902 44.1626 44.3053C45.3475 43.1204 46 41.5449 46 39.8693C46 38.1936 45.3475 36.6182 44.1626 35.4333L36.3329 27.6037ZM41.7318 41.8747C41.1963 42.4103 40.484 42.7053 39.7266 42.7053C38.9691 42.7053 38.2569 42.4103 37.7213 41.8746L29.8916 34.045C28.6319 32.7852 27.7814 31.1959 27.4323 29.449L26.9642 27.1069L29.3062 27.575C31.0532 27.9242 32.6425 28.7746 33.9022 30.0344L41.7319 37.8641C42.2675 38.3996 42.5625 39.1119 42.5625 39.8693C42.5625 40.6268 42.2675 41.339 41.7318 41.8747Z" fill="#00AB55"/>
<path d="M17.2109 5.58032H12.0169C11.3073 3.57987 9.3969 2.14282 7.15625 2.14282C4.31309 2.14282 2 4.45592 2 7.29907C2 9.53972 3.43705 11.4501 5.4375 12.1597V17.2678C5.4375 18.2171 6.20698 18.9866 7.15625 18.9866C8.10552 18.9866 8.875 18.2171 8.875 17.2678V12.1597C10.3375 11.641 11.4982 10.4804 12.0169 9.01782H17.2109C18.1602 9.01782 18.9297 8.24834 18.9297 7.29907C18.9297 6.34981 18.1602 5.58032 17.2109 5.58032ZM7.15625 9.01782C6.20853 9.01782 5.4375 8.24679 5.4375 7.29907C5.4375 6.35135 6.20853 5.58032 7.15625 5.58032C8.10397 5.58032 8.875 6.35135 8.875 7.29907C8.875 8.24679 8.10397 9.01782 7.15625 9.01782ZM30.7031 9.01782H35.9831C36.5018 10.4803 37.6624 11.641 39.125 12.1597V17.2678C39.125 18.2171 39.8945 18.9866 40.8438 18.9866C41.793 18.9866 42.5625 18.2171 42.5625 17.2678V12.1597C44.563 11.4502 46 9.53972 46 7.29907C46 4.45592 43.6869 2.14282 40.8438 2.14282C38.6031 2.14282 36.6927 3.57987 35.9831 5.58032H30.7031C29.7539 5.58032 28.9844 6.34981 28.9844 7.29907C28.9844 8.24834 29.7539 9.01782 30.7031 9.01782ZM40.8438 5.58032C41.7915 5.58032 42.5625 6.35135 42.5625 7.29907C42.5625 8.24679 41.7915 9.01782 40.8438 9.01782C39.896 9.01782 39.125 8.24679 39.125 7.29907C39.125 6.35135 39.896 5.58032 40.8438 5.58032ZM17.2109 39.2678H12.0169C11.4982 37.8053 10.3376 36.6447 8.875 36.1259V30.9319C8.875 29.9826 8.10552 29.2131 7.15625 29.2131C6.20698 29.2131 5.4375 29.9826 5.4375 30.9319V36.1259C3.43705 36.8355 2 38.7459 2 40.9866C2 43.8297 4.31309 46.1428 7.15625 46.1428C9.3969 46.1428 11.3073 44.7058 12.0169 42.7053H17.2109C18.1602 42.7053 18.9297 41.9358 18.9297 40.9866C18.9297 40.0373 18.1602 39.2678 17.2109 39.2678ZM7.15625 42.7053C6.20853 42.7053 5.4375 41.9343 5.4375 40.9866C5.4375 40.0389 6.20853 39.2678 7.15625 39.2678C8.10397 39.2678 8.875 40.0389 8.875 40.9866C8.875 41.9343 8.10397 42.7053 7.15625 42.7053Z" fill="#005249"/>
<path d="M26.0625 7.29907C26.0625 8.48561 25.1006 9.44751 23.9141 9.44751C22.7275 9.44751 21.7656 8.48561 21.7656 7.29907C21.7656 6.11253 22.7275 5.15063 23.9141 5.15063C25.1006 5.15063 26.0625 6.11253 26.0625 7.29907ZM23.9141 38.8381C22.7275 38.8381 21.7656 39.8 21.7656 40.9866C21.7656 42.1731 22.7275 43.135 23.9141 43.135C25.1006 43.135 26.0625 42.1731 26.0625 40.9866C26.0625 39.8 25.1006 38.8381 23.9141 38.8381ZM40.8438 22.1663C39.6572 22.1663 38.6953 23.1282 38.6953 24.3147C38.6953 25.5012 39.6572 26.4631 40.8438 26.4631C42.0303 26.4631 42.9922 25.5012 42.9922 24.3147C42.9922 23.1282 42.0303 22.1663 40.8438 22.1663ZM7.15625 22.1663C5.96971 22.1663 5.00781 23.1282 5.00781 24.3147C5.00781 25.5012 5.96971 26.4631 7.15625 26.4631C8.34279 26.4631 9.30469 25.5012 9.30469 24.3147C9.30469 23.1282 8.34279 22.1663 7.15625 22.1663Z" fill="#00AB55"/>
</svg>
