<svg width="24" height="25" viewBox="0 0 24 25" fill="none" xmlns="http://www.w3.org/2000/svg">
<g clip-path="url(#clip0_2601_11971)">
<path fill-rule="evenodd" clip-rule="evenodd" d="M6.14621 0.152588H14.1733L20.9756 7.24266V21.0318C20.9756 22.7508 19.5738 24.1526 17.8548 24.1526H6.14621C4.41981 24.1526 3.02539 22.7508 3.02539 21.0318V3.27341C3.02539 1.547 4.41981 0.152588 6.14621 0.152588V0.152588Z" fill="#FFD666"/>
<path opacity="0.4" fill-rule="evenodd" clip-rule="evenodd" d="M14.165 0.152588V7.18365H20.9747L14.165 0.152588Z" fill="white"/>
<path d="M15.1616 15.8011H8.83883C8.54372 15.8011 8.30762 16.0372 8.30762 16.3323C8.30762 16.6201 8.54372 16.8561 8.83883 16.8561H15.1616C15.4567 16.8561 15.6928 16.62 15.6928 16.3323C15.6928 16.0372 15.4567 15.8011 15.1616 15.8011ZM15.1616 17.9112H8.83883C8.54372 17.9112 8.30762 18.1473 8.30762 18.4424C8.30762 18.7301 8.54372 18.9662 8.83883 18.9662H15.1616C15.4567 18.9662 15.6928 18.7301 15.6928 18.4424C15.6928 18.1472 15.4567 17.9112 15.1616 17.9112ZM11.9449 11.5884H8.83883C8.54372 11.5884 8.30762 11.8171 8.30762 12.1122C8.30762 12.4073 8.54372 12.636 8.83883 12.636H11.9449C12.24 12.636 12.4761 12.4073 12.4761 12.1122C12.4761 11.8171 12.24 11.5884 11.9449 11.5884ZM15.1616 13.691H8.83883C8.54372 13.691 8.30762 13.9271 8.30762 14.2223C8.30762 14.51 8.54372 14.7461 8.83883 14.7461H15.1616C15.4567 14.7461 15.6928 14.51 15.6928 14.2223C15.6928 13.9271 15.4567 13.691 15.1616 13.691Z" fill="#B76E00"/>
</g>
<defs>
<clipPath id="clip0_2601_11971">
<rect width="24" height="24" fill="white" transform="translate(0 0.152588)"/>
</clipPath>
</defs>
</svg>
