<svg width="48" height="49" viewBox="0 0 48 49" fill="none" xmlns="http://www.w3.org/2000/svg">
<path opacity="0.48" d="M9.04688 27.5526V13.4518C9.04688 8.70753 12.8835 4.86157 17.6162 4.86157H12.3984C7.6522 4.86157 3.80469 8.70908 3.80469 13.4553V27.5491C3.80469 32.2952 7.6522 36.1428 12.3984 36.1428H17.6162C12.8835 36.1428 9.04688 32.2969 9.04688 27.5526Z" fill="#00B8D9"/>
<path d="M32.25 44.7366H15.75C13.472 44.6521 13.4737 41.3828 15.75 41.2991H32.25C34.528 41.3835 34.5263 44.6529 32.25 44.7366ZM35.6875 37.8616H12.3107C6.62541 37.8616 2 33.2362 2 27.5509V13.4553C2 7.76901 6.62619 3.14282 12.3125 3.14282H35.6875C41.3738 3.14282 46 7.76901 46 13.4553V27.5491C46 33.2354 41.3738 37.8616 35.6875 37.8616ZM12.3125 6.58032C8.52163 6.58032 5.4375 9.66445 5.4375 13.4553V27.5509C5.4375 31.3407 8.52085 34.4241 12.3107 34.4241H35.6875C39.4784 34.4241 42.5625 31.3399 42.5625 27.5491V13.4553C42.5625 9.66445 39.4784 6.58032 35.6875 6.58032H12.3125Z" fill="#003768"/>
<path d="M22.1105 29.1823C21.9533 29.1823 21.7935 29.1606 21.6348 29.115C20.7226 28.8527 20.1956 27.9006 20.4579 26.9883L24.411 13.2383C24.6734 12.326 25.6256 11.7995 26.5378 12.0613C27.45 12.3237 27.977 13.2758 27.7147 14.1881L23.7616 27.9381C23.5448 28.6916 22.8573 29.1823 22.1105 29.1823ZM32.4223 27.4631C31.9778 27.4631 31.5336 27.2919 31.1972 26.95C30.5314 26.2734 30.5401 25.1852 31.2166 24.5194L34.5817 21.2077C34.916 20.8466 34.9161 20.3724 34.5789 20.0112L31.2084 16.6487C30.5364 15.9782 30.5352 14.89 31.2056 14.218C31.876 13.5459 32.9643 13.5448 33.6362 14.2151L37.0064 17.5773C38.6749 19.1734 38.6749 22.0487 37.006 23.6448C37.0034 23.6474 37.0008 23.6501 36.9981 23.6527L33.6279 26.9695C33.2931 27.2988 32.8575 27.4631 32.4223 27.4631ZM15.7502 27.4631C15.3149 27.4631 14.8795 27.2988 14.5447 26.9694L11.1745 23.6526C11.1718 23.65 11.1691 23.6473 11.1666 23.6447C9.49758 22.0482 9.49766 19.1733 11.1666 17.577L14.5363 14.2151C15.2084 13.5447 16.2966 13.5461 16.967 14.218C17.6374 14.89 17.6362 15.9782 16.9642 16.6487L13.594 20.0109C13.2567 20.3718 13.2561 20.846 13.5908 21.2077L16.9558 24.5194C17.6324 25.1852 17.6411 26.2734 16.9753 26.95C16.6389 27.2918 16.1946 27.4631 15.7502 27.4631Z" fill="#00B8D9"/>
</svg>
