<svg width="64" height="65" viewBox="0 0 64 65" fill="none" xmlns="http://www.w3.org/2000/svg">
<g clip-path="url(#clip0_2601_11812)">
<path d="M58.9345 16.817C50.7574 10.5304 42.8261 15.6539 33.9795 13.8424C25.069 12.0178 21.5189 5.94238 11.37 8.74675C2.37975 11.2309 -3.07525 21.1906 1.867 29.529C3.27537 31.9051 5.67462 33.6978 6.65512 36.3564C8.23675 40.6453 5.82925 43.938 6.29887 48.1529C8.25037 65.6655 34.9956 58.8821 44.8368 53.4335C60.2705 44.8885 70.7115 25.8714 58.9345 16.817Z" fill="url(#paint0_linear_2601_11812)" fill-opacity="0.12"/>
<path opacity="0.24" d="M51.3966 10.4495C50.9324 10.4495 50.4683 10.2727 50.1149 9.91949C49.4083 9.21286 49.4083 8.06299 50.1149 7.35623C50.8216 6.64948 51.9716 6.64948 52.6782 7.35623C53.3848 8.06299 53.3848 9.21274 52.6782 9.91949C52.3249 10.2727 51.8608 10.4495 51.3966 10.4495ZM51.3967 8.07561C51.2526 8.07561 51.1086 8.13036 50.9989 8.24011C50.7797 8.45936 50.7797 8.81624 50.9989 9.03561C51.2182 9.25486 51.5751 9.25499 51.7944 9.03561C52.0137 8.81636 52.0137 8.45949 51.7944 8.24011C51.6847 8.13036 51.5407 8.07561 51.3967 8.07561Z" fill="#00AB55"/>
<path opacity="0.48" d="M54.54 16.5608C54.0759 16.5609 53.6118 16.3841 53.2584 16.0308C52.916 15.6884 52.7275 15.2333 52.7275 14.7491C52.7275 14.265 52.916 13.8099 53.2584 13.4675C53.9649 12.7609 55.1148 12.7608 55.8215 13.4675C56.1639 13.8099 56.3524 14.265 56.3524 14.7491C56.3524 15.2334 56.1639 15.6885 55.8214 16.0308C55.4684 16.384 55.0042 16.5608 54.54 16.5608ZM54.54 14.1869C54.396 14.1869 54.2519 14.2416 54.1423 14.3514C54.0359 14.4576 53.9775 14.5989 53.9775 14.7491C53.9775 14.8994 54.036 15.0406 54.1423 15.1469C54.3617 15.3663 54.7185 15.3663 54.9378 15.1469C55.0442 15.0406 55.1025 14.8994 55.1025 14.7491C55.1025 14.5989 55.044 14.4578 54.9378 14.3514C54.8282 14.2416 54.6842 14.1869 54.54 14.1869Z" fill="#00AB55"/>
<path opacity="0.24" d="M13.1719 29.7474C12.7078 29.7474 12.2436 29.5707 11.8903 29.2174C11.1837 28.5107 11.1837 27.3608 11.8903 26.6542C12.5969 25.9477 13.7469 25.9476 14.4536 26.6542C15.1602 27.3609 15.1602 28.5107 14.4536 29.2174C14.1003 29.5707 13.6361 29.7474 13.1719 29.7474ZM13.1719 27.3736C13.0279 27.3736 12.8838 27.4283 12.7742 27.5381C12.5548 27.7573 12.5548 28.1142 12.7742 28.3336C12.9934 28.5529 13.3504 28.5528 13.5697 28.3336C13.7891 28.1143 13.7891 27.7574 13.5697 27.5381C13.4601 27.4283 13.3161 27.3736 13.1719 27.3736Z" fill="#00AB55"/>
<path opacity="0.48" d="M12.3662 35.3651C12.2062 35.3651 12.0463 35.3041 11.9242 35.1821L11.1787 34.4366L10.4332 35.1821C10.1891 35.4261 9.79343 35.4261 9.5493 35.1821C9.30518 34.938 9.30518 34.5422 9.5493 34.2982L10.7368 33.1107C10.9809 32.8667 11.3766 32.8667 11.6207 33.1107L12.8082 34.2982C13.0523 34.5424 13.0523 34.9381 12.8082 35.1821C12.6861 35.304 12.5262 35.3651 12.3662 35.3651Z" fill="#00AB55"/>
<path opacity="0.48" d="M53.3525 53.4649C53.1925 53.4649 53.0326 53.404 52.9105 53.282L52.165 52.5365L51.4195 53.282C51.1754 53.526 50.7798 53.526 50.5356 53.282C50.2915 53.0378 50.2915 52.6421 50.5356 52.3981L51.7231 51.2106C51.9673 50.9666 52.3629 50.9666 52.607 51.2106L53.7945 52.3981C54.0386 52.6422 54.0386 53.038 53.7945 53.282C53.6724 53.4038 53.5125 53.4649 53.3525 53.4649Z" fill="#00AB55"/>
<path d="M48.0003 34.8602L43.3134 29.7537C42.9688 29.3781 42.4825 29.1643 41.9728 29.1643H36.154L36.1538 43.1455H38.3796C38.3796 41.387 39.8051 39.9615 41.5636 39.9615C43.3221 39.9615 44.7476 41.387 44.7476 43.1455H46.1805C46.6631 43.1456 47.126 42.9539 47.4673 42.6126C47.8086 42.2714 48.0003 41.8085 48.0002 41.3258L48.0003 34.8602Z" fill="#FFAB00"/>
<circle cx="41.5632" cy="43.1457" r="3.18402" fill="#B76E00"/>
<path fill-rule="evenodd" clip-rule="evenodd" d="M36.1533 34.8603V43.1456H26.4626C26.4626 41.3869 25.0369 39.9612 23.2782 39.9612C21.5195 39.9612 20.0938 41.3869 20.0938 43.1456H17.8197C17.337 43.1457 16.8741 42.954 16.5329 42.6127C16.1916 42.2715 15.9999 41.8086 16 41.3259V26.1339C15.9999 25.6512 16.1916 25.1884 16.5329 24.8471C16.8741 24.5058 17.337 24.3141 17.8197 24.3142H19.7936C19.907 27.5225 22.5408 30.0647 25.751 30.0647C28.9613 30.0647 31.595 27.5225 31.7085 24.3142H34.3336C35.3386 24.3143 36.1532 25.1289 36.1533 26.1339V34.8603Z" fill="#FFD666"/>
<path fill-rule="evenodd" clip-rule="evenodd" d="M31.7125 24.1138C31.7125 24.1808 31.7118 24.2479 31.7088 24.3142C31.5953 27.5225 28.9616 30.0647 25.7513 30.0647C22.5411 30.0647 19.9073 27.5225 19.7939 24.3142C19.7909 24.2479 19.7901 24.1808 19.7901 24.1138C19.7901 20.8215 22.459 18.1526 25.7513 18.1526C29.0436 18.1526 31.7125 20.8215 31.7125 24.1138Z" fill="#61F3F3" stroke="#61F3F3"/>
<path fill-rule="evenodd" clip-rule="evenodd" d="M23.2777 39.9617C25.0362 39.9617 26.4618 41.3872 26.4618 43.1457C26.4618 44.9042 25.0362 46.3297 23.2777 46.3297C21.5193 46.3297 20.0937 44.9042 20.0937 43.1457C20.0938 41.3872 21.5193 39.9617 23.2777 39.9617Z" fill="#B76E00"/>
<path fill-rule="evenodd" clip-rule="evenodd" d="M27.7408 26.4982C27.6084 26.4984 27.4809 26.448 27.3844 26.3574L25.3948 24.4945C25.2895 24.3959 25.2298 24.258 25.2298 24.1138V20.2479C25.2298 19.9598 25.4633 19.7263 25.7514 19.7263C26.0395 19.7263 26.273 19.9598 26.273 20.2479V23.888L28.0974 25.5962C28.2537 25.7426 28.3047 25.9695 28.226 26.1687C28.1474 26.3678 27.955 26.4986 27.7409 26.4986L27.7408 26.4982Z" fill="#006C9C"/>
</g>
<defs>
<linearGradient id="paint0_linear_2601_11812" x1="43.8414" y1="68.5541" x2="70.1982" y2="13.0735" gradientUnits="userSpaceOnUse">
<stop stop-color="#00AB55"/>
<stop offset="1" stop-color="#00AB55" stop-opacity="0.01"/>
</linearGradient>
<clipPath id="clip0_2601_11812">
<rect width="64" height="64" fill="white" transform="translate(0 0.152588)"/>
</clipPath>
</defs>
</svg>
