<svg width="24" height="24" viewBox="0 0 24 24" fill="none" xmlns="http://www.w3.org/2000/svg">
<path d="M11.9999 13.5C12.8283 13.5 13.4999 12.8284 13.4999 12C13.4999 11.1716 12.8283 10.5 11.9999 10.5C11.1715 10.5 10.4999 11.1716 10.4999 12C10.4999 12.8284 11.1715 13.5 11.9999 13.5Z" fill="#212B36"/>
<path d="M15.2899 18.12L13.9999 16.78L12.6599 15.44C12.4583 15.4753 12.2544 15.4954 12.0499 15.5C11.5861 15.5066 11.1256 15.421 10.6951 15.2481C10.2647 15.0751 9.87294 14.8184 9.54262 14.4927C9.21231 14.1671 8.95002 13.779 8.77101 13.351C8.592 12.9231 8.49984 12.4639 8.49989 12C8.50452 11.7954 8.52458 11.5915 8.55989 11.39L6.55989 9.39L4.99989 7.87C3.87121 8.93347 2.90429 10.1564 2.12989 11.5C2.04212 11.652 1.99591 11.8245 1.99591 12C1.99591 12.1755 2.04212 12.348 2.12989 12.5C2.75989 13.59 6.12989 19 12.0199 19H12.2699C13.3774 18.9671 14.4706 18.7404 15.4999 18.33L15.2899 18.12Z" fill="#212B36"/>
<path d="M11.3899 8.56C11.5914 8.5247 11.7953 8.50464 11.9999 8.5C12.9281 8.5 13.8184 8.86875 14.4748 9.52513C15.1311 10.1815 15.4999 11.0717 15.4999 12C15.4952 12.2046 15.4752 12.4085 15.4399 12.61L18.9599 16.13C20.1027 15.0693 21.0832 13.8462 21.8699 12.5C21.9577 12.348 22.0039 12.1755 22.0039 12C22.0039 11.8245 21.9577 11.652 21.8699 11.5C21.2299 10.39 17.7099 4.82 11.7299 5C10.6223 5.03286 9.52912 5.25962 8.49989 5.67L11.3899 8.56Z" fill="#212B36"/>
<path d="M20.7099 19.29L19.4099 18L4.70989 3.29C4.61665 3.19676 4.50596 3.1228 4.38413 3.07234C4.26231 3.02188 4.13174 2.99591 3.99989 2.99591C3.86803 2.99591 3.73746 3.02188 3.61564 3.07234C3.49381 3.1228 3.38312 3.19676 3.28989 3.29C3.10158 3.47831 2.99579 3.7337 2.99579 4C2.99579 4.2663 3.10158 4.5217 3.28989 4.71L5.52989 7L7.27989 8.7L16.5899 18L19.2899 20.71C19.3828 20.8037 19.4935 20.8781 19.6153 20.9289C19.7372 20.9797 19.8679 21.0058 19.9999 21.0058C20.1319 21.0058 20.2626 20.9797 20.3845 20.9289C20.5063 20.8781 20.6169 20.8037 20.7099 20.71C20.8036 20.617 20.878 20.5064 20.9288 20.3846C20.9795 20.2627 21.0057 20.132 21.0057 20C21.0057 19.868 20.9795 19.7373 20.9288 19.6154C20.878 19.4936 20.8036 19.383 20.7099 19.29Z" fill="#212B36"/>
</svg>
