<svg width="24" height="24" viewBox="0 0 24 24" fill="none" xmlns="http://www.w3.org/2000/svg">
<path d="M13.4999 12C13.4999 12.8284 12.8283 13.5 11.9999 13.5C11.1715 13.5 10.4999 12.8284 10.4999 12C10.4999 11.1716 11.1715 10.5 11.9999 10.5C12.8283 10.5 13.4999 11.1716 13.4999 12Z" fill="#212B36"/>
<path fill-rule="evenodd" clip-rule="evenodd" d="M11.7299 5.00001C17.7099 4.82001 21.2299 10.39 21.8699 11.5C22.0485 11.8094 22.0485 12.1906 21.8699 12.5C21.0099 14 17.7999 18.86 12.2699 19H12.0199C6.12989 19 2.75989 13.59 2.12989 12.5C1.95125 12.1906 1.95125 11.8094 2.12989 11.5C2.99989 10 6.19988 5.14001 11.7299 5.00001ZM8.49989 12C8.49989 13.933 10.0669 15.5 11.9999 15.5C13.9329 15.5 15.4999 13.933 15.4999 12C15.4999 10.067 13.9329 8.50001 11.9999 8.50001C10.0669 8.50001 8.49989 10.067 8.49989 12Z" fill="#212B36"/>
</svg>
