<svg width="24" height="25" viewBox="0 0 24 25" fill="none" xmlns="http://www.w3.org/2000/svg">
<path fill-rule="evenodd" clip-rule="evenodd" d="M21.4548 4.32802C21.2763 3.37028 20.7093 2.89853 20.1961 2.71328C19.6433 2.51229 18.5212 2.30454 17.1116 2.13729C15.9776 2.00379 14.6449 2.01429 13.8396 2.03904C13.7433 1.37455 13.2794 0.767803 12.7594 0.557803C11.3759 -0.0016921 9.2372 0.133308 8.68888 0.287808C8.25262 0.410053 7.76929 0.661303 7.50036 1.04755C7.32033 1.30555 7.20379 1.63704 7.20304 2.09904C7.20304 2.31569 7.20816 2.77488 7.21331 3.23714L7.21649 3.52403C7.22207 3.97995 7.22817 4.39605 7.23008 4.52617L7.23008 4.52628L7.23068 4.56802C7.23068 5.05626 6.83551 5.45451 6.3462 5.45526H4.10288C3.62404 5.45526 3.25799 5.53626 2.97935 5.66301C2.69922 5.79126 2.50126 5.963 2.35036 6.16625C2.0508 6.5705 1.99851 7.06849 2 7.57699C2 7.57699 2.00448 7.99324 2.10458 8.79723C2.1875 9.41972 2.85983 13.7689 3.49854 15.0912C3.7458 15.6057 3.9109 15.8202 4.39721 16.0467C5.48115 16.5132 7.95754 17.0314 9.11767 17.1799C9.30982 17.2045 9.4901 17.2337 9.65913 17.261C10.5093 17.3984 11.075 17.4899 11.4364 16.7292C11.4379 16.7269 11.5231 16.5019 11.6404 16.1727C12.0169 15.0282 12.0692 14.0127 12.0692 13.2784C12.0692 13.2034 12.1782 13.2004 12.1782 13.2784C12.1782 13.3072 12.1779 13.3401 12.1776 13.3766V13.3766C12.1719 13.9967 12.1564 15.6601 13.4609 16.1254C14.0062 16.3197 15.1372 16.4922 16.2861 16.6279C17.3253 16.7479 18.0798 17.1582 18.0798 19.8349C18.0798 21.4631 17.7391 21.6866 15.9582 21.6866L15.8258 21.6867C14.4804 21.6878 13.9636 21.6882 13.9636 20.5729C13.9636 19.7214 14.7314 19.7305 15.3821 19.7382H15.3823C15.4428 19.7389 15.5023 19.7396 15.56 19.7396C15.7515 19.7396 15.735 19.6498 15.6966 19.44C15.6739 19.3165 15.6437 19.1514 15.6437 18.9386C15.6437 18.6963 15.7077 18.4973 15.7557 18.348C15.8209 18.1451 15.8567 18.0336 15.6631 18.0289C13.313 17.9636 11.9302 18.0259 11.9302 20.9764C11.9302 23.6553 12.9514 24.1526 16.2861 24.1526C18.9015 24.1526 19.8233 24.0663 20.9028 20.7034C21.1164 20.0389 21.6334 18.0131 21.9456 14.6104C22.1436 12.4594 21.7596 5.96675 21.4548 4.32802ZM16.8965 11.5047C16.5737 11.4935 16.263 11.5137 15.9731 11.5602C16.0546 10.8995 16.3265 10.088 17.2894 10.1217C18.3554 10.1592 18.5048 11.1702 18.5085 11.8557C18.0588 11.654 17.5023 11.5265 16.8965 11.5047ZM3.99904 4.80126H3.99755C3.44624 4.80126 2.98608 4.89501 2.60659 5.06751C2.5894 5.07501 2.46615 5.13576 2.37575 5.18076C2.378 5.17176 2.38397 5.16201 2.39219 5.15526L6.75109 0.815053C6.76006 0.806803 6.76827 0.802303 6.77724 0.801553L6.70029 0.945548C6.53968 1.26805 6.4478 1.65204 6.4478 2.09304V2.09979C6.4478 2.61744 6.47279 4.42998 6.47459 4.56058L6.47469 4.56802C6.47469 4.69552 6.37085 4.80126 6.24237 4.80126H3.99904Z" fill="#20C05C"/>
</svg>
