<svg width="11" height="6" viewBox="0 0 11 6" fill="none" xmlns="http://www.w3.org/2000/svg">
    <path d="M5.50008 5.97915C5.38897 5.97915 5.28147 5.95831 5.17758 5.91665C5.07314 5.87498 4.98619 5.81942 4.91675 5.74998L1.08341 1.91665C0.930637 1.76387 0.854248 1.56942 0.854248 1.33331C0.854248 1.0972 0.930637 0.902757 1.08341 0.749979C1.23619 0.597202 1.43064 0.520813 1.66675 0.520813C1.90286 0.520813 2.0973 0.597202 2.25008 0.749979L5.50008 3.99998L8.75008 0.749979C8.90286 0.597202 9.0973 0.520813 9.33342 0.520813C9.56953 0.520813 9.76397 0.597202 9.91675 0.749979C10.0695 0.902757 10.1459 1.0972 10.1459 1.33331C10.1459 1.56942 10.0695 1.76387 9.91675 1.91665L6.08341 5.74998C6.00008 5.83331 5.9098 5.8922 5.81258 5.92665C5.71536 5.96165 5.61119 5.97915 5.50008 5.97915Z" fill="#191632"/>
    </svg>
    