<svg width="24" height="25" viewBox="0 0 24 25" fill="none" xmlns="http://www.w3.org/2000/svg">
<path fill-rule="evenodd" clip-rule="evenodd" d="M6.14461 0.152588H14.1767L20.9738 7.24748V21.0256C20.9738 22.7511 19.5811 24.1526 17.8556 24.1526H6.14461C4.42782 24.1526 3.02637 22.7511 3.02637 21.0256V3.27083C3.02634 1.55404 4.42782 0.152588 6.14461 0.152588V0.152588Z" fill="#1B806A"/>
<path opacity="0.4" fill-rule="evenodd" clip-rule="evenodd" d="M14.168 0.152588V7.18616H20.9738L14.168 0.152588Z" fill="white"/>
<path d="M10.4895 17.627H9.32452L8.52745 16.2869L7.73036 17.627H6.55664L7.94059 15.2971L6.72309 13.2737H7.89678L8.52742 14.3248L9.14931 13.2737H10.323L9.11425 15.3058L10.4895 17.627ZM10.9012 17.627V13.2737H12.0136V16.681H13.9055V17.627H10.9012V17.627ZM15.7449 17.6796C15.307 17.6796 14.9216 17.5394 14.5888 17.2679C14.2647 17.0051 14.0807 16.6723 14.0544 16.2781L15.0092 15.9978C15.0355 16.208 15.1231 16.392 15.272 16.5321C15.4296 16.6723 15.6048 16.7423 15.7975 16.7423C15.9552 16.7423 16.0866 16.7073 16.1917 16.6372C16.288 16.5672 16.3406 16.4708 16.3406 16.357C16.3406 16.2606 16.2968 16.1818 16.2179 16.1117C16.1391 16.0504 16.034 15.9978 15.9114 15.954C15.7887 15.9103 15.6398 15.8664 15.4909 15.8314C15.3333 15.7876 15.1756 15.7351 15.0267 15.665C14.869 15.6037 14.7289 15.5248 14.6063 15.4285C14.4749 15.3409 14.3785 15.2095 14.2997 15.0431C14.2208 14.8854 14.177 14.6927 14.177 14.4738C14.177 14.1146 14.3259 13.8168 14.6325 13.5803C14.9391 13.3351 15.307 13.2212 15.7362 13.2212C16.1654 13.2212 16.542 13.3263 16.8573 13.5278C17.1727 13.738 17.3741 14.0095 17.4529 14.3424L16.4544 14.7628C16.4106 14.5789 16.323 14.43 16.2004 14.3161C16.0777 14.211 15.9201 14.1497 15.7362 14.1497C15.596 14.1497 15.4909 14.1847 15.4033 14.2373C15.3245 14.2898 15.2894 14.3687 15.2894 14.465C15.2894 14.5526 15.342 14.6314 15.4471 14.6928C15.5522 14.7453 15.6924 14.7891 15.85 14.8154C16.0077 14.8417 16.1829 14.8855 16.3668 14.9468C16.5595 15.0169 16.7259 15.0869 16.8923 15.1833C17.05 15.2709 17.1814 15.4198 17.2865 15.6125C17.4004 15.8139 17.4529 16.0504 17.4529 16.322C17.4529 16.7249 17.2953 17.0577 16.9799 17.303C16.6646 17.5482 16.253 17.6796 15.7449 17.6796Z" fill="white"/>
</svg>
