<svg width="96" height="97" viewBox="0 0 96 97" fill="none" xmlns="http://www.w3.org/2000/svg">
<path d="M80.476 16.1529C78.4762 14.1529 31.9318 51.9856 28.2074 59.8046C28.2074 59.8046 28.052 89.0536 33.4176 89.898C36.3204 89.898 41.6446 74.4878 42.7662 71.1424C42.9096 70.7148 43.1058 70.3382 43.3792 69.9794C55.0758 54.6366 82.4528 18.1299 80.476 16.1529Z" fill="#007B55"/>
<path d="M11.1672 39.2515C8.65667 40.9675 8.56069 44.1945 10.8482 46.1983C13.9083 48.8786 19.2201 53.2157 28.207 59.818C28.2071 59.809 28.2071 59.8045 28.2071 59.8045C31.9315 51.9855 78.4759 14.1528 80.4757 16.1528C82.4525 18.1298 55.0755 54.6365 43.3789 69.9793C43.1055 70.3381 42.9093 70.7147 42.7659 71.1423C41.6843 74.3683 36.6946 88.8138 33.7369 89.8403C40.0619 88.6211 46.3589 83.5622 52.1943 76.5754C59.5974 81.4625 64.8374 84.6096 68.0228 86.4365C70.2514 87.7147 72.9852 87.2399 74.1568 84.9535C80.9214 71.7519 88.5442 32.6307 89.978 12.1353C90.2092 8.82972 87.531 6.18354 84.2714 6.77996C63.9762 10.4934 25.0572 29.7565 11.1672 39.2515Z" fill="#00AB55"/>
<path d="M33.4173 89.8979C33.4172 89.8977 33.4174 89.8981 33.4173 89.8979V89.8979Z" fill="#00AB55"/>
<g style="mix-blend-mode:overlay" filter="url(#filter0_i_2601_11740)">
<path d="M11.1672 39.2515C8.65667 40.9675 8.56069 44.1945 10.8482 46.1983C13.9083 48.8786 19.2201 53.2157 28.207 59.818C28.2071 59.809 28.2071 59.8045 28.2071 59.8045C31.9315 51.9855 78.4759 14.1528 80.4757 16.1528C82.4525 18.1298 55.0755 54.6365 43.3789 69.9793C43.1055 70.3381 42.9093 70.7147 42.7659 71.1423C41.6843 74.3683 36.6946 88.8138 33.7369 89.8403C40.0619 88.6211 46.3589 83.5622 52.1943 76.5754C59.5974 81.4625 64.8374 84.6096 68.0228 86.4365C70.2514 87.7147 72.9852 87.2399 74.1568 84.9535C80.9214 71.7519 88.5442 32.6307 89.978 12.1353C90.2092 8.82972 87.531 6.18354 84.2714 6.77996C63.9762 10.4934 25.0572 29.7565 11.1672 39.2515Z" fill="white" fill-opacity="0.04"/>
<path d="M33.4173 89.8979C33.4172 89.8977 33.4174 89.8981 33.4173 89.8979V89.8979Z" fill="white" fill-opacity="0.04"/>
</g>
<defs>
<filter id="filter0_i_2601_11740" x="7.20508" y="4.69556" width="82.7869" height="85.2024" filterUnits="userSpaceOnUse" color-interpolation-filters="sRGB">
<feFlood flood-opacity="0" result="BackgroundImageFix"/>
<feBlend mode="normal" in="SourceGraphic" in2="BackgroundImageFix" result="shape"/>
<feColorMatrix in="SourceAlpha" type="matrix" values="0 0 0 0 0 0 0 0 0 0 0 0 0 0 0 0 0 0 127 0" result="hardAlpha"/>
<feOffset dx="-2" dy="-2"/>
<feGaussianBlur stdDeviation="2"/>
<feComposite in2="hardAlpha" operator="arithmetic" k2="-1" k3="1"/>
<feColorMatrix type="matrix" values="0 0 0 0 0 0 0 0 0 0 0 0 0 0 0 0 0 0 0.4 0"/>
<feBlend mode="normal" in2="shape" result="effect1_innerShadow_2601_11740"/>
</filter>
</defs>
</svg>
