<svg width="24" height="24" viewBox="0 0 24 24" fill="none" xmlns="http://www.w3.org/2000/svg">
<path fill-rule="evenodd" clip-rule="evenodd" d="M16.66 4.6L19.4 7.34C20.166 8.06976 20.1973 9.28166 19.47 10.05L10.47 19.05C10.144 19.3732 9.71679 19.5745 9.26 19.62L5.09 20H5C4.73419 20.0015 4.47872 19.8972 4.29 19.71C4.07903 19.4998 3.97272 19.2065 4 18.91L4.43 14.74C4.4755 14.2832 4.67676 13.856 5 13.53L14 4.53C14.7758 3.87455 15.9197 3.90465 16.66 4.6ZM13.32 8L16 10.68L18 8.73L15.27 6L13.32 8Z" fill="#212B36"/>
</svg>
