<svg width="24" height="25" viewBox="0 0 24 25" fill="none" xmlns="http://www.w3.org/2000/svg">
<path d="M19.4297 4.654H14.1422L11.1852 2.28681C11.078 2.2004 10.9446 2.15306 10.8069 2.15259H2.20451C1.61984 2.15259 1.05912 2.38485 0.645693 2.79827C0.232269 3.2117 9.93363e-06 3.77242 9.93363e-06 4.35709V21.4765C-0.000852098 21.6277 0.054418 21.7738 0.155111 21.8865C0.255805 21.9992 0.394753 22.0705 0.545034 22.0866H0.610111C0.749992 22.0861 0.885502 22.0378 0.994225 21.9498C1.10295 21.8618 1.17837 21.7393 1.20801 21.6026L3.70129 9.80733C3.75115 9.58766 3.87575 9.39212 4.0538 9.25413C4.23185 9.11614 4.45229 9.04427 4.67745 9.0508H21.02C21.1818 9.0508 21.337 8.98652 21.4514 8.87211C21.5659 8.75769 21.6301 8.60251 21.6301 8.4407V6.8585C21.6301 6.27454 21.3984 5.71443 20.9859 5.30112C20.5734 4.88782 20.0137 4.65508 19.4297 4.654Z" fill="#FFAB00"/>
<path d="M23.5214 8.66438C23.315 8.40386 23.0522 8.19349 22.7528 8.04908C22.4534 7.90467 22.1252 7.82997 21.7928 7.83057H4.67742C4.17813 7.82939 3.69334 7.99837 3.30295 8.30964C2.91257 8.62091 2.63989 9.05591 2.52986 9.54292L0.032514 21.3382C0.0112684 21.4266 0.0100516 21.5187 0.0289526 21.6076C0.0478537 21.6965 0.0863946 21.7801 0.141757 21.8523C0.197119 21.9244 0.267902 21.9832 0.34893 22.0245C0.429959 22.0657 0.519182 22.0883 0.610077 22.0907H19.7591C20.2588 22.0909 20.7436 21.9211 21.134 21.6091C21.5243 21.2972 21.7968 20.8617 21.9067 20.3743L23.9404 10.5394C24.0175 10.2156 24.0198 9.87844 23.9472 9.55356C23.8746 9.22868 23.729 8.9246 23.5214 8.66438Z" fill="#FFD666"/>
</svg>
