<svg width="24" height="25" viewBox="0 0 24 25" fill="none" xmlns="http://www.w3.org/2000/svg">
<path d="M17.4333 8.70103C18.5539 7.96454 19.2951 6.69653 19.2951 5.2588C19.2951 2.98919 17.4483 1.14282 15.1787 1.14282H8.11635C5.84674 1.14282 3.99994 2.98919 3.99994 5.2588C3.99994 6.69653 4.74115 7.96454 5.86178 8.70103C4.74115 9.43708 3.99994 10.7051 3.99994 12.1428C3.99994 13.5806 4.74115 14.8486 5.86178 15.585C4.74115 16.3207 3.99994 17.5891 3.99994 19.0268C3.99994 21.2965 5.85662 23.1428 8.13826 23.1428C10.4448 23.1428 12.3217 21.2763 12.3217 18.9822V15.1863C13.053 15.8527 14.0245 16.2588 15.0893 16.2588H15.1787C17.4483 16.2588 19.2951 14.4124 19.2951 12.1428C19.2951 10.7051 18.5539 9.43708 17.4333 8.70103ZM12.3217 2.49118H15.1787C16.7049 2.49118 17.9467 3.73255 17.9467 5.2588C17.9467 6.78505 16.7049 8.02685 15.1787 8.02685H12.3217V2.49118ZM5.3483 5.2588C5.3483 3.73255 6.5901 2.49118 8.11635 2.49118H10.9733V8.02685H8.11635C6.5901 8.02685 5.3483 6.78505 5.3483 5.2588ZM5.3483 12.1428C5.3483 10.6166 6.5901 9.37521 8.11635 9.37521H10.9733V14.9109H8.09873C6.58064 14.9014 5.3483 13.6631 5.3483 12.1428ZM10.9733 18.9822C10.9733 20.5329 9.70146 21.7945 8.13826 21.7945C6.59998 21.7945 5.3483 20.5531 5.3483 19.0268C5.3483 17.5006 6.5901 16.2588 8.11635 16.2588H10.9733V18.9822ZM15.1787 14.9109H15.0893C13.5631 14.9109 12.3217 13.6691 12.3217 12.1428C12.3217 10.6166 13.5631 9.37521 15.0893 9.37521H15.1787C16.7049 9.37521 17.9467 10.6166 17.9467 12.1428C17.9467 13.6691 16.7049 14.9109 15.1787 14.9109Z" fill="#212B36"/>
</svg>
