<svg width="24" height="24" viewBox="0 0 24 24" fill="none" xmlns="http://www.w3.org/2000/svg">
<path d="M11.11 22.9999C10.9941 22.9998 10.879 22.9795 10.77 22.9399C10.3373 22.7815 10.0689 22.3479 10.12 21.8899L10.89 14.7999H5.00001C4.6298 14.8005 4.28958 14.5965 4.11568 14.2697C3.94179 13.9428 3.9627 13.5467 4.17001 13.2399L12.06 1.43994C12.3168 1.06 12.799 0.903374 13.23 1.05994C13.6435 1.21345 13.9076 1.61974 13.88 2.05994L13.11 9.19994H19C19.3702 9.19939 19.7105 9.4034 19.8843 9.73024C20.0582 10.0571 20.0373 10.4532 19.83 10.7599L11.94 22.5599C11.7537 22.8355 11.4426 23.0004 11.11 22.9999Z" fill="#212B36"/>
</svg>
