<svg width="24" height="25" viewBox="0 0 24 25" fill="none" xmlns="http://www.w3.org/2000/svg">
<path d="M11.9993 0.652588C5.373 0.652588 0 6.04613 0 12.7009C0 18.0229 3.438 22.5385 8.20725 24.1318C8.80725 24.2425 9.02625 23.8705 9.02625 23.5513C9.02625 23.2651 9.01575 22.5076 9.00975 21.5024C5.6715 22.2305 4.96725 19.8873 4.96725 19.8873C4.422 18.4958 3.63525 18.1253 3.63525 18.1253C2.5455 17.3776 3.71775 17.3927 3.71775 17.3927C4.9215 17.4778 5.55525 18.6343 5.55525 18.6343C6.62625 20.4754 8.364 19.9438 9.048 19.635C9.15675 18.8565 9.46725 18.3256 9.81 18.0244C7.14525 17.7202 4.344 16.6871 4.344 12.0707C4.344 10.7552 4.81125 9.67998 5.57925 8.83741C5.4555 8.53245 5.04375 7.30812 5.69625 5.64932C5.69625 5.64932 6.70425 5.32554 8.99625 6.88419C9.954 6.61689 10.98 6.48361 12.0007 6.47834C13.02 6.48361 14.0468 6.61689 15.0052 6.88419C17.2957 5.32554 18.3015 5.64932 18.3015 5.64932C18.9563 7.30812 18.5445 8.53245 18.4207 8.83741C19.1903 9.67998 19.6545 10.7552 19.6545 12.0707C19.6545 16.6984 16.8487 17.7172 14.1757 18.0154C14.6062 18.3874 14.9902 19.1223 14.9902 20.2465C14.9902 21.8571 14.9753 23.1559 14.9753 23.5513C14.9753 23.8735 15.1912 24.2485 15.8003 24.1303C20.565 22.534 24 18.0214 24 12.7009C24 6.04613 18.627 0.652588 11.9993 0.652588Z" fill="#3E75C3"/>
</svg>
