<svg width="24" height="24" viewBox="0 0 24 24" fill="none" xmlns="http://www.w3.org/2000/svg">
<path opacity="0.32" fill-rule="evenodd" clip-rule="evenodd" d="M17.7552 2.30079C17.3515 2.11371 17.1169 2.08917 17.0629 2.08595C15.7656 2.03476 14.1081 2 11.9987 2C7.72401 2 5.30521 2.14276 3.97938 2.27571C3.03982 2.36993 2.36858 3.04117 2.27436 3.98072C2.14141 5.30655 1.99866 7.72535 1.99866 12C1.99866 16.6448 2.1672 19.604 2.30858 21.2694C2.37392 22.039 3.24508 22.378 3.83851 21.8834L5.49866 20.5L6.86576 21.8671C7.22606 22.2274 7.79966 22.2592 8.19756 21.9408L9.99866 20.5L11.2916 21.7929C11.6821 22.1834 12.3153 22.1834 12.7058 21.7929L13.9987 20.5L15.7998 21.9408C16.1977 22.2592 16.7713 22.2274 17.1316 21.8671L18.4987 20.5L20.1588 21.8834C20.7522 22.378 21.6234 22.039 21.6888 21.2694C21.8301 19.604 21.9987 16.6448 21.9987 12C21.9987 9.87288 21.9633 8.20528 21.9114 6.90321C21.4739 6.95701 20.8557 7.00045 19.9996 7.00045C19.3701 7.00045 18.8693 6.97695 18.4743 6.94315C17.6142 6.8695 17.0555 6.21195 17.0224 5.3494C17.0088 4.99245 16.9996 4.54875 16.9996 4.00045C16.9996 3.11398 17.0235 2.50092 17.0518 2.08594C17.0518 2.08594 17.2921 2.08635 17.7552 2.30079ZM11.6585 15.2672C12.2028 15.2672 12.5959 15.1752 12.8378 14.9912C13.0897 14.8072 13.2157 14.5817 13.2157 14.3149C13.2157 14.0757 13.12 13.8825 12.9285 13.7352C12.737 13.588 12.4497 13.4592 12.0667 13.3488L11.2352 13.1004C10.8219 12.9807 10.449 12.8519 10.1164 12.7139C9.78376 12.5759 9.50156 12.4103 9.26971 12.217C9.03791 12.0238 8.85646 11.7938 8.72546 11.527C8.59441 11.2601 8.52891 10.9427 8.52891 10.5746C8.52891 9.94895 8.74056 9.4291 9.16391 9.01505C9.58721 8.601 10.192 8.32495 10.9782 8.18695V7.7944C10.9782 7.3862 11.2609 7.0214 11.6688 7.00345C11.7211 7.00115 11.7732 7 11.8248 7C12.1977 7 12.4648 7.0598 12.6261 7.1794C12.7975 7.29905 12.8831 7.51525 12.8831 7.8281V8.13175C13.5282 8.19615 14.0523 8.33875 14.4555 8.5596C14.8586 8.7712 15.0602 9.05185 15.0602 9.4015C15.0602 9.55725 15.019 9.70145 14.9478 9.8323C14.7581 10.1803 14.2848 10.1546 13.9093 10.0279C13.8019 9.99165 13.6867 9.9577 13.5635 9.92595C13.1805 9.81555 12.7622 9.76035 12.3086 9.76035C11.8047 9.76035 11.4267 9.83855 11.1747 9.995C10.9328 10.1422 10.8118 10.3354 10.8118 10.5746C10.8118 10.7679 10.8925 10.9243 11.0538 11.0439C11.2251 11.1635 11.4821 11.2739 11.8248 11.3751L12.6715 11.6098C13.5786 11.8674 14.2741 12.2078 14.7579 12.6311C15.2517 13.0543 15.4987 13.6248 15.4987 14.3425C15.4987 14.9774 15.2769 15.5157 14.8334 15.9573C14.39 16.3898 13.7399 16.6796 12.8831 16.8268V17.2056C12.8831 17.6138 12.6003 17.9786 12.1925 17.9965C12.1402 17.9988 12.0881 18 12.0365 18C11.6635 18 11.3914 17.9402 11.2201 17.8206C11.0588 17.7009 10.9782 17.4847 10.9782 17.1719V16.8958C10.2424 16.8222 9.64266 16.6612 9.17901 16.4128C8.72546 16.1551 8.49866 15.8331 8.49866 15.4466C8.49866 15.2209 8.58531 15.0249 8.72431 14.8601C8.97316 14.5651 9.41626 14.6382 9.75911 14.8155C9.90536 14.8911 10.0648 14.9634 10.2373 15.0326C10.6506 15.189 11.1243 15.2672 11.6585 15.2672Z" fill="#637381"/>
<path d="M21.9128 6.9031C21.4752 6.95695 20.8567 7.00045 20 7.00045C19.3705 7.00045 18.8696 6.97695 18.4746 6.94315C17.6146 6.8695 17.0559 6.21195 17.0228 5.3494C17.0092 4.99245 17 4.54875 17 4.00045C17 3.11398 17.0239 2.50092 17.0522 2.08594C17.0522 2.08594 18.0872 2.08772 20 4.00045C21.9128 5.9132 21.9128 6.9031 21.9128 6.9031Z" fill="#637381"/>
<path d="M11.6599 15.2672C12.2041 15.2672 12.5972 15.1752 12.8391 14.9912C13.091 14.8072 13.217 14.5817 13.217 14.3149C13.217 14.0757 13.1213 13.8825 12.9298 13.7352C12.7383 13.588 12.4511 13.4592 12.0681 13.3488L11.2365 13.1004C10.8232 12.9807 10.4503 12.8519 10.1177 12.7139C9.7851 12.5759 9.5029 12.4103 9.27105 12.217C9.03925 12.0238 8.8578 11.7938 8.7268 11.527C8.59575 11.2601 8.53025 10.9427 8.53025 10.5746C8.53025 9.94895 8.7419 9.4291 9.16525 9.01505C9.58855 8.601 10.1933 8.32495 10.9795 8.18695V7.7944C10.9795 7.3862 11.2623 7.0214 11.6701 7.00345C11.7225 7.00115 11.7745 7 11.8261 7C12.199 7 12.4662 7.0598 12.6274 7.1794C12.7988 7.29905 12.8844 7.51525 12.8844 7.8281V8.13175C13.5295 8.19615 14.0537 8.33875 14.4568 8.5596C14.86 8.7712 15.0616 9.05185 15.0616 9.4015C15.0616 9.55725 15.0203 9.70145 14.9491 9.8323C14.7594 10.1803 14.2861 10.1546 13.9106 10.0279C13.8032 9.99165 13.688 9.9577 13.5648 9.92595C13.1818 9.81555 12.7635 9.76035 12.3099 9.76035C11.806 9.76035 11.428 9.83855 11.1761 9.995C10.9341 10.1422 10.8132 10.3354 10.8132 10.5746C10.8132 10.7679 10.8938 10.9243 11.0551 11.0439C11.2264 11.1635 11.4834 11.2739 11.8261 11.3751L12.6728 11.6098C13.5799 11.8674 14.2754 12.2078 14.7592 12.6311C15.253 13.0543 15.5 13.6248 15.5 14.3425C15.5 14.9774 15.2783 15.5157 14.8348 15.9573C14.3913 16.3898 13.7412 16.6796 12.8844 16.8268V17.2056C12.8844 17.6138 12.6016 17.9786 12.1938 17.9965C12.1415 17.9988 12.0894 18 12.0378 18C11.6648 18 11.3928 17.9402 11.2214 17.8206C11.0601 17.7009 10.9795 17.4847 10.9795 17.1719V16.8958C10.2437 16.8222 9.644 16.6612 9.18035 16.4128C8.7268 16.1551 8.5 15.8331 8.5 15.4466C8.5 15.2209 8.58665 15.0249 8.72565 14.8601C8.9745 14.5651 9.4176 14.6382 9.76045 14.8155C9.9067 14.8911 10.0661 14.9634 10.2387 15.0326C10.6519 15.189 11.1257 15.2672 11.6599 15.2672Z" fill="#637381"/>
</svg>
