<svg width="24" height="25" viewBox="0 0 24 25" fill="none" xmlns="http://www.w3.org/2000/svg">
<g clip-path="url(#clip0_2601_11942)">
<path fill-rule="evenodd" clip-rule="evenodd" d="M6.14999 0.152588H14.177L20.9762 7.24602V21.027C20.9762 22.7522 19.5758 24.1526 17.8506 24.1526H6.14999C4.42483 24.1526 3.02441 22.7522 3.02441 21.027V3.27817C3.02441 1.55301 4.42483 0.152588 6.14999 0.152588V0.152588Z" fill="#00AB55"/>
<path opacity="0.4" fill-rule="evenodd" clip-rule="evenodd" d="M14.167 0.152588V7.18513H20.9763L14.167 0.152588Z" fill="white"/>
<path fill-rule="evenodd" clip-rule="evenodd" d="M15.0492 12.1475H8.95031C8.49367 12.1475 8.11816 12.5229 8.11816 12.9796V16.8561C8.11816 17.3128 8.49364 17.6883 8.95031 17.6883H15.0492C15.5059 17.6883 15.8712 17.3128 15.8712 16.8561V12.9796C15.8712 12.5229 15.5059 12.1475 15.0492 12.1475ZM10.6146 13.1927C11.1118 13.1927 11.5076 13.5986 11.5076 14.0857C11.5076 14.583 11.1118 14.9889 10.6146 14.9889C10.1173 14.9889 9.71141 14.583 9.71141 14.0857C9.71141 13.5986 10.1173 13.1927 10.6146 13.1927ZM15.3233 16.8561C15.3233 17.0084 15.2015 17.1403 15.0492 17.1403H8.95031C8.79809 17.1403 8.67631 17.0084 8.67631 16.8561V16.6938L9.78243 15.5877L10.6958 16.501C10.8074 16.6126 10.9799 16.6126 11.0915 16.501L13.385 14.2075L15.3233 16.1458V16.8561Z" fill="white"/>
</g>
<defs>
<clipPath id="clip0_2601_11942">
<rect width="24" height="24" fill="white" transform="translate(0 0.152588)"/>
</clipPath>
</defs>
</svg>
