<svg width="24" height="24" viewBox="0 0 24 24" fill="none" xmlns="http://www.w3.org/2000/svg">
<path fill-rule="evenodd" clip-rule="evenodd" d="M17.45 4.66001L20.79 11.34C20.9293 11.6195 21.0012 11.9277 21 12.24V18C21 19.6569 19.6568 21 18 21H5.99998C4.34313 21 2.99998 19.6569 2.99998 18V12.24C2.99876 11.9277 3.07068 11.6195 3.20998 11.34L6.54998 4.66001C7.05878 3.64085 8.10088 2.99777 9.23998 3.00001H14.76C15.8991 2.99777 16.9412 3.64085 17.45 4.66001ZM9.23998 5.00001C8.85983 4.99736 8.51105 5.2105 8.33999 5.55001L5.61998 11H7.99999C8.55227 11 8.99999 11.4477 8.99999 12V14C8.99999 14.5523 9.4477 15 9.99999 15H14C14.5523 15 15 14.5523 15 14V12C15 11.4477 15.4477 11 16 11H18.38L15.66 5.55001C15.4889 5.2105 15.1401 4.99736 14.76 5.00001H9.23998Z" fill="#212B36"/>
</svg>
