<svg width="24" height="25" viewBox="0 0 24 25" fill="none" xmlns="http://www.w3.org/2000/svg">
<path d="M7.53598 4.34729H10.4952V14.6524C10.4952 16.0973 10.0993 17.256 9.3075 18.1284C8.51569 19.0007 7.49572 19.4369 6.24761 19.4369C4.90555 19.4369 3.8621 19.0314 3.11726 18.2204C2.37242 17.4093 2 16.2813 2 14.8364H4.9693C4.9693 16.2404 5.3954 16.9424 6.24761 16.9424C7.10653 16.9424 7.53598 16.1314 7.53598 14.5093V4.34729Z" fill="#212B36"/>
<path d="M19.0106 15.3272C19.0106 14.7206 18.8562 14.2639 18.5476 13.9572C18.2456 13.6437 17.692 13.32 16.8868 12.986C15.4172 12.4203 14.3603 11.7592 13.7162 11.0027C13.072 10.2393 12.7499 9.33969 12.7499 8.30372C12.7499 7.04966 13.186 6.04436 14.0584 5.28784C14.9374 4.52449 16.0513 4.14282 17.4001 4.14282C18.2993 4.14282 19.1012 4.33707 19.8057 4.72555C20.5103 5.10722 21.0505 5.64906 21.4263 6.35106C21.8088 7.05307 22 7.85049 22 8.74333H19.0508C19.0508 8.04814 18.9032 7.51993 18.608 7.15871C18.3194 6.79067 17.9 6.60665 17.3498 6.60665C16.8331 6.60665 16.4305 6.76341 16.1419 7.07692C15.8534 7.38362 15.7091 7.79937 15.7091 8.32417C15.7091 8.7331 15.8702 9.10455 16.1922 9.43851C16.5143 9.76566 17.0847 10.1064 17.9034 10.4608C19.3327 10.9856 20.3694 11.6297 21.0136 12.3931C21.6645 13.1564 21.9899 14.1276 21.9899 15.3067C21.9899 16.6017 21.584 17.6138 20.772 18.343C19.9601 19.0723 18.8562 19.4369 17.4605 19.4369C16.5143 19.4369 15.6521 19.2393 14.8737 18.844C14.0953 18.4487 13.4847 17.883 13.0418 17.1469C12.6056 16.4108 12.3875 15.5418 12.3875 14.54H15.3568C15.3568 15.3987 15.5212 16.0223 15.85 16.4108C16.1788 16.7993 16.7157 16.9936 17.4605 16.9936C18.4939 16.9936 19.0106 16.4381 19.0106 15.3272Z" fill="#212B36"/>
</svg>
