<svg width="24" height="25" viewBox="0 0 24 25" fill="none" xmlns="http://www.w3.org/2000/svg">
<g clip-path="url(#clip0_2601_11961)">
<path fill-rule="evenodd" clip-rule="evenodd" d="M6.14461 0.152588H14.1767L20.9738 7.24748V21.0256C20.9738 22.7511 19.5811 24.1526 17.8556 24.1526H6.14461C4.42782 24.1526 3.02637 22.7511 3.02637 21.0256V3.27083C3.02634 1.55404 4.42782 0.152588 6.14461 0.152588V0.152588Z" fill="#FFD666"/>
<path opacity="0.4" fill-rule="evenodd" clip-rule="evenodd" d="M14.168 0.152588V7.18616H20.9738L14.168 0.152588Z" fill="white"/>
<path d="M8.77246 16.4532C8.8688 16.4707 8.96517 16.4795 9.06151 16.4795C9.46442 16.4795 9.66589 16.2868 9.66589 15.9101V12.6517H10.8396V15.9802C10.8396 16.497 10.7082 16.8912 10.4455 17.1627C10.1914 17.4255 9.83231 17.5656 9.37685 17.5656C9.1929 17.5656 8.99143 17.5481 8.77246 17.5043V16.4532ZM13.3272 17.5831C12.8367 17.5831 12.3987 17.4342 12.0309 17.1364C11.663 16.8298 11.4615 16.4619 11.4352 16.0152L12.5039 15.7086C12.5301 15.9451 12.6265 16.1466 12.7929 16.3043C12.9681 16.4619 13.1608 16.5407 13.3798 16.5407C13.5637 16.5407 13.7039 16.497 13.8177 16.4181C13.9316 16.3393 13.9841 16.2429 13.9841 16.1115C13.9841 16.0064 13.9404 15.9101 13.8528 15.84C13.7651 15.7612 13.6513 15.6999 13.5112 15.6561C13.371 15.6123 13.2133 15.5597 13.0382 15.5159C12.863 15.4721 12.6878 15.4108 12.5126 15.332C12.3462 15.2619 12.1885 15.1743 12.0484 15.0692C11.9082 14.9728 11.7944 14.8239 11.698 14.64C11.6104 14.456 11.5666 14.2458 11.5666 14.0006C11.5666 13.5977 11.7418 13.2648 12.0834 13.002C12.425 12.7305 12.8367 12.5991 13.3184 12.5991C13.7914 12.5991 14.2119 12.713 14.571 12.9495C14.9214 13.1772 15.1403 13.4838 15.2279 13.8604L14.1155 14.3247C14.063 14.1145 13.9754 13.948 13.8353 13.8254C13.6951 13.7028 13.5199 13.6414 13.3185 13.6414C13.1608 13.6414 13.0382 13.6765 12.9418 13.7378C12.8542 13.7991 12.8104 13.8867 12.8104 13.9918C12.8104 14.0969 12.8717 14.1758 12.9944 14.2458C13.1082 14.3071 13.2572 14.3597 13.4411 14.386C13.6163 14.4123 13.809 14.4648 14.0192 14.5349C14.2294 14.6049 14.4221 14.6925 14.606 14.7889C14.7812 14.894 14.9301 15.0604 15.0527 15.2794C15.1754 15.4984 15.2279 15.7612 15.2279 16.0765C15.2279 16.5232 15.0527 16.8911 14.7024 17.1714C14.352 17.443 13.8966 17.5831 13.3272 17.5831Z" fill="#B76E00"/>
</g>
<defs>
<clipPath id="clip0_2601_11961">
<rect width="24" height="24" fill="white" transform="translate(0 0.152588)"/>
</clipPath>
</defs>
</svg>
