<svg width="25" height="24" viewBox="0 0 25 24" fill="none" xmlns="http://www.w3.org/2000/svg">
    <path d="M3.78 2H21.22L22.192 4.914C22.373 5.457 22.583 6.246 22.355 7.068C22.1934 7.65206 21.9011 8.19169 21.5 8.646V20H22.5V22H2.5V20H3.5V8.646C2.85456 7.91581 2.49883 6.97456 2.5 6V5.838L3.78 2ZM5.5 9.874V20H8.5V13H16.5V20H19.5V9.874C18.7849 10.0581 18.0328 10.0408 17.3268 9.82407C16.6209 9.60735 15.9887 9.19964 15.5 8.646C15.125 9.07208 14.6635 9.41326 14.1461 9.64675C13.6288 9.88024 13.0676 10.0007 12.5 10C11.9324 10.0007 11.3712 9.88024 10.8539 9.64675C10.3365 9.41326 9.87498 9.07208 9.5 8.646C9.01232 9.20094 8.38013 9.60958 7.67389 9.8264C6.96764 10.0432 6.21506 10.0597 5.5 9.874ZM10.5 6C10.5 6.53043 10.7107 7.03914 11.0858 7.41421C11.4609 7.78929 11.9696 8 12.5 8C13.0304 8 13.5391 7.78929 13.9142 7.41421C14.2893 7.03914 14.5 6.53043 14.5 6V4H10.5V6ZM8.5 4H5.22L4.505 6.146C4.544 6.679 4.79 7.154 5.167 7.491C5.4548 7.7483 5.81092 7.91681 6.19237 7.97619C6.57382 8.03557 6.96431 7.98328 7.3167 7.82564C7.66909 7.668 7.96833 7.41174 8.1783 7.08779C8.38827 6.76384 8.5 6.38605 8.5 6V4ZM16.5 4V6C16.4992 6.48423 16.6742 6.9523 16.9923 7.31733C17.3105 7.68236 17.7503 7.91956 18.2301 7.98491C18.7099 8.05026 19.1971 7.93932 19.6013 7.67267C20.0055 7.40603 20.2992 7.0018 20.428 6.535C20.487 6.322 20.454 6.023 20.295 5.546L19.779 4H16.5ZM14.5 20V15H10.5V20H14.5Z" fill="white"/>
    </svg>
    