<svg width="20" height="20" viewBox="0 0 20 20" fill="none" xmlns="http://www.w3.org/2000/svg">
    <path d="M9.9999 13.6004C10.9547 13.6004 11.8704 13.2211 12.5455 12.546C13.2206 11.8708 13.5999 10.9552 13.5999 10.0004C13.5999 9.04561 13.2206 8.12994 12.5455 7.45481C11.8704 6.77968 10.9547 6.40039 9.9999 6.40039C9.04512 6.40039 8.12945 6.77968 7.45432 7.45481C6.77919 8.12994 6.3999 9.04561 6.3999 10.0004C6.3999 10.9552 6.77919 11.8708 7.45432 12.546C8.12945 13.2211 9.04512 13.6004 9.9999 13.6004ZM10.5999 1.00039C10.5999 0.841261 10.5367 0.688648 10.4242 0.576127C10.3116 0.463605 10.159 0.400391 9.9999 0.400391C9.84077 0.400391 9.68816 0.463605 9.57564 0.576127C9.46312 0.688648 9.3999 0.841261 9.3999 1.00039V2.82439C7.70332 2.96628 6.11188 3.70467 4.90803 4.90852C3.70418 6.11237 2.96579 7.70381 2.8239 9.40039H0.999902C0.840772 9.40039 0.68816 9.4636 0.575638 9.57613C0.463117 9.68865 0.399902 9.84126 0.399902 10.0004C0.399902 10.1595 0.463117 10.3121 0.575638 10.4247C0.68816 10.5372 0.840772 10.6004 0.999902 10.6004H2.8239C2.96579 12.297 3.70418 13.8884 4.90803 15.0923C6.11188 16.2961 7.70332 17.0345 9.3999 17.1764V19.0004C9.3999 19.1595 9.46312 19.3121 9.57564 19.4247C9.68816 19.5372 9.84077 19.6004 9.9999 19.6004C10.159 19.6004 10.3116 19.5372 10.4242 19.4247C10.5367 19.3121 10.5999 19.1595 10.5999 19.0004V17.1764C12.2964 17.0343 13.8877 16.2958 15.0915 15.092C16.2953 13.8882 17.0338 12.2969 17.1759 10.6004H18.9999C19.159 10.6004 19.3116 10.5372 19.4242 10.4247C19.5367 10.3121 19.5999 10.1595 19.5999 10.0004C19.5999 9.84126 19.5367 9.68865 19.4242 9.57613C19.3116 9.4636 19.159 9.40039 18.9999 9.40039H17.1759C17.034 7.70381 16.2956 6.11237 15.0918 4.90852C13.8879 3.70467 12.2965 2.96628 10.5999 2.82439V1.00039ZM9.9999 16.0004C8.4086 16.0004 6.88248 15.3682 5.75726 14.243C4.63204 13.1178 3.9999 11.5917 3.9999 10.0004C3.9999 8.40909 4.63204 6.88297 5.75726 5.75775C6.88248 4.63253 8.4086 4.00039 9.9999 4.00039C11.5912 4.00039 13.1173 4.63253 14.2425 5.75775C15.3678 6.88297 15.9999 8.40909 15.9999 10.0004C15.9999 11.5917 15.3678 13.1178 14.2425 14.243C13.1173 15.3682 11.5912 16.0004 9.9999 16.0004Z" fill="white"/>
    </svg>
    