<svg width="48" height="49" viewBox="0 0 48 49" fill="none" xmlns="http://www.w3.org/2000/svg">
<path opacity="0.48" d="M17.2977 43.9804L17.035 44.4132C17.035 44.4132 5.35049 45.0147 5.35049 37.2823C5.35049 29.3781 15.5845 25.9162 18.7533 24.8246C19.4454 24.5862 20.6796 24.2386 22.1857 23.7585C22.4106 24.2354 22.6295 24.7148 22.8434 25.1963C18.9083 26.6053 10.5054 30.12 10.5054 37.2823C10.5054 41.5694 14.0969 43.294 17.2977 43.9804ZM29.1017 43.3689L30.7235 36.0225C31.1379 33.949 32.157 32.0446 33.6522 30.5494L36.6942 27.5073C35.3949 27.3892 34.0548 27.8271 33.0601 28.8217L27.8099 34.0719C26.3147 35.5671 25.2957 37.4715 24.8812 39.545L23.9082 44.4132C23.9082 44.4132 28.9937 43.394 29.1017 43.3689Z" fill="#FFAB00"/>
<path d="M44.1515 24.1697C42.9669 22.9851 41.3918 22.3328 39.7167 22.3328C38.0414 22.3328 36.4664 22.9851 35.2818 24.1697L26.595 32.8565C24.8541 34.5975 23.679 36.7937 23.1964 39.2079L22.2233 44.0762C22.1107 44.6395 22.2871 45.2218 22.6933 45.6281C23.0187 45.9534 23.4571 46.1313 23.9084 46.1313C24.0204 46.1313 24.1331 46.1204 24.2452 46.0979L29.1135 45.1249C31.5276 44.6424 33.7238 43.4671 35.4648 41.7262L44.1515 33.0394C45.3361 31.8548 45.9886 30.2798 45.9886 28.6046C45.9886 26.9293 45.3361 25.3543 44.1515 24.1697ZM41.7214 30.6093L33.0346 39.2961C31.7752 40.5556 30.1864 41.4058 28.4399 41.7548L26.0984 42.2228L26.5664 39.8814C26.9155 38.1349 27.7656 36.5461 29.0251 35.2866L37.7119 26.5997C38.2474 26.0643 38.9594 25.7694 39.7167 25.7694C40.4739 25.7694 41.186 26.0643 41.7215 26.5998C42.2569 27.1353 42.5519 27.8473 42.5519 28.6046C42.5519 29.3618 42.257 30.0739 41.7214 30.6093Z" fill="#FFAB00"/>
<path d="M20.545 26.0528C20.0436 26.2106 19.535 26.3728 19.238 26.475C16.2283 27.5113 7.06942 30.6651 7.06942 37.2821C7.06942 38.5614 7.4831 39.5774 8.33418 40.3879C10.5699 42.5174 15.3125 42.7768 16.9496 42.6969C17.8983 42.6497 18.7031 43.3804 18.7505 44.3272C18.798 45.2741 18.0708 46.0804 17.1239 46.1292C17.0738 46.1317 16.8341 46.1428 16.452 46.1428C14.549 46.1428 9.11231 45.8669 5.97211 42.8841C4.41997 41.4098 3.63281 39.5249 3.63281 37.2821C3.63281 35.1138 4.28156 33.0722 5.56084 31.214C6.58237 29.7305 8.01844 28.3544 9.82953 27.124C12.9445 25.0075 16.5146 23.7782 18.1942 23.1999C18.5351 23.0824 18.9888 22.9398 19.5141 22.7746C21.8606 22.0367 25.7878 20.8016 29.1565 18.9258C32.8575 16.865 34.734 14.6764 34.734 12.4208C34.734 9.84658 33.5144 8.22081 32.4911 7.31028C31.3098 6.25876 29.6946 5.57943 28.3764 5.57943C27.4274 5.57943 26.6581 4.81015 26.6581 3.86113C26.6581 2.91211 27.4274 2.14282 28.3764 2.14282C30.554 2.14282 32.9463 3.11478 34.7758 4.74287C36.965 6.69109 38.1707 9.41778 38.1707 12.4207C38.1707 20.5099 25.8194 24.3942 20.545 26.0528Z" fill="#7A4100"/>
<path d="M11.4507 12.7963C7.83201 12.7963 5.62047 11.2597 4.40245 9.97064C2.87573 8.35475 2 6.12791 2 3.86113C2 2.91211 2.76928 2.14282 3.7183 2.14282C4.66732 2.14282 5.43661 2.91211 5.43661 3.86113C5.43661 6.50938 7.31858 9.3597 11.4507 9.3597C14.4195 9.3597 16.2937 7.88574 18.4639 6.17903C19.1366 5.65005 19.832 5.10312 20.5783 4.58917C21.3599 4.051 22.4298 4.24809 22.9681 5.02966C23.5064 5.81123 23.3092 6.88113 22.5276 7.41939C21.8708 7.87173 21.2478 8.36162 20.5883 8.88038C18.2544 10.7159 15.609 12.7963 11.4507 12.7963Z" fill="#7A4100"/>
</svg>
