<svg width="48" height="48" viewBox="0 0 48 48" fill="none" xmlns="http://www.w3.org/2000/svg">
    <rect width="48" height="48" rx="24" fill="#919EAB" fill-opacity="0.24"/>
    <path opacity="0.5" d="M21.9998 32H25.9998C29.771 32 31.6566 32 32.8282 30.8284C33.9998 29.6569 33.9998 27.7712 33.9998 24C33.9998 23.5581 33.9981 22.392 33.9962 22H14C13.9981 22.392 13.9998 23.5581 13.9998 24C13.9998 27.7712 13.9998 29.6569 15.1713 30.8284C16.3429 32 18.2285 32 21.9998 32Z" fill="#231F20"/>
    <path d="M21.9948 16H26.0052C29.7861 16 31.6766 16 32.8512 17.1158C33.6969 17.9192 33.9337 19.0751 34 21V22H14V21C14.0663 19.0751 14.3031 17.9192 15.1488 17.1158C16.3234 16 18.2139 16 21.9948 16Z" fill="#231F20"/>
    <path d="M24.5 27.25C24.0858 27.25 23.75 27.5858 23.75 28C23.75 28.4142 24.0858 28.75 24.5 28.75H26C26.4142 28.75 26.75 28.4142 26.75 28C26.75 27.5858 26.4142 27.25 26 27.25H24.5Z" fill="#231F20"/>
    <path d="M18 27.25C17.5858 27.25 17.25 27.5858 17.25 28C17.25 28.4142 17.5858 28.75 18 28.75H22C22.4142 28.75 22.75 28.4142 22.75 28C22.75 27.5858 22.4142 27.25 22 27.25H18Z" fill="#231F20"/>
    </svg>
    