<svg width="24" height="25" viewBox="0 0 24 25" fill="none" xmlns="http://www.w3.org/2000/svg">
<path d="M11.2796 1.14874C11.2323 1.15304 11.0817 1.16809 10.9462 1.17885C7.82151 1.46052 4.89462 3.1463 3.04086 5.73732C2.0086 7.17796 1.34839 8.81213 1.09892 10.5431C1.01075 11.1473 1 11.3257 1 12.145C1 12.9642 1.01075 13.1427 1.09892 13.7469C1.69677 17.8775 4.63656 21.3479 8.62366 22.6338C9.33763 22.8638 10.0903 23.0208 10.9462 23.1154C11.2796 23.152 12.7204 23.152 13.0538 23.1154C14.5312 22.952 15.7828 22.5865 17.0172 21.9564C17.2065 21.8597 17.243 21.8339 17.2172 21.8124C17.2 21.7995 16.3935 20.7179 15.4258 19.4106L13.6667 17.0346L11.4624 13.7727C10.2495 11.9794 9.25161 10.513 9.24301 10.513C9.23441 10.5108 9.22581 11.9601 9.22151 13.7297C9.21505 16.8282 9.2129 16.9529 9.17419 17.026C9.11828 17.1313 9.07527 17.1743 8.98495 17.2216C8.91613 17.2561 8.85591 17.2625 8.53118 17.2625H8.15914L8.06021 17.2001C7.9957 17.1593 7.94839 17.1055 7.91613 17.0432L7.87097 16.9464L7.87527 12.6352L7.88172 8.32188L7.94839 8.23802C7.9828 8.19287 8.05591 8.13481 8.10753 8.10686C8.1957 8.06386 8.23011 8.05956 8.60215 8.05956C9.04086 8.05956 9.11398 8.07676 9.22796 8.20147C9.26021 8.23587 10.4538 10.0335 11.8817 12.1987C13.3097 14.364 15.2624 17.3206 16.2215 18.772L17.9634 21.4103L18.0516 21.3522C18.8323 20.8448 19.6581 20.1223 20.3118 19.3697C21.7032 17.7721 22.6 15.824 22.9011 13.7469C22.9892 13.1427 23 12.9642 23 12.145C23 11.3257 22.9892 11.1473 22.9011 10.5431C22.3032 6.41249 19.3634 2.94203 15.3763 1.65619C14.6731 1.42827 13.9247 1.27131 13.086 1.1767C12.8796 1.15519 11.4581 1.13154 11.2796 1.14874ZM15.7828 7.80153C15.886 7.85313 15.9699 7.95204 16 8.05525C16.0172 8.11116 16.0215 9.30668 16.0172 12.0009L16.0108 15.867L15.329 14.822L14.6452 13.777V10.9667C14.6452 9.14972 14.6538 8.12836 14.6667 8.07891C14.7011 7.95849 14.7763 7.86388 14.8796 7.80798C14.9677 7.76282 15 7.75852 15.3376 7.75852C15.6559 7.75852 15.7118 7.76282 15.7828 7.80153Z" fill="#212B36"/>
</svg>
