<svg width="24" height="25" viewBox="0 0 24 25" fill="none" xmlns="http://www.w3.org/2000/svg">
<path d="M16.9688 8.19189C16.8726 8.19189 16.7764 8.19443 16.6802 8.19935C15.5573 7.28318 14.1652 6.78564 12.6914 6.7856C12.4578 6.7856 12.2273 6.79867 12.0002 6.82345C9.14361 7.13527 6.852 9.35566 6.43223 12.1789C5.77022 12.4926 5.1788 12.9533 4.71169 13.5277C4.00087 14.4018 3.60938 15.5034 3.60938 16.6294C3.60938 17.031 3.65808 17.4213 3.7492 17.7952C1.66284 17.6824 0 15.9497 0 13.8357C0 11.8736 1.43241 10.2398 3.30628 9.92487C3.62358 7.59396 5.62716 5.79195 8.04375 5.79195C8.35444 5.79195 8.66363 5.82213 8.96761 5.88195C9.78754 5.02649 10.8463 4.46015 12 4.25099C12.3286 4.19141 12.6648 4.16064 13.0055 4.16064C15.6187 4.16064 17.819 5.96093 18.4321 8.38629C17.9583 8.25832 17.4666 8.19189 16.9688 8.19189Z" fill="#0A49B2"/>
<path d="M7.77023 13.1967C7.76977 13.169 7.76953 13.1414 7.76953 13.1138C7.76953 10.6345 9.61228 8.57785 12 8.24072C12.226 8.2088 12.4567 8.19189 12.6914 8.19189C14.0249 8.19189 15.2824 8.72472 16.2056 9.66766C16.457 9.62144 16.7123 9.59814 16.9688 9.59814C19.0768 9.59814 20.8286 11.1522 21.1387 13.1748C22.7657 13.4823 24 14.9144 24 16.6294C24 18.5679 22.4229 20.145 20.4844 20.145L8.53125 20.145C6.59273 20.145 5.01562 18.5679 5.01562 16.6294C5.01562 14.9521 6.19631 13.5454 7.77023 13.1967Z" fill="#0A49B2"/>
</svg>
