<svg width="36" height="24" viewBox="0 0 36 24" fill="none" xmlns="http://www.w3.org/2000/svg">
<g id="icon/ic_payment_paypal">
<rect id="background" width="36" height="24" rx="4" fill="white"/>
<path id="Path" d="M14.34 21.3201L14.69 19.1201H13.91H10.23L12.79 2.86005C12.7968 2.80968 12.8217 2.76349 12.86 2.73005C12.9002 2.69899 12.9492 2.68148 13 2.68005H19.21C21.28 2.68005 22.7 3.11005 23.45 3.96005C23.7819 4.31658 24.0131 4.75486 24.12 5.23005C24.2366 5.80756 24.2366 6.40255 24.12 6.98005V7.48005L24.47 7.68005C24.7365 7.81286 24.9769 7.99236 25.18 8.21005C25.4857 8.57905 25.683 9.02561 25.75 9.50005C25.8249 10.1203 25.7979 10.7486 25.67 11.3601C25.5381 12.1028 25.2775 12.8169 24.9 13.4701C24.5949 13.9937 24.1826 14.4469 23.69 14.8001C23.1943 15.1381 22.6423 15.3853 22.06 15.5301C21.4063 15.695 20.7342 15.7756 20.06 15.7701H19.57C19.2266 15.7701 18.894 15.8904 18.63 16.1101C18.3646 16.3337 18.1903 16.6467 18.14 16.9901V17.1901L17.53 21.0701V21.2201C17.5373 21.2462 17.5373 21.2739 17.53 21.3001H17.47L14.34 21.3201Z" fill="#253D80"/>
<path id="Path_2" d="M24.8 7.07996L24.74 7.44996C23.92 11.65 21.11 13.11 17.53 13.11H15.71C15.2721 13.1094 14.8989 13.4275 14.83 13.86L13.9 19.78L13.63 21.46C13.6097 21.5945 13.6488 21.7312 13.737 21.8348C13.8252 21.9383 13.954 21.9986 14.09 22H17.33C17.7142 21.9996 18.0409 21.7196 18.1 21.34V21.18L18.71 17.31V17.1C18.7646 16.7219 19.088 16.441 19.47 16.44H20C23.13 16.44 25.59 15.17 26.3 11.44C26.6842 10.1651 26.4472 8.78383 25.66 7.70996C25.4102 7.45377 25.1196 7.24087 24.8 7.07996V7.07996Z" fill="#189BD7"/>
<path id="Path_3" d="M23.94 6.73997L23.56 6.63997L23.14 6.55997C22.6104 6.48078 22.0754 6.44399 21.54 6.44997H16.66C16.546 6.44684 16.4329 6.47083 16.33 6.51997C16.0981 6.62853 15.9365 6.84654 15.9 7.09997L14.9 13.67V13.86C14.9689 13.4275 15.3421 13.1094 15.78 13.11H17.6C21.18 13.11 23.99 11.65 24.81 7.44997L24.87 7.07997C24.6546 6.96866 24.4305 6.87502 24.2 6.79997L23.94 6.73997Z" fill="#242E65"/>
<path id="Path_4" d="M15.9 7.1C15.9365 6.84658 16.0981 6.62856 16.33 6.52C16.4329 6.47086 16.546 6.44687 16.66 6.45H21.54C22.0754 6.44403 22.6105 6.48081 23.14 6.56L23.56 6.64L23.94 6.74L24.13 6.8C24.3606 6.87505 24.5846 6.96869 24.8 7.08C25.1251 5.83063 24.8271 4.50118 24 3.51C23 2.45 21.36 2 19.22 2H13C12.5621 1.99947 12.1889 2.31756 12.12 2.75L9.53001 19.16C9.50683 19.3148 9.55191 19.472 9.65359 19.5909C9.75526 19.7098 9.90354 19.7788 10.06 19.78H13.9L14.9 13.67L15.9 7.1Z" fill="#253D80"/>
</g>
</svg>
