<svg width="24" height="25" viewBox="0 0 24 25" fill="none" xmlns="http://www.w3.org/2000/svg">
<g id="icons/notification/ic_package">
<g id="receive">
<path id="Path" fill-rule="evenodd" clip-rule="evenodd" d="M15.048 20.1725C13.9572 18.2926 14.2657 15.9143 15.8 14.375C17.3344 12.8356 19.7116 12.5193 21.5951 13.6039C23.4785 14.6885 24.3982 16.9034 23.8369 19.0031C23.2756 21.1028 21.3734 22.5634 19.2 22.5635C17.4871 22.5699 15.9022 21.6573 15.048 20.1725Z" fill="url(#paint0_linear_2601_11678)"/>
<path id="Path_2" fill-rule="evenodd" clip-rule="evenodd" d="M19.2 5.72999V12.9635C17.4833 12.9636 15.8974 13.8805 15.0406 15.3681C14.1838 16.8557 14.1867 18.6875 15.048 20.1725L9.60001 23.3175V11.2715L19.199 5.72949L19.2 5.72999Z" fill="#FFE16A"/>
<path id="Path_3" fill-rule="evenodd" clip-rule="evenodd" d="M9.59999 11.2716L6.25699 9.34156L15.8565 3.79956L19.199 5.72956L9.59999 11.2716Z" fill="#FFC107"/>
<path id="Path_4" fill-rule="evenodd" clip-rule="evenodd" d="M15.8565 3.79946L6.25699 9.34146L3.81049 7.92896L13.4095 2.38696L15.8565 3.79946Z" fill="url(#paint1_linear_2601_11678)"/>
<path id="Path_5" fill-rule="evenodd" clip-rule="evenodd" d="M9.60001 0.1875L13.4095 2.387L3.81051 7.929H3.81001L0.00100708 5.7295L9.60001 0.1875Z" fill="#FFE16A"/>
<path id="Path_6" fill-rule="evenodd" clip-rule="evenodd" d="M9.6 11.2715V23.3175L0 17.775V5.72999L0.001 5.72949L3.81 7.92899V15.9165L4.9725 15.4365L6.24 16.8765V9.35149L6.257 9.34149L9.6 11.2715Z" fill="#FFC107"/>
<path id="Path_7" fill-rule="evenodd" clip-rule="evenodd" d="M6.257 9.34146L6.24 9.35146V16.8765L4.9725 15.4365L3.81 15.9165V7.92896H3.8105L6.257 9.34146Z" fill="url(#paint2_linear_2601_11678)"/>
<path id="Path_8" fill-rule="evenodd" clip-rule="evenodd" d="M1.24151 17.871C1.04821 17.871 0.89151 17.7143 0.89151 17.521V16.225C0.89151 16.0317 1.04821 15.875 1.24151 15.875C1.43481 15.875 1.59151 16.0317 1.59151 16.225V17.521C1.59151 17.7143 1.43481 17.871 1.24151 17.871Z" fill="#FFE16A"/>
<path id="Path_9" fill-rule="evenodd" clip-rule="evenodd" d="M2.6625 18.7025C2.4692 18.7025 2.3125 18.5458 2.3125 18.3525V17.185C2.3125 16.9917 2.4692 16.835 2.6625 16.835C2.8558 16.835 3.0125 16.9917 3.0125 17.185V18.3525C3.0125 18.5458 2.8558 18.7025 2.6625 18.7025Z" fill="#FFE16A"/>
<path id="Path_10" fill-rule="evenodd" clip-rule="evenodd" d="M4.08401 19.5229C3.89071 19.5229 3.73401 19.3662 3.73401 19.1729V18.1449C3.73401 17.9516 3.89071 17.7949 4.08401 17.7949C4.27731 17.7949 4.43401 17.9516 4.43401 18.1449V19.1729C4.43401 19.3662 4.27731 19.5229 4.08401 19.5229Z" fill="#FFE16A"/>
<path id="Path_11" fill-rule="evenodd" clip-rule="evenodd" d="M5.505 20.3434C5.3117 20.3434 5.155 20.1867 5.155 19.9934V19.1049C5.155 18.9116 5.3117 18.7549 5.505 18.7549C5.6983 18.7549 5.855 18.9116 5.855 19.1049V19.9934C5.855 20.1867 5.6983 20.3434 5.505 20.3434Z" fill="#FFE16A"/>
<path id="Path_12" fill-rule="evenodd" clip-rule="evenodd" d="M6.92599 21.1831C6.73269 21.1831 6.57599 21.0264 6.57599 20.8331V20.0651C6.57599 19.8718 6.73269 19.7151 6.92599 19.7151C7.11929 19.7151 7.27599 19.8718 7.27599 20.0651V20.8331C7.27599 21.0264 7.11929 21.1831 6.92599 21.1831Z" fill="#FFE16A"/>
<path id="Path_13" fill-rule="evenodd" clip-rule="evenodd" d="M11.5888 18.1994C11.4303 18.1997 11.2914 18.0933 11.2503 17.9402C11.2092 17.7871 11.2762 17.6254 11.4135 17.5462L13.008 16.6257C13.1163 16.5632 13.2497 16.5632 13.358 16.6258C13.4663 16.6883 13.533 16.8038 13.533 16.9289C13.533 17.0539 13.4663 17.1695 13.358 17.232L11.7635 18.1524C11.7104 18.1832 11.6502 18.1994 11.5888 18.1994Z" fill="#B78103"/>
<path id="Path_14" d="M18.11 19.4726C18.0075 19.4727 17.9101 19.4278 17.8436 19.3498L16.6836 17.9908C16.6013 17.8959 16.5763 17.7641 16.618 17.6456C16.6597 17.527 16.7617 17.4399 16.8853 17.4174C17.0089 17.3948 17.1351 17.4402 17.216 17.5364L18.154 18.6353L21.229 16.1336C21.3259 16.0538 21.4582 16.0319 21.5756 16.0764C21.693 16.1209 21.7776 16.2248 21.7973 16.3488C21.8169 16.4728 21.7687 16.5979 21.6708 16.6765L18.3308 19.3941C18.2685 19.4449 18.1905 19.4727 18.11 19.4726Z" fill="#005249"/>
<path id="Path_15" fill-rule="evenodd" clip-rule="evenodd" d="M12.5425 11.4843C12.4653 11.4025 12.3535 11.3628 12.242 11.3775C12.1305 11.3923 12.0329 11.4598 11.9797 11.5588L11.1347 13.1308C11.0764 13.2392 11.0793 13.3703 11.1424 13.476C11.2055 13.5818 11.3196 13.6465 11.4427 13.6466C11.5733 13.6469 11.6937 13.5763 11.7573 13.4623L11.95 13.1149V16.1236C11.95 16.3169 12.1067 16.4736 12.3 16.4736C12.4933 16.4736 12.65 16.3169 12.65 16.1236V12.6051L12.9345 12.9129C12.9976 12.9803 13.0851 13.0198 13.1774 13.0224C13.2698 13.0251 13.3594 12.9908 13.4263 12.9271C13.4936 12.8631 13.5328 12.775 13.5352 12.6822C13.5376 12.5893 13.503 12.4994 13.439 12.4321L12.5425 11.4843Z" fill="#B78103"/>
</g>
</g>
<defs>
<linearGradient id="paint0_linear_2601_11678" x1="9.59933" y1="17.7635" x2="19.1995" y2="27.364" gradientUnits="userSpaceOnUse">
<stop stop-color="#5BE584"/>
<stop offset="1" stop-color="#00AB55"/>
</linearGradient>
<linearGradient id="paint1_linear_2601_11678" x1="-2.21251" y1="5.86421" x2="3.81015" y2="16.2962" gradientUnits="userSpaceOnUse">
<stop stop-color="#FFE16A"/>
<stop offset="1" stop-color="#B78103"/>
</linearGradient>
<linearGradient id="paint2_linear_2601_11678" x1="2.5865" y1="12.4027" x2="7.13993" y2="13.648" gradientUnits="userSpaceOnUse">
<stop stop-color="#FFE16A"/>
<stop offset="1" stop-color="#B78103"/>
</linearGradient>
</defs>
</svg>
