<svg width="40" height="41" viewBox="0 0 40 41" fill="none" xmlns="http://www.w3.org/2000/svg">
<g clip-path="url(#clip0_2601_11988)">
<g filter="url(#filter0_b_2601_11988)">
<rect y="0.152588" width="40" height="40" fill="#141414" fill-opacity="0.9"/>
<rect y="0.152588" width="40" height="40" fill="url(#paint0_linear_2601_11988)" fill-opacity="0.16"/>
</g>
<path d="M16.2257 10.1526H19.6646C19.6736 10.2484 19.6724 10.3446 19.6712 10.4407C19.6715 12.5644 19.671 14.6881 19.6715 16.8119C20.1358 16.8049 20.6003 16.8103 21.0646 16.8087C21.3628 16.8123 21.6617 16.7991 21.9595 16.8191C22.0561 16.823 22.1523 16.8119 22.2486 16.8087C22.4347 16.8086 22.6209 16.8083 22.807 16.8103C22.9112 16.8073 23.0155 16.8068 23.1193 16.8167L23.0966 16.8179C23.0003 16.8172 22.904 16.8172 22.8076 16.8214C22.1417 16.8225 21.4756 16.8241 20.8096 16.8198C20.4292 16.8246 20.0488 16.8228 19.6683 16.8206C18.5366 16.8206 17.4049 16.8214 16.2732 16.8201C15.8793 16.8094 15.4862 16.735 15.1193 16.5899C14.5529 16.3684 14.0505 15.9876 13.6825 15.5036C13.3369 15.0513 13.1102 14.5089 13.0334 13.9447C12.9504 13.3449 13.0323 12.7223 13.2737 12.1665C13.548 11.5279 14.0288 10.9809 14.6252 10.6246C15.1073 10.334 15.664 10.1739 16.2257 10.1526Z" fill="#F24E1E"/>
<path d="M19.6641 10.1526H23.0882C23.6484 10.1686 24.2044 10.3246 24.687 10.61C25.1798 10.899 25.5959 11.3169 25.8831 11.8107C26.1103 12.1996 26.2567 12.6355 26.3103 13.0828C26.3321 13.2892 26.3555 13.4975 26.3279 13.7046C26.2945 14.2121 26.1443 14.7116 25.8887 15.1515C25.5948 15.6607 25.1638 16.0899 24.653 16.3814C24.1873 16.6486 23.6556 16.7998 23.1188 16.8167C23.015 16.8068 22.9106 16.8073 22.8065 16.8103C22.6204 16.8083 22.4342 16.8086 22.2481 16.8087C22.1518 16.8119 22.0556 16.823 21.959 16.8191C21.6612 16.7991 21.3623 16.8123 21.0641 16.8087C20.5997 16.8103 20.1353 16.8049 19.6709 16.8119C19.6705 14.6881 19.6709 12.5644 19.6706 10.4407C19.6719 10.3446 19.673 10.2484 19.6641 10.1526Z" fill="#FF7262"/>
<path d="M14.6917 17.2521C15.1714 16.9789 15.7203 16.8289 16.2723 16.8201C17.404 16.8213 18.5357 16.8205 19.6674 16.8205C19.6691 17.8775 19.6656 18.9345 19.6693 19.9914C19.6691 19.9967 19.6688 20.0073 19.6687 20.0126C19.6659 21.1702 19.6688 22.3281 19.6675 23.4859C18.5312 23.4863 17.3949 23.4863 16.2586 23.4857C15.8064 23.474 15.3562 23.3726 14.9451 23.1828C14.4221 22.9431 13.9639 22.5649 13.628 22.0979C13.2947 21.6364 13.0829 21.0881 13.0215 20.5222C12.9538 19.9166 13.0544 19.2927 13.3141 18.7412C13.6047 18.1182 14.0935 17.5905 14.6917 17.2521Z" fill="#A259FF"/>
<path d="M22.8072 16.8212C22.9036 16.8171 22.9999 16.8171 23.0962 16.8177C23.6668 16.8387 24.2332 16.9993 24.7216 17.2971C25.262 17.6227 25.7068 18.1046 25.9872 18.6697C26.2212 19.1329 26.3317 19.6515 26.341 20.1684C26.3269 20.5897 26.2532 21.0118 26.0919 21.4028C25.7831 22.1705 25.1768 22.8124 24.4285 23.1652C23.9215 23.4071 23.3522 23.5147 22.7919 23.479C22.2443 23.4457 21.7059 23.2735 21.241 22.9825C20.7386 22.67 20.3221 22.2215 20.0477 21.6974C19.7749 21.182 19.6487 20.5943 19.6691 20.0124C19.6693 20.0071 19.6696 19.9966 19.6698 19.9913C19.6808 19.8636 19.6906 19.7356 19.7123 19.6094C19.8072 19.0247 20.064 18.4679 20.4448 18.0145C20.8384 17.5433 21.364 17.1833 21.9469 16.9897C22.2247 16.895 22.5155 16.8459 22.8072 16.8212Z" fill="#1ABCFE"/>
<path d="M16.2585 23.4858C17.3948 23.4865 18.5312 23.4865 19.6675 23.486C19.6678 24.5991 19.6678 25.7122 19.6675 26.8254C19.6672 27.346 19.543 27.8663 19.3057 28.33C19.0267 28.8791 18.5921 29.3476 18.0659 29.6676C17.5758 29.9686 17.0065 30.1337 16.4324 30.1527H16.2396C15.9835 30.1423 15.728 30.1082 15.4801 30.0417C14.8848 29.8852 14.3363 29.5575 13.9139 29.1102C13.3664 28.5359 13.0356 27.7607 13.0044 26.9678C12.9777 26.3862 13.1062 25.798 13.3764 25.282C13.671 24.7146 14.1329 24.2359 14.6891 23.9204C15.1654 23.6478 15.7102 23.4999 16.2585 23.4858Z" fill="#0ACF83"/>
</g>
<defs>
<filter id="filter0_b_2601_11988" x="-10" y="-9.84741" width="60" height="60" filterUnits="userSpaceOnUse" color-interpolation-filters="sRGB">
<feFlood flood-opacity="0" result="BackgroundImageFix"/>
<feGaussianBlur in="BackgroundImageFix" stdDeviation="5"/>
<feComposite in2="SourceAlpha" operator="in" result="effect1_backgroundBlur_2601_11988"/>
<feBlend mode="normal" in="SourceGraphic" in2="effect1_backgroundBlur_2601_11988" result="shape"/>
</filter>
<linearGradient id="paint0_linear_2601_11988" x1="0" y1="0.152588" x2="0" y2="40.1526" gradientUnits="userSpaceOnUse">
<stop stop-color="white" stop-opacity="0.5"/>
<stop offset="1" stop-opacity="0.5"/>
</linearGradient>
<clipPath id="clip0_2601_11988">
<rect y="0.152588" width="40" height="40" rx="12" fill="white"/>
</clipPath>
</defs>
</svg>
