<svg width="24" height="25" viewBox="0 0 24 25" fill="none" xmlns="http://www.w3.org/2000/svg">
<g clip-path="url(#clip0_2601_11956)">
<path fill-rule="evenodd" clip-rule="evenodd" d="M6.14401 0.152588H14.1763L20.9761 7.24317V21.032C20.9761 22.7539 19.5774 24.1526 17.8509 24.1526H6.14404C4.42216 24.1526 3.02344 22.7539 3.02344 21.032V3.27319C3.02341 1.55131 4.42213 0.152588 6.14401 0.152588V0.152588Z" fill="#3366FF"/>
<path fill-rule="evenodd" clip-rule="evenodd" d="M9.7445 17.9067V16.1064C9.84145 16.1156 9.95222 16.1202 10.0769 16.1202C10.8339 16.1202 11.4433 15.9217 11.8403 15.5432C12.1681 15.2339 12.3481 14.7677 12.3481 14.2368C12.3481 13.7244 12.1358 13.2581 11.7572 12.9581C11.3879 12.6626 10.8478 12.5195 10.1 12.5195C9.45372 12.5195 8.90899 12.5565 8.47505 12.6303C8.44272 12.6396 8.41504 12.6673 8.41504 12.7042V17.9067C8.41504 17.9483 8.44736 17.9806 8.48891 17.9806H9.67066C9.71218 17.9806 9.7445 17.9482 9.7445 17.9067ZM14.49 15.497C14.0053 15.3262 13.9222 15.2477 13.9222 15.1277C13.9222 14.92 14.1622 14.8923 14.3007 14.8923C14.6054 14.8923 14.9193 15.0031 15.0947 15.1C15.1178 15.1092 15.1409 15.1138 15.1594 15.1046C15.1824 15.0954 15.1963 15.0769 15.2009 15.0538L15.4133 14.2321C15.4225 14.1998 15.4086 14.1629 15.3763 14.149C15.1547 14.0382 14.7485 13.9228 14.2638 13.9228C13.3036 13.9228 12.6343 14.4675 12.6343 15.2477C12.625 15.6262 12.8189 16.1479 13.7699 16.4664C14.2315 16.6234 14.2823 16.7018 14.2823 16.8357C14.2823 16.8957 14.2823 17.085 13.8483 17.085C13.5206 17.085 13.082 16.9373 12.8604 16.8034C12.842 16.7942 12.8189 16.7896 12.7958 16.7988C12.7727 16.8081 12.7589 16.8265 12.7543 16.8496L12.5419 17.7036C12.5327 17.7359 12.5465 17.7682 12.5788 17.7867C12.902 17.9575 13.3636 18.0591 13.8483 18.0591C14.9147 18.0591 15.5794 17.5559 15.5794 16.7481C15.5702 16.1387 15.2379 15.7555 14.49 15.497ZM9.7445 15.04V13.5997C9.81837 13.5859 9.95222 13.5674 10.1646 13.5674C10.7093 13.5674 11.0232 13.8259 11.0232 14.2691C11.0232 14.763 10.6677 15.0585 10.0676 15.0585C9.92453 15.0585 9.82298 15.0492 9.7445 15.04Z" fill="white"/>
<path opacity="0.4" fill-rule="evenodd" clip-rule="evenodd" d="M14.167 0.152588V7.1878H20.976L14.167 0.152588Z" fill="white"/>
</g>
<defs>
<clipPath id="clip0_2601_11956">
<rect width="24" height="24" fill="white" transform="translate(0 0.152588)"/>
</clipPath>
</defs>
</svg>
