<svg width="80" height="81" viewBox="0 0 80 81" fill="none" xmlns="http://www.w3.org/2000/svg">
<g id="icons/ic_plan_premium">
<mask id="mask0_2601_11888" style="mask-type:alpha" maskUnits="userSpaceOnUse" x="0" y="0" width="80" height="81">
<rect id="mask" y="0.152588" width="80" height="80" fill="white"/>
</mask>
<g mask="url(#mask0_2601_11888)">
<g id="icons/ic_plan_free">
<mask id="mask1_2601_11888" style="mask-type:alpha" maskUnits="userSpaceOnUse" x="0" y="9" width="80" height="81">
<rect id="mask_2" y="9.42383" width="80" height="79.7288" fill="white"/>
</mask>
<g mask="url(#mask1_2601_11888)">
<rect id="-path" x="62.5" y="46.7966" width="8.33334" height="7.47458" fill="#007B55"/>
<path id="-path_2" fill-rule="evenodd" clip-rule="evenodd" d="M10.1018 49.7754L35.13 37.3576C36.5547 36.6507 38.2296 36.6552 39.6506 37.3697L69.9062 52.584C70.737 53.0018 71.0714 54.013 70.653 54.8426C70.4933 55.1593 70.2374 55.4175 69.922 55.5803L44.5838 68.6572C43.1092 69.4182 41.3544 69.4074 39.8893 68.6283L10.0596 52.7662C9.23859 52.3296 8.92743 51.311 9.36461 50.4911C9.52964 50.1816 9.78739 49.9314 10.1018 49.7754Z" fill="#005249"/>
<path id="-path_3" fill-rule="evenodd" clip-rule="evenodd" d="M41.6667 63.5074V67.6865C41.6667 68.3108 41.1588 68.8169 40.5323 68.8169C40.3838 68.8169 40.2371 68.7879 40.1005 68.7318L40 68.6847L39.9998 61.1596C40.9987 61.5109 41.6667 62.4517 41.6667 63.5074ZM9.99999 45.2635L40 61.1596V68.6847L9.99982 52.7864L9.99916 52.7672L9.88511 52.7007C9.43973 52.414 9.16666 51.9198 9.16666 51.3854V43.4746L9.99999 45.2635Z" fill="#007B55"/>
<path id="-path_4" d="M10.1018 42.3008L35.13 29.8829C36.5547 29.1761 38.2296 29.1805 39.6506 29.8951L69.9062 45.1094C70.737 45.5272 71.0714 46.5384 70.653 47.368C70.4933 47.6847 70.2374 47.9429 69.922 48.1057L44.5838 61.1826C43.1092 61.9436 41.3544 61.9328 39.8893 61.1537L10.0596 45.2915C9.23859 44.855 8.92743 43.8364 9.36461 43.0165C9.52964 42.707 9.78739 42.4568 10.1018 42.3008Z" fill="#00AB55"/>
</g>
</g>
<g id="icons/ic_plan_free_2">
<mask id="mask2_2601_11888" style="mask-type:alpha" maskUnits="userSpaceOnUse" x="0" y="0" width="80" height="81">
<rect id="mask_3" y="0.288086" width="80" height="79.7288" fill="white"/>
</mask>
<g mask="url(#mask2_2601_11888)">
<rect id="-path_5" x="62.5" y="37.6609" width="8.33334" height="7.47458" fill="#007B55"/>
<path id="-path_6" fill-rule="evenodd" clip-rule="evenodd" d="M10.1018 40.6396L35.13 28.2218C36.5547 27.5149 38.2296 27.5194 39.6506 28.2339L69.9062 43.4483C70.737 43.866 71.0714 44.8772 70.653 45.7069C70.4933 46.0236 70.2374 46.2818 69.922 46.4446L44.5838 59.5214C43.1092 60.2825 41.3544 60.2717 39.8893 59.4926L10.0596 43.6304C9.23859 43.1938 8.92743 42.1753 9.36461 41.3554C9.52964 41.0459 9.78739 40.7956 10.1018 40.6396Z" fill="#005249"/>
<path id="-path_7" fill-rule="evenodd" clip-rule="evenodd" d="M41.6667 54.3717V58.5507C41.6667 59.1751 41.1588 59.6812 40.5323 59.6812C40.3838 59.6812 40.2371 59.6521 40.1005 59.596L40 59.549L39.9998 52.0238C40.9987 52.3751 41.6667 53.316 41.6667 54.3717ZM9.99999 36.1278L40 52.0238V59.549L9.99982 43.6506L9.99916 43.6314L9.88511 43.565C9.43973 43.2783 9.16666 42.7841 9.16666 42.2497V34.3389L9.99999 36.1278Z" fill="#007B55"/>
<path id="-path_8" d="M10.1018 33.165L35.13 20.7472C36.5547 20.0403 38.2296 20.0448 39.6506 20.7593L69.9062 35.9736C70.737 36.3914 71.0714 37.4026 70.653 38.2323C70.4933 38.549 70.2374 38.8072 69.922 38.97L44.5838 52.0468C43.1092 52.8079 41.3544 52.7971 39.8893 52.018L10.0596 36.1558C9.23859 35.7192 8.92743 34.7006 9.36461 33.8808C9.52964 33.5713 9.78739 33.321 10.1018 33.165Z" fill="#00AB55"/>
</g>
</g>
<g id="icons/ic_plan_free_3">
<mask id="mask3_2601_11888" style="mask-type:alpha" maskUnits="userSpaceOnUse" x="0" y="-9" width="80" height="80">
<rect id="mask_4" y="-8.84741" width="80" height="79.7288" fill="white"/>
</mask>
<g mask="url(#mask3_2601_11888)">
<rect id="-path_9" x="62.5" y="28.5254" width="8.33334" height="7.47458" fill="#007B55"/>
<path id="-path_10" fill-rule="evenodd" clip-rule="evenodd" d="M10.1018 31.5041L35.13 19.0863C36.5547 18.3794 38.2296 18.3839 39.6506 19.0984L69.9062 34.3128C70.737 34.7305 71.0714 35.7417 70.653 36.5714C70.4933 36.8881 70.2374 37.1463 69.922 37.3091L44.5838 50.3859C43.1092 51.147 41.3544 51.1362 39.8893 50.3571L10.0596 34.4949C9.23859 34.0583 8.92743 33.0398 9.36461 32.2199C9.52964 31.9104 9.78739 31.6601 10.1018 31.5041Z" fill="#005249"/>
<path id="-path_11" fill-rule="evenodd" clip-rule="evenodd" d="M41.6667 45.2362V49.4152C41.6667 50.0396 41.1588 50.5457 40.5323 50.5457C40.3838 50.5457 40.2371 50.5166 40.1005 50.4605L40 50.4135L39.9998 42.8883C40.9987 43.2396 41.6667 44.1805 41.6667 45.2362ZM9.99999 26.9923L40 42.8883V50.4135L9.99982 34.5151L9.99916 34.4959L9.88511 34.4295C9.43973 34.1428 9.16666 33.6486 9.16666 33.1142V25.2034L9.99999 26.9923Z" fill="#007B55"/>
<path id="-path_12" d="M10.1018 24.0295L35.13 11.6117C36.5547 10.9048 38.2296 10.9093 39.6506 11.6238L69.9062 26.8382C70.737 27.2559 71.0714 28.2671 70.653 29.0968C70.4933 29.4135 70.2374 29.6717 69.922 29.8345L44.5838 42.9113C43.1092 43.6724 41.3544 43.6616 39.8893 42.8825L10.0596 27.0203C9.23859 26.5837 8.92743 25.5651 9.36461 24.7453C9.52964 24.4358 9.78739 24.1855 10.1018 24.0295Z" fill="#00AB55"/>
</g>
</g>
</g>
</g>
</svg>
