<svg width="24" height="25" viewBox="0 0 24 25" fill="none" xmlns="http://www.w3.org/2000/svg">
<path fill-rule="evenodd" clip-rule="evenodd" d="M6.12455 0.152588H14.1485L20.9491 7.24105V21.0282C20.9491 22.7553 19.5518 24.1526 17.8307 24.1526H6.12455C4.39742 24.1526 3.00012 22.7553 3.00012 21.0282V3.27701C3.00009 1.54988 4.39739 0.152588 6.12455 0.152588V0.152588Z" fill="#B71D18"/>
<path opacity="0.4" fill-rule="evenodd" clip-rule="evenodd" d="M14.1425 0.152588V7.18707H20.9491L14.1425 0.152588Z" fill="white"/>
<path d="M6.47235 18.0596V13.6758H8.33742C8.7992 13.6758 9.16503 13.8017 9.44088 14.0596C9.71674 14.3115 9.85468 14.6533 9.85468 15.0791C9.85468 15.5049 9.71674 15.8467 9.44088 16.0986C9.16503 16.3564 8.7992 16.4824 8.33742 16.4824H7.59379V18.0596H6.47235ZM7.59379 15.5289H8.21149C8.37939 15.5289 8.51133 15.4929 8.6013 15.4089C8.69124 15.331 8.73925 15.223 8.73925 15.0791C8.73925 14.9352 8.69127 14.8272 8.6013 14.7493C8.51136 14.6653 8.37942 14.6293 8.21149 14.6293H7.59379V15.5289ZM10.3164 18.0596V13.6758H11.8696C12.1755 13.6758 12.4634 13.7177 12.7332 13.8077C13.0031 13.8977 13.249 14.0236 13.4648 14.1975C13.6807 14.3654 13.8547 14.5933 13.9806 14.8812C14.1005 15.1691 14.1665 15.4989 14.1665 15.8707C14.1665 16.2365 14.1005 16.5663 13.9806 16.8542C13.8547 17.142 13.6807 17.3699 13.4648 17.5378C13.2489 17.7117 13.0031 17.8377 12.7332 17.9277C12.4634 18.0176 12.1755 18.0596 11.8696 18.0596H10.3164ZM11.4139 17.1061H11.7377C11.9116 17.1061 12.0735 17.0881 12.2235 17.0461C12.3674 17.0041 12.5053 16.9382 12.6373 16.8482C12.7632 16.7583 12.8652 16.6323 12.9371 16.4644C13.0091 16.2965 13.0451 16.0986 13.0451 15.8707C13.0451 15.6368 13.0091 15.4389 12.9371 15.271C12.8652 15.1031 12.7632 14.9772 12.6373 14.8872C12.5053 14.7973 12.3674 14.7313 12.2235 14.6893C12.0735 14.6473 11.9116 14.6293 11.7377 14.6293H11.4139V17.1061ZM14.7302 18.0596V13.6758H17.8487V14.6293H15.8517V15.331H17.4469V16.2785H15.8517V18.0596H14.7302Z" fill="white"/>
</svg>
