<svg width="24" height="24" viewBox="0 0 24 24" fill="none" xmlns="http://www.w3.org/2000/svg">
<path fill-rule="evenodd" clip-rule="evenodd" d="M22 4H14L12.59 2.59C12.21 2.21 11.7 2 11.17 2H6C4.9 2 4.01 2.9 4.01 4L4 16C4 17.1 4.9 18 6 18H22C23.1 18 24 17.1 24 16V6C24 4.9 23.1 4 22 4ZM1 6C0.45 6 0 6.45 0 7V11H0.01L0 20C0 21.1 0.9 22 2 22H19C19.55 22 20 21.55 20 21C20 20.45 19.55 20 19 20H3C2.45 20 2 19.55 2 19V7C2 6.45 1.55 6 1 6ZM11.1098 9.52002L7.59982 14.2C7.34982 14.53 7.58982 15 7.99982 14.99H19.9898C20.3998 14.99 20.6398 14.51 20.3798 14.18L17.8898 10.98C17.6898 10.73 17.3098 10.72 17.1098 10.97L15.0098 13.5L11.9098 9.51002C11.6998 9.25002 11.3098 9.26002 11.1098 9.52002Z" fill="#212B36"/>
</svg>
