<svg width="64" height="65" viewBox="0 0 64 65" fill="none" xmlns="http://www.w3.org/2000/svg">
<g clip-path="url(#clip0_2601_11746)">
<path d="M58.9345 16.817C50.7574 10.5304 42.8261 15.6539 33.9795 13.8424C25.069 12.0178 21.5189 5.94238 11.37 8.74675C2.37975 11.2309 -3.07525 21.1906 1.867 29.529C3.27537 31.9051 5.67462 33.6978 6.65512 36.3564C8.23675 40.6453 5.82925 43.938 6.29887 48.1529C8.25037 65.6655 34.9956 58.8821 44.8368 53.4335C60.2705 44.8885 70.7115 25.8714 58.9345 16.817Z" fill="url(#paint0_linear_2601_11746)" fill-opacity="0.12"/>
<path opacity="0.24" d="M51.3966 10.4495C50.9324 10.4495 50.4683 10.2727 50.1149 9.91949C49.4083 9.21286 49.4083 8.06299 50.1149 7.35623C50.8216 6.64948 51.9716 6.64948 52.6782 7.35623C53.3848 8.06299 53.3848 9.21274 52.6782 9.91949C52.3249 10.2727 51.8608 10.4495 51.3966 10.4495ZM51.3967 8.07561C51.2526 8.07561 51.1086 8.13036 50.9989 8.24011C50.7797 8.45936 50.7797 8.81624 50.9989 9.03561C51.2182 9.25486 51.5751 9.25499 51.7944 9.03561C52.0137 8.81636 52.0137 8.45949 51.7944 8.24011C51.6847 8.13036 51.5407 8.07561 51.3967 8.07561Z" fill="#00AB55"/>
<path opacity="0.48" d="M54.54 16.5608C54.0759 16.5609 53.6118 16.3841 53.2584 16.0308C52.916 15.6884 52.7275 15.2333 52.7275 14.7491C52.7275 14.265 52.916 13.8099 53.2584 13.4675C53.9649 12.7609 55.1148 12.7608 55.8215 13.4675C56.1639 13.8099 56.3524 14.265 56.3524 14.7491C56.3524 15.2334 56.1639 15.6885 55.8214 16.0308C55.4684 16.384 55.0042 16.5608 54.54 16.5608ZM54.54 14.1869C54.396 14.1869 54.2519 14.2416 54.1423 14.3514C54.0359 14.4576 53.9775 14.5989 53.9775 14.7491C53.9775 14.8994 54.036 15.0406 54.1423 15.1469C54.3617 15.3663 54.7185 15.3663 54.9378 15.1469C55.0442 15.0406 55.1025 14.8994 55.1025 14.7491C55.1025 14.5989 55.044 14.4578 54.9378 14.3514C54.8282 14.2416 54.6842 14.1869 54.54 14.1869Z" fill="#00AB55"/>
<path opacity="0.24" d="M13.1719 29.7474C12.7078 29.7474 12.2436 29.5707 11.8903 29.2174C11.1837 28.5107 11.1837 27.3608 11.8903 26.6542C12.5969 25.9477 13.7469 25.9476 14.4536 26.6542C15.1602 27.3609 15.1602 28.5107 14.4536 29.2174C14.1003 29.5707 13.6361 29.7474 13.1719 29.7474ZM13.1719 27.3736C13.0279 27.3736 12.8838 27.4283 12.7742 27.5381C12.5548 27.7573 12.5548 28.1142 12.7742 28.3336C12.9934 28.5529 13.3504 28.5528 13.5697 28.3336C13.7891 28.1143 13.7891 27.7574 13.5697 27.5381C13.4601 27.4283 13.3161 27.3736 13.1719 27.3736Z" fill="#00AB55"/>
<path opacity="0.48" d="M12.3662 35.3651C12.2062 35.3651 12.0463 35.3041 11.9242 35.1821L11.1787 34.4366L10.4332 35.1821C10.1891 35.4261 9.79343 35.4261 9.5493 35.1821C9.30518 34.938 9.30518 34.5422 9.5493 34.2982L10.7368 33.1107C10.9809 32.8667 11.3766 32.8667 11.6207 33.1107L12.8082 34.2982C13.0523 34.5424 13.0523 34.9381 12.8082 35.1821C12.6861 35.304 12.5262 35.3651 12.3662 35.3651Z" fill="#00AB55"/>
<path opacity="0.48" d="M53.3525 53.4649C53.1925 53.4649 53.0326 53.404 52.9105 53.282L52.165 52.5365L51.4195 53.282C51.1754 53.526 50.7798 53.526 50.5356 53.282C50.2915 53.0378 50.2915 52.6421 50.5356 52.3981L51.7231 51.2106C51.9673 50.9666 52.3629 50.9666 52.607 51.2106L53.7945 52.3981C54.0386 52.6422 54.0386 53.038 53.7945 53.282C53.6724 53.4038 53.5125 53.4649 53.3525 53.4649Z" fill="#00AB55"/>
<path d="M44.5622 32.1318L46.142 31.4931C47.6449 30.8848 48.3831 29.1844 47.8012 27.671L44.1031 18.0574C43.5113 16.5243 41.7887 15.7612 40.2555 16.353C40.2338 16.3614 40.2122 16.3701 40.1907 16.3789L21.7135 24.0385C20.2348 24.6533 19.5079 26.3281 20.0686 27.8281L20.8125 29.8119L22.0612 33.2339H40.7968L44.5622 32.1318Z" fill="#61F3F3"/>
<path d="M24.8994 29.8134L23.7311 26.8928L28.404 24.5564L29.5723 27.477L24.8994 29.8134Z" fill="#006C9C"/>
<path d="M38.6956 26.974L43.9522 24.6365L44.4 25.6435L39.1434 27.981L38.6956 26.974Z" fill="#006C9C"/>
<path d="M35.1833 25.8084L42.7763 22.304L43.2379 23.3041L35.6449 26.8086L35.1833 25.8084Z" fill="#006C9C"/>
<path opacity="0.12" d="M46.1429 31.4931C46.192 31.4732 46.2333 31.4429 46.2807 31.4209C46.1331 29.9486 44.8949 28.8271 43.4153 28.8254H20.4409L20.8112 29.8135L22.0621 33.2338H40.7978L44.5631 32.1317L46.1429 31.4931Z" fill="black"/>
<path d="M18.893 29.9277H42.3126C43.9104 29.9277 45.2056 31.223 45.2056 32.8207V45.2193C45.2056 46.8171 43.9104 48.1124 42.3126 48.1124H18.893C17.2952 48.1124 16 46.8171 16 45.2193V32.8207C16 31.223 17.2952 29.9277 18.893 29.9277Z" fill="#FFAB00"/>
<path d="M36.9404 46.459C35.1144 46.459 33.6342 44.9788 33.6342 43.1527C33.6342 41.3267 35.1144 39.8464 36.9404 39.8464C38.7665 39.8464 40.2467 41.3267 40.2467 43.1527C40.2449 44.978 38.7657 46.4572 36.9404 46.459ZM36.9404 40.9485C35.7231 40.9485 34.7363 41.9354 34.7363 43.1527C34.7363 44.3701 35.7231 45.3569 36.9404 45.3569C38.1578 45.3569 39.1446 44.3701 39.1446 43.1527C39.1446 41.9354 38.1578 40.9485 36.9404 40.9485Z" fill="#B76E00"/>
<path d="M40.2463 46.459C38.4203 46.459 36.94 44.9788 36.94 43.1527C36.94 41.3267 38.4203 39.8464 40.2463 39.8464C42.0723 39.8464 43.5526 41.3267 43.5526 43.1527C43.5508 44.978 42.0716 46.4572 40.2463 46.459ZM40.2463 40.9485C39.029 40.9485 38.0421 41.9354 38.0421 43.1527C38.0421 44.3701 39.029 45.3569 40.2463 45.3569C41.4636 45.3569 42.4505 44.3701 42.4505 43.1527C42.4505 41.9354 41.4636 40.9485 40.2463 40.9485Z" fill="#B76E00"/>
<path d="M16 33.2339H45.2056V37.6423H16V33.2339Z" fill="#B76E00"/>
</g>
<defs>
<linearGradient id="paint0_linear_2601_11746" x1="43.8414" y1="68.5541" x2="70.1982" y2="13.0735" gradientUnits="userSpaceOnUse">
<stop stop-color="#00AB55"/>
<stop offset="1" stop-color="#00AB55" stop-opacity="0.01"/>
</linearGradient>
<clipPath id="clip0_2601_11746">
<rect width="64" height="64" fill="white" transform="translate(0 0.152588)"/>
</clipPath>
</defs>
</svg>
