<svg width="40" height="41" viewBox="0 0 40 41" fill="none" xmlns="http://www.w3.org/2000/svg">
<g clip-path="url(#clip0_2601_11996)">
<g filter="url(#filter0_b_2601_11996)">
<rect y="0.152588" width="40" height="40" fill="#FFCA28" fill-opacity="0.9"/>
<rect y="0.152588" width="40" height="40" fill="url(#paint0_linear_2601_11996)" fill-opacity="0.16"/>
</g>
<path d="M20.7056 20.3264H23.2209V29.0857C23.2209 30.3139 22.8844 31.2988 22.2114 32.0403C21.5383 32.7818 20.6714 33.1526 19.6105 33.1526C18.4697 33.1526 17.5828 32.8079 16.9497 32.1185C16.3166 31.4291 16 30.4703 16 29.2422H18.5239C18.5239 30.4356 18.8861 31.0323 19.6105 31.0323C20.3405 31.0323 20.7056 30.3429 20.7056 28.9641V20.3264Z" fill="white"/>
<path d="M30.459 29.6593C30.459 29.1437 30.3278 28.7555 30.0654 28.4948C29.8088 28.2283 29.3382 27.9532 28.6537 27.6693C27.4046 27.1885 26.5063 26.6265 25.9587 25.9835C25.4112 25.3346 25.1374 24.5699 25.1374 23.6894C25.1374 22.6234 25.5081 21.7689 26.2496 21.1258C26.9968 20.477 27.9436 20.1526 29.0901 20.1526C29.8544 20.1526 30.536 20.3177 31.1349 20.6479C31.7338 20.9723 32.1929 21.4329 32.5123 22.0296C32.8374 22.6263 33 23.3041 33 24.063H30.4932C30.4932 23.4721 30.3677 23.0231 30.1168 22.7161C29.8715 22.4033 29.515 22.2468 29.0473 22.2468C28.6081 22.2468 28.2659 22.3801 28.0206 22.6466C27.7754 22.9073 27.6527 23.2607 27.6527 23.7067C27.6527 24.0543 27.7896 24.3701 28.0634 24.6539C28.3372 24.932 28.822 25.2217 29.5179 25.5229C30.7328 25.969 31.614 26.5164 32.1616 27.1653C32.7148 27.8141 32.9914 28.6397 32.9914 29.6419C32.9914 30.7426 32.6464 31.6029 31.9562 32.2228C31.2661 32.8427 30.3278 33.1526 29.1414 33.1526C28.3372 33.1526 27.6043 32.9846 26.9426 32.6486C26.281 32.3126 25.762 31.8317 25.3855 31.2061C25.0148 30.5804 24.8294 29.8418 24.8294 28.9902H27.3533C27.3533 29.7201 27.493 30.2502 27.7725 30.5804C28.052 30.9106 28.5083 31.0757 29.1414 31.0757C30.0198 31.0757 30.459 30.6036 30.459 29.6593Z" fill="white"/>
</g>
<defs>
<filter id="filter0_b_2601_11996" x="-10" y="-9.84741" width="60" height="60" filterUnits="userSpaceOnUse" color-interpolation-filters="sRGB">
<feFlood flood-opacity="0" result="BackgroundImageFix"/>
<feGaussianBlur in="BackgroundImageFix" stdDeviation="5"/>
<feComposite in2="SourceAlpha" operator="in" result="effect1_backgroundBlur_2601_11996"/>
<feBlend mode="normal" in="SourceGraphic" in2="effect1_backgroundBlur_2601_11996" result="shape"/>
</filter>
<linearGradient id="paint0_linear_2601_11996" x1="0" y1="0.152588" x2="0" y2="40.1526" gradientUnits="userSpaceOnUse">
<stop stop-color="white"/>
<stop offset="1"/>
</linearGradient>
<clipPath id="clip0_2601_11996">
<rect y="0.152588" width="40" height="40" rx="12" fill="white"/>
</clipPath>
</defs>
</svg>
