<svg width="40" height="41" viewBox="0 0 40 41" fill="none" xmlns="http://www.w3.org/2000/svg">
<g clip-path="url(#clip0_2601_11977)">
<g filter="url(#filter0_b_2601_11977)">
<rect y="0.152588" width="40" height="40" fill="#FFAE00" fill-opacity="0.4"/>
<rect y="0.152588" width="40" height="40" fill="url(#paint0_linear_2601_11977)" fill-opacity="0.2"/>
</g>
<path fill-rule="evenodd" clip-rule="evenodd" d="M19.9176 29.3345L10.0002 17.6607L14.2964 11.7628L19.9176 11.1527L25.5388 11.7628L29.835 17.6607L19.9176 29.3345Z" fill="#FFAE00"/>
<path fill-rule="evenodd" clip-rule="evenodd" d="M19.9176 29.3345L10.0002 17.6607H29.835L19.9176 29.3345Z" fill="#EC6C00"/>
<path fill-rule="evenodd" clip-rule="evenodd" d="M19.9171 29.3345L14.0149 17.6607H25.8193L19.9171 29.3345Z" fill="#FFAE00"/>
<path fill-rule="evenodd" clip-rule="evenodd" d="M19.9171 11.1526L14.0149 17.6606L25.8193 17.6606L19.9171 11.1526Z" fill="#FFEFB4"/>
<path fill-rule="evenodd" clip-rule="evenodd" d="M14.2959 11.7627L12.0876 14.732L9.99972 17.6606L14.055 17.6606L14.2959 11.7627Z" fill="#FFAE00"/>
<path fill-rule="evenodd" clip-rule="evenodd" d="M25.5381 11.7627L27.7464 14.732L29.8343 17.6606L25.779 17.6606L25.5381 11.7627Z" fill="#FFAE00"/>
<path fill-rule="evenodd" clip-rule="evenodd" d="M14.2958 11.7627L14.0148 17.6606L19.917 11.1526L14.2958 11.7627Z" fill="#FED305"/>
<path fill-rule="evenodd" clip-rule="evenodd" d="M25.6212 11.7627L25.9022 17.6606L20 11.1526L25.6212 11.7627Z" fill="#FED305"/>
</g>
<defs>
<filter id="filter0_b_2601_11977" x="-10" y="-9.84741" width="60" height="60" filterUnits="userSpaceOnUse" color-interpolation-filters="sRGB">
<feFlood flood-opacity="0" result="BackgroundImageFix"/>
<feGaussianBlur in="BackgroundImageFix" stdDeviation="5"/>
<feComposite in2="SourceAlpha" operator="in" result="effect1_backgroundBlur_2601_11977"/>
<feBlend mode="normal" in="SourceGraphic" in2="effect1_backgroundBlur_2601_11977" result="shape"/>
</filter>
<linearGradient id="paint0_linear_2601_11977" x1="0" y1="0.152588" x2="0" y2="40.1526" gradientUnits="userSpaceOnUse">
<stop stop-color="white"/>
<stop offset="1"/>
</linearGradient>
<clipPath id="clip0_2601_11977">
<rect y="0.152588" width="40" height="40" rx="12" fill="white"/>
</clipPath>
</defs>
</svg>
