<svg width="80" height="81" viewBox="0 0 80 81" fill="none" xmlns="http://www.w3.org/2000/svg">
<g id="icons/ic_plan_free">
<mask id="mask0_2601_11876" style="mask-type:alpha" maskUnits="userSpaceOnUse" x="0" y="0" width="80" height="81">
<rect id="mask" y="0.152588" width="80" height="80" fill="white"/>
</mask>
<g mask="url(#mask0_2601_11876)">
<rect id="-path" x="62.5" y="37.6526" width="8.33333" height="7.5" fill="#007B55"/>
<path id="-path_2" fill-rule="evenodd" clip-rule="evenodd" d="M10.1018 40.6414L35.13 28.1814C36.5547 27.4721 38.2297 27.4766 39.6506 28.1935L69.9062 43.4596C70.737 43.8788 71.0714 44.8935 70.653 45.7259C70.4933 46.0437 70.2375 46.3028 69.922 46.4661L44.5839 59.5875C43.1093 60.3511 41.3544 60.3403 39.8893 59.5585L10.0596 43.6424C9.23862 43.2043 8.92746 42.1823 9.36464 41.3596C9.52967 41.0491 9.78742 40.798 10.1018 40.6414Z" fill="#005249"/>
<path id="-path_3" fill-rule="evenodd" clip-rule="evenodd" d="M41.6667 54.4203V58.6136C41.6667 59.24 41.1588 59.7479 40.5324 59.7479C40.3839 59.7479 40.2372 59.7187 40.1005 59.6624L40 59.6152L39.9998 52.0644C40.9987 52.4169 41.6667 53.361 41.6667 54.4203ZM10 36.1143L40 52.0644V59.6152L9.99985 43.6628L9.99919 43.6435L9.88514 43.5768C9.43976 43.2891 9.16669 42.7933 9.16669 42.2571V34.3193L10 36.1143Z" fill="#007B55"/>
<path id="-path_4" d="M10.1018 33.1414L35.13 20.6814C36.5547 19.9721 38.2297 19.9766 39.6506 20.6935L69.9062 35.9596C70.737 36.3788 71.0714 37.3935 70.653 38.2259C70.4933 38.5437 70.2375 38.8028 69.922 38.9661L44.5839 52.0875C43.1093 52.8511 41.3544 52.8403 39.8893 52.0585L10.0596 36.1424C9.23862 35.7043 8.92746 34.6823 9.36464 33.8596C9.52967 33.5491 9.78742 33.298 10.1018 33.1414Z" fill="#00AB55"/>
</g>
</g>
</svg>
