<svg width="96" height="97" viewBox="0 0 96 97" fill="none" xmlns="http://www.w3.org/2000/svg">
<path d="M36.3238 29.5431V37.303C36.3238 39.9557 34.1734 42.1061 31.5208 42.1061C28.8682 42.1061 26.7178 39.9557 26.7178 37.3031V29.5431C26.7178 17.8662 36.1226 8.34454 47.7552 8.15527L48.1085 8.15259C59.7856 8.15259 69.3069 17.5575 69.4962 29.1899L69.499 29.5431V37.3031C69.499 39.9557 67.3487 42.1061 64.6961 42.1061C62.0434 42.1061 59.8931 39.9557 59.8931 37.3031V29.5431C59.8931 23.1101 54.7117 17.8644 48.3031 17.7601L48.1085 17.7585C41.6103 17.7585 36.3238 23.0451 36.3238 29.5431Z" fill="#FFD666"/>
<g style="mix-blend-mode:overlay" filter="url(#filter0_i_2601_11723)">
<path d="M36.3238 29.5431V42.1061H26.7178V29.5431C26.7178 17.8662 36.1226 8.34454 47.7552 8.15527L48.1085 8.15259C59.7856 8.15259 69.3069 17.5575 69.4962 29.1899L69.499 29.5431V42.1061H59.8931V29.5431C59.8931 23.1101 54.7117 17.8644 48.3031 17.7601L48.1085 17.7585C41.6103 17.7585 36.3238 23.0451 36.3238 29.5431Z" fill="white" fill-opacity="0.04"/>
</g>
<path fill-rule="evenodd" clip-rule="evenodd" d="M79.2169 68.2801C79.2169 79.2581 70.3177 88.1573 59.3399 88.1573H36.8771C25.8992 88.1573 17 79.2581 17 68.2801V48.0295C17 43.4583 20.7056 39.7527 25.2769 39.7527H48.1075L48.1085 39.7533L70.94 39.7527C75.5113 39.7527 79.2169 43.4583 79.2169 48.0295V68.2801ZM44.5109 67.0147C44.5109 69.0018 46.1218 70.6127 48.1089 70.6127H49.5008C50.7192 70.6127 51.7069 69.625 51.7069 68.4066C51.7069 67.4977 52.2769 66.7015 53.0652 66.2491C53.8915 65.7747 54.6536 65.1816 55.3191 64.4818C57.2141 62.4811 58.1785 59.8668 58.0344 57.113C57.7658 51.9367 53.4962 47.8013 48.3104 47.696C48.289 47.6956 48.2677 47.6956 48.2463 47.6956L48.112 47.6971C48.1112 47.6971 48.1104 47.6969 48.1097 47.6965C48.109 47.6962 48.1083 47.696 48.1075 47.696C43.4654 47.6966 38.9555 51.275 38.26 56.2541C38.189 56.7985 38.6269 57.2567 39.1759 57.2567H45.3796C45.3847 57.2567 45.3889 57.2525 45.3889 57.2474C45.4151 57.06 45.4596 56.8793 45.5206 56.707L45.5412 56.6508C45.5512 56.6244 45.5616 56.5981 45.5724 56.5722L45.5999 56.5083C45.664 56.3642 45.74 56.227 45.8267 56.098C45.9407 55.9282 46.0732 55.7724 46.2213 55.6332C46.3192 55.5411 46.4239 55.4563 46.5346 55.3796L46.6047 55.3325L46.6652 55.2944L46.7087 55.2683L46.7571 55.2406C46.7824 55.2264 46.8079 55.2127 46.8338 55.1993C46.8792 55.1757 46.9253 55.1534 46.9722 55.1324L47.059 55.0952C47.1037 55.077 47.1491 55.0599 47.195 55.044L47.2544 55.0241C47.3302 54.9997 47.4076 54.9785 47.4862 54.9606C47.5258 54.9516 47.5658 54.9434 47.606 54.9361L47.6634 54.9263L47.7212 54.9177L47.7882 54.9092C47.8304 54.9044 47.8729 54.9006 47.9156 54.8977L47.9774 54.8942L48.0395 54.892L48.1076 54.8912C48.1082 54.8912 48.1087 54.8917 48.1087 54.8923C48.1087 54.893 48.1092 54.8935 48.1098 54.8935L48.1665 54.8918C49.572 54.9207 50.7762 56.0815 50.8481 57.4873C50.8865 58.2499 50.6226 58.9743 50.0997 59.5261L50.0514 59.5754L49.9918 59.6331C49.4961 60.0995 48.8633 60.3609 48.1845 60.379L48.1095 60.38L47.4332 60.3798C45.8192 60.3798 44.5109 61.6882 44.5109 63.3022V67.0147ZM48.1087 73.1274C48.1087 73.1276 48.1088 73.1276 48.1087 73.1274C46.151 73.1275 44.5635 74.7141 44.5635 76.6716C44.5635 78.6289 46.1503 80.2159 48.1078 80.216C48.1078 80.2158 48.1079 80.2159 48.1078 80.216L48.1089 80.2158L48.1724 80.2152C50.1001 80.1809 51.6521 78.6075 51.6521 76.6714C51.6521 74.7143 50.0657 73.1279 48.1087 73.1274Z" fill="#00AB55"/>
<g style="mix-blend-mode:overlay" filter="url(#filter1_i_2601_11723)">
<path fill-rule="evenodd" clip-rule="evenodd" d="M79.2169 68.2801C79.2169 79.2581 70.3177 88.1573 59.3399 88.1573H36.8771C25.8992 88.1573 17 79.2581 17 68.2801V48.0295C17 43.4583 20.7056 39.7527 25.2769 39.7527H48.1075L48.1085 39.7533L70.94 39.7527C75.5113 39.7527 79.2169 43.4583 79.2169 48.0295V68.2801ZM44.5109 67.0147C44.5109 69.0018 46.1218 70.6127 48.1089 70.6127H49.5008C50.7192 70.6127 51.7069 69.625 51.7069 68.4066C51.7069 67.4977 52.2769 66.7015 53.0652 66.2491C53.8915 65.7747 54.6536 65.1816 55.3191 64.4818C57.2141 62.4811 58.1785 59.8668 58.0344 57.113C57.7658 51.9367 53.4962 47.8013 48.3104 47.696C48.289 47.6956 48.2677 47.6956 48.2463 47.6956L48.112 47.6971C48.1112 47.6971 48.1104 47.6969 48.1097 47.6965C48.109 47.6962 48.1083 47.696 48.1075 47.696C43.4654 47.6966 38.9555 51.275 38.26 56.2541C38.189 56.7985 38.6269 57.2567 39.1759 57.2567H45.3796C45.3847 57.2567 45.3889 57.2525 45.3889 57.2474C45.4151 57.06 45.4596 56.8793 45.5206 56.707L45.5412 56.6508C45.5512 56.6244 45.5616 56.5981 45.5724 56.5722L45.5999 56.5083C45.664 56.3642 45.74 56.227 45.8267 56.098C45.9407 55.9282 46.0732 55.7724 46.2213 55.6332C46.3192 55.5411 46.4239 55.4563 46.5346 55.3796L46.6047 55.3325L46.6652 55.2944L46.7087 55.2683L46.7571 55.2406C46.7824 55.2264 46.8079 55.2127 46.8338 55.1993C46.8792 55.1757 46.9253 55.1534 46.9722 55.1324L47.059 55.0952C47.1037 55.077 47.1491 55.0599 47.195 55.044L47.2544 55.0241C47.3302 54.9997 47.4076 54.9785 47.4862 54.9606C47.5258 54.9516 47.5658 54.9434 47.606 54.9361L47.6634 54.9263L47.7212 54.9177L47.7882 54.9092C47.8304 54.9044 47.8729 54.9006 47.9156 54.8977L47.9774 54.8942L48.0395 54.892L48.1076 54.8912C48.1082 54.8912 48.1087 54.8917 48.1087 54.8923C48.1087 54.893 48.1092 54.8935 48.1098 54.8935L48.1665 54.8918C49.572 54.9207 50.7762 56.0815 50.8481 57.4873C50.8865 58.2499 50.6226 58.9743 50.0997 59.5261L50.0514 59.5754L49.9918 59.6331C49.4961 60.0995 48.8633 60.3609 48.1845 60.379L48.1095 60.38L47.4332 60.3798C45.8192 60.3798 44.5109 61.6882 44.5109 63.3022V67.0147ZM48.1087 73.1274C48.1087 73.1276 48.1088 73.1276 48.1087 73.1274C46.151 73.1275 44.5635 74.7141 44.5635 76.6716C44.5635 78.6289 46.1503 80.2159 48.1078 80.216C48.1078 80.2158 48.1079 80.2159 48.1078 80.216L48.1089 80.2158L48.1724 80.2152C50.1001 80.1809 51.6521 78.6075 51.6521 76.6714C51.6521 74.7143 50.0657 73.1279 48.1087 73.1274Z" fill="white" fill-opacity="0.04"/>
</g>
<path fill-rule="evenodd" clip-rule="evenodd" d="M48.1089 70.5983C46.1218 70.5983 44.5109 68.9874 44.5109 67.0003V63.2877C44.5109 61.6738 45.8192 60.3654 47.4332 60.3654H48.1087C48.1088 60.3654 48.1089 60.3655 48.1091 60.3655C48.1092 60.3656 48.1093 60.3656 48.1095 60.3656L48.1845 60.3646C48.8633 60.3465 49.4961 60.0851 49.9918 59.6187L50.0514 59.561L50.0997 59.5117C50.6226 58.9599 50.8865 58.2355 50.8481 57.4728C50.7762 56.0671 49.572 54.9063 48.1665 54.8774L48.1098 54.879C48.1092 54.8791 48.1087 54.8786 48.1087 54.8779C48.1087 54.8773 48.1082 54.8768 48.1076 54.8768L48.0395 54.8776L47.9774 54.8798L47.9156 54.8833C47.8729 54.8862 47.8304 54.89 47.7882 54.8948L47.7212 54.9033L47.6634 54.9119L47.606 54.9217C47.5658 54.929 47.5258 54.9372 47.4862 54.9462C47.4075 54.9641 47.3302 54.9853 47.2544 55.0097L47.195 55.0296C47.1491 55.0455 47.1037 55.0626 47.059 55.0808L46.9715 55.1183L46.9923 55.1091C46.9386 55.1327 46.8857 55.158 46.8338 55.1849C46.8079 55.1983 46.7824 55.212 46.7571 55.2262L46.7087 55.2539L46.6652 55.28L46.6047 55.3181L46.5346 55.3652C46.4239 55.4419 46.3192 55.5267 46.2213 55.6188C46.0732 55.758 45.9407 55.9138 45.8267 56.0836C45.74 56.2126 45.664 56.3498 45.5999 56.4939L45.5724 56.5578C45.5616 56.5837 45.5512 56.61 45.5412 56.6364L45.5206 56.6926C45.4596 56.8649 45.4151 57.0456 45.3889 57.233C45.3889 57.2381 45.3847 57.2423 45.3796 57.2423H39.1759C38.6269 57.2423 38.189 56.7841 38.26 56.2397C38.9555 51.2606 43.4654 47.6822 48.1075 47.6816C48.1083 47.6816 48.109 47.6818 48.1097 47.6821C48.1104 47.6825 48.1112 47.6827 48.112 47.6827L48.2463 47.6812C48.2677 47.6812 48.289 47.6812 48.3104 47.6816C53.4962 47.7869 57.7658 51.9223 58.0344 57.0986C58.1785 59.8524 57.2141 62.4667 55.3191 64.4674C54.6536 65.1672 53.8915 65.7603 53.0652 66.2347C52.2769 66.6871 51.7069 67.4833 51.7069 68.3922C51.7069 69.6106 50.7192 70.5983 49.5008 70.5983H48.1089ZM48.1087 73.113C48.1087 73.1129 48.1088 73.1128 48.1089 73.1128C50.066 73.1133 51.6521 74.6999 51.6521 76.657C51.6521 78.5931 50.1001 80.1665 48.1724 80.2008L48.1089 80.2014C48.1088 80.2014 48.1087 80.2013 48.1087 80.2012C48.1087 80.2011 48.1085 80.201 48.1084 80.2011L48.108 80.2015C48.108 80.2015 48.1079 80.2016 48.1078 80.2016C46.1503 80.2015 44.5635 78.6145 44.5635 76.6572C44.5635 74.6997 46.1501 73.1129 48.1078 73.1128C48.1079 73.1128 48.108 73.1128 48.108 73.1129L48.1083 73.1132C48.1084 73.1133 48.1087 73.1132 48.1087 73.113Z" fill="white"/>
<defs>
<filter id="filter0_i_2601_11723" x="24.7178" y="6.15259" width="44.7812" height="35.9534" filterUnits="userSpaceOnUse" color-interpolation-filters="sRGB">
<feFlood flood-opacity="0" result="BackgroundImageFix"/>
<feBlend mode="normal" in="SourceGraphic" in2="BackgroundImageFix" result="shape"/>
<feColorMatrix in="SourceAlpha" type="matrix" values="0 0 0 0 0 0 0 0 0 0 0 0 0 0 0 0 0 0 127 0" result="hardAlpha"/>
<feOffset dx="-2" dy="-2"/>
<feGaussianBlur stdDeviation="2"/>
<feComposite in2="hardAlpha" operator="arithmetic" k2="-1" k3="1"/>
<feColorMatrix type="matrix" values="0 0 0 0 0 0 0 0 0 0 0 0 0 0 0 0 0 0 0.4 0"/>
<feBlend mode="normal" in2="shape" result="effect1_innerShadow_2601_11723"/>
</filter>
<filter id="filter1_i_2601_11723" x="15" y="37.7527" width="64.2169" height="50.4045" filterUnits="userSpaceOnUse" color-interpolation-filters="sRGB">
<feFlood flood-opacity="0" result="BackgroundImageFix"/>
<feBlend mode="normal" in="SourceGraphic" in2="BackgroundImageFix" result="shape"/>
<feColorMatrix in="SourceAlpha" type="matrix" values="0 0 0 0 0 0 0 0 0 0 0 0 0 0 0 0 0 0 127 0" result="hardAlpha"/>
<feOffset dx="-2" dy="-2"/>
<feGaussianBlur stdDeviation="2"/>
<feComposite in2="hardAlpha" operator="arithmetic" k2="-1" k3="1"/>
<feColorMatrix type="matrix" values="0 0 0 0 0 0 0 0 0 0 0 0 0 0 0 0 0 0 0.4 0"/>
<feBlend mode="normal" in2="shape" result="effect1_innerShadow_2601_11723"/>
</filter>
</defs>
</svg>
