<svg width="40" height="41" viewBox="0 0 40 41" fill="none" xmlns="http://www.w3.org/2000/svg">
<g clip-path="url(#clip0_2601_11999)">
<g filter="url(#filter0_b_2601_11999)">
<rect y="0.152588" width="40" height="40" fill="#007ACC" fill-opacity="0.9"/>
<rect y="0.152588" width="40" height="40" fill="url(#paint0_linear_2601_11999)" fill-opacity="0.16"/>
</g>
<path d="M24.2705 22.4554H21.3197V32.9788H18.9016V22.4554H16V20.3264H24.2705V22.4554Z" fill="white"/>
<path d="M30.5656 29.6593C30.5656 29.1437 30.4399 28.7555 30.1885 28.4948C29.9426 28.2283 29.4918 27.9532 28.8361 27.6693C27.6393 27.1885 26.7787 26.6265 26.2541 25.9835C25.7295 25.3346 25.4672 24.5699 25.4672 23.6894C25.4672 22.6234 25.8224 21.7689 26.5328 21.1258C27.2486 20.477 28.1557 20.1526 29.2541 20.1526C29.9863 20.1526 30.6393 20.3177 31.2131 20.6479C31.7869 20.9723 32.2268 21.4329 32.5328 22.0296C32.8443 22.6263 33 23.3041 33 24.063H30.5984C30.5984 23.4721 30.4781 23.0231 30.2377 22.7161C30.0027 22.4033 29.6612 22.2468 29.2131 22.2468C28.7923 22.2468 28.4645 22.3801 28.2295 22.6466C27.9945 22.9073 27.877 23.2607 27.877 23.7067C27.877 24.0543 28.0082 24.3701 28.2705 24.6539C28.5328 24.932 28.9973 25.2217 29.6639 25.5229C30.8279 25.969 31.6721 26.5164 32.1967 27.1653C32.7268 27.8141 32.9918 28.6397 32.9918 29.6419C32.9918 30.7426 32.6612 31.6029 32 32.2228C31.3388 32.8427 30.4399 33.1526 29.3033 33.1526C28.5328 33.1526 27.8306 32.9846 27.1967 32.6486C26.5628 32.3126 26.0656 31.8317 25.7049 31.2061C25.3497 30.5804 25.1721 29.8418 25.1721 28.9902H27.5902C27.5902 29.7201 27.724 30.2502 27.9918 30.5804C28.2596 30.9106 28.6967 31.0757 29.3033 31.0757C30.1448 31.0757 30.5656 30.6036 30.5656 29.6593Z" fill="white"/>
</g>
<defs>
<filter id="filter0_b_2601_11999" x="-10" y="-9.84741" width="60" height="60" filterUnits="userSpaceOnUse" color-interpolation-filters="sRGB">
<feFlood flood-opacity="0" result="BackgroundImageFix"/>
<feGaussianBlur in="BackgroundImageFix" stdDeviation="5"/>
<feComposite in2="SourceAlpha" operator="in" result="effect1_backgroundBlur_2601_11999"/>
<feBlend mode="normal" in="SourceGraphic" in2="effect1_backgroundBlur_2601_11999" result="shape"/>
</filter>
<linearGradient id="paint0_linear_2601_11999" x1="20" y1="0.152588" x2="20" y2="40.1526" gradientUnits="userSpaceOnUse">
<stop stop-color="white"/>
<stop offset="1"/>
</linearGradient>
<clipPath id="clip0_2601_11999">
<rect y="0.152588" width="40" height="40" rx="12" fill="white"/>
</clipPath>
</defs>
</svg>
