<svg width="64" height="65" viewBox="0 0 64 65" fill="none" xmlns="http://www.w3.org/2000/svg">
<g clip-path="url(#clip0_2601_11764)">
<path d="M58.9345 16.817C50.7574 10.5304 42.8261 15.6539 33.9795 13.8424C25.069 12.0178 21.5189 5.94238 11.37 8.74675C2.37975 11.2309 -3.07525 21.1906 1.867 29.529C3.27537 31.9051 5.67462 33.6978 6.65512 36.3564C8.23675 40.6453 5.82925 43.938 6.29887 48.1529C8.25037 65.6655 34.9956 58.8821 44.8368 53.4335C60.2705 44.8885 70.7115 25.8714 58.9345 16.817Z" fill="url(#paint0_linear_2601_11764)" fill-opacity="0.12"/>
<path opacity="0.24" d="M51.3966 10.4495C50.9324 10.4495 50.4683 10.2727 50.1149 9.91949C49.4083 9.21286 49.4083 8.06299 50.1149 7.35623C50.8216 6.64948 51.9716 6.64948 52.6782 7.35623C53.3848 8.06299 53.3848 9.21274 52.6782 9.91949C52.3249 10.2727 51.8608 10.4495 51.3966 10.4495ZM51.3967 8.07561C51.2526 8.07561 51.1086 8.13036 50.9989 8.24011C50.7797 8.45936 50.7797 8.81624 50.9989 9.03561C51.2182 9.25486 51.5751 9.25499 51.7944 9.03561C52.0137 8.81636 52.0137 8.45949 51.7944 8.24011C51.6847 8.13036 51.5407 8.07561 51.3967 8.07561Z" fill="#00AB55"/>
<path opacity="0.48" d="M54.54 16.5608C54.0759 16.5609 53.6118 16.3841 53.2584 16.0308C52.916 15.6884 52.7275 15.2333 52.7275 14.7491C52.7275 14.265 52.916 13.8099 53.2584 13.4675C53.9649 12.7609 55.1148 12.7608 55.8215 13.4675C56.1639 13.8099 56.3524 14.265 56.3524 14.7491C56.3524 15.2334 56.1639 15.6885 55.8214 16.0308C55.4684 16.384 55.0042 16.5608 54.54 16.5608ZM54.54 14.1869C54.396 14.1869 54.2519 14.2416 54.1423 14.3514C54.0359 14.4576 53.9775 14.5989 53.9775 14.7491C53.9775 14.8994 54.036 15.0406 54.1423 15.1469C54.3617 15.3663 54.7185 15.3663 54.9378 15.1469C55.0442 15.0406 55.1025 14.8994 55.1025 14.7491C55.1025 14.5989 55.044 14.4578 54.9378 14.3514C54.8282 14.2416 54.6842 14.1869 54.54 14.1869Z" fill="#00AB55"/>
<path opacity="0.24" d="M13.1719 29.7474C12.7078 29.7474 12.2436 29.5707 11.8903 29.2174C11.1837 28.5107 11.1837 27.3608 11.8903 26.6542C12.5969 25.9477 13.7469 25.9476 14.4536 26.6542C15.1602 27.3609 15.1602 28.5107 14.4536 29.2174C14.1003 29.5707 13.6361 29.7474 13.1719 29.7474ZM13.1719 27.3736C13.0279 27.3736 12.8838 27.4283 12.7742 27.5381C12.5548 27.7573 12.5548 28.1142 12.7742 28.3336C12.9934 28.5529 13.3504 28.5528 13.5697 28.3336C13.7891 28.1143 13.7891 27.7574 13.5697 27.5381C13.4601 27.4283 13.3161 27.3736 13.1719 27.3736Z" fill="#00AB55"/>
<path opacity="0.48" d="M12.3662 35.3651C12.2062 35.3651 12.0463 35.3041 11.9242 35.1821L11.1787 34.4366L10.4332 35.1821C10.1891 35.4261 9.79343 35.4261 9.5493 35.1821C9.30518 34.938 9.30518 34.5422 9.5493 34.2982L10.7368 33.1107C10.9809 32.8667 11.3766 32.8667 11.6207 33.1107L12.8082 34.2982C13.0523 34.5424 13.0523 34.9381 12.8082 35.1821C12.6861 35.304 12.5262 35.3651 12.3662 35.3651Z" fill="#00AB55"/>
<path opacity="0.48" d="M53.3525 53.4649C53.1925 53.4649 53.0326 53.404 52.9105 53.282L52.165 52.5365L51.4195 53.282C51.1754 53.526 50.7798 53.526 50.5356 53.282C50.2915 53.0378 50.2915 52.6421 50.5356 52.3981L51.7231 51.2106C51.9673 50.9666 52.3629 50.9666 52.607 51.2106L53.7945 52.3981C54.0386 52.6422 54.0386 53.038 53.7945 53.282C53.6724 53.4038 53.5125 53.4649 53.3525 53.4649Z" fill="#00AB55"/>
<path d="M48 25.5157V38.7878C48 39.6282 47.5333 40.3823 46.7823 40.7578L32.6461 47.9209C32.3381 48.074 32.0013 48.1508 31.6652 48.1508H31.6514C31.3053 48.1483 30.9598 48.0659 30.6462 47.9021L30.6406 47.899L17.1814 40.7559C16.4529 40.3742 16 39.6269 16 38.8041V25.4994C16 25.1239 16.0937 24.7653 16.2649 24.4492C16.4699 24.0718 16.7847 23.7557 17.1815 23.5482L30.6461 16.402C31.2696 16.0765 32.0169 16.0696 32.6461 16.3832L32.6523 16.3857L46.7824 23.5457C47.1972 23.7532 47.5252 24.0762 47.7352 24.4654C47.9063 24.7809 48 25.1395 48 25.5157Z" fill="#FFD666"/>
<path d="M47.9995 25.5156V38.7878C47.9995 39.6281 47.5328 40.3822 46.7818 40.7577L32.6456 47.9208C32.3376 48.0739 32.0008 48.1508 31.6647 48.1508H31.6509V32.4131L47.7347 24.4653C47.9058 24.7808 47.9995 25.1395 47.9995 25.5156Z" fill="#FFAB00"/>
<path d="M47.7358 24.4654L40.5733 28.0047L38.8114 28.8757L31.6521 32.4132L16.2656 24.4491C16.4706 24.0717 16.7854 23.7556 17.1822 23.5482L22.9546 20.4842L24.9557 19.4221L30.6469 16.4019C30.9611 16.2376 31.3066 16.1545 31.6521 16.1526C31.9932 16.1507 32.3344 16.2276 32.6467 16.3832L32.653 16.3857L46.783 23.5457C47.1979 23.7531 47.5259 24.0761 47.7358 24.4654Z" fill="#FFF5CC"/>
<path d="M40.612 28.2715C40.612 28.2715 40.612 28.2715 40.612 28.2721V33.201C40.612 33.7183 40.1922 34.1382 39.6748 34.1382C39.1575 34.1382 38.7377 33.7183 38.7377 33.201V28.8369L31.6514 25.087L22.9539 20.4842L24.955 19.4221L31.6514 22.9659L40.1134 27.4437C40.1147 27.4443 40.1159 27.4449 40.1172 27.4456C40.1353 27.4556 40.1528 27.4668 40.1703 27.4774C40.1797 27.4831 40.1897 27.4887 40.199 27.4949L40.1997 27.4956C40.2728 27.5449 40.3371 27.6036 40.3915 27.6686C40.394 27.6717 40.3965 27.6742 40.3983 27.6767C40.4121 27.693 40.424 27.7105 40.4365 27.7274C40.4421 27.7355 40.4483 27.743 40.454 27.7517C40.4627 27.7642 40.4696 27.7774 40.4777 27.7905C40.4858 27.8042 40.4946 27.818 40.5021 27.8324C40.5065 27.8405 40.5102 27.8486 40.514 27.8567C40.524 27.8767 40.5333 27.8967 40.5421 27.9174C40.5433 27.9205 40.544 27.923 40.5452 27.9255C40.5558 27.9517 40.5646 27.978 40.5721 28.0049C40.5896 28.0605 40.6015 28.1186 40.6071 28.1786C40.6102 28.2096 40.612 28.2402 40.612 28.2715Z" fill="#FFD666"/>
<path d="M40.6109 28.2715C40.6109 28.2715 40.6109 28.2715 40.6109 28.2721V33.201C40.6109 33.7183 40.191 34.1381 39.6737 34.1381C39.1564 34.1381 38.7365 33.7183 38.7365 33.201V28.9112L40.5709 28.0046C40.5884 28.0603 40.6003 28.1183 40.6059 28.1783C40.609 28.2096 40.6109 28.2402 40.6109 28.2715Z" fill="#B76E00"/>
</g>
<defs>
<linearGradient id="paint0_linear_2601_11764" x1="43.8414" y1="68.5541" x2="70.1982" y2="13.0735" gradientUnits="userSpaceOnUse">
<stop stop-color="#00AB55"/>
<stop offset="1" stop-color="#00AB55" stop-opacity="0.01"/>
</linearGradient>
<clipPath id="clip0_2601_11764">
<rect width="64" height="64" fill="white" transform="translate(0 0.152588)"/>
</clipPath>
</defs>
</svg>
