<svg width="80" height="81" viewBox="0 0 80 81" fill="none" xmlns="http://www.w3.org/2000/svg">
<g id="icons/ic_plan_starter">
<mask id="mask0_2601_11884" style="mask-type:alpha" maskUnits="userSpaceOnUse" x="0" y="0" width="80" height="81">
<rect id="mask" y="0.152588" width="80" height="80" fill="white"/>
</mask>
<g mask="url(#mask0_2601_11884)">
<g id="icons/ic_plan_free">
<mask id="mask1_2601_11884" style="mask-type:alpha" maskUnits="userSpaceOnUse" x="0" y="4" width="80" height="81">
<rect id="mask_2" y="4.302" width="80" height="79.8505" fill="white"/>
</mask>
<g mask="url(#mask1_2601_11884)">
<rect id="-path" x="62.5" y="41.7319" width="8.33334" height="7.48598" fill="#007B55"/>
<path id="-path_2" fill-rule="evenodd" clip-rule="evenodd" d="M10.1018 44.7151L35.13 32.2783C36.5547 31.5703 38.2297 31.5748 39.6506 32.2904L69.9062 47.528C70.737 47.9464 71.0714 48.9591 70.653 49.79C70.4933 50.1072 70.2375 50.3658 69.922 50.5289L44.5839 63.6257C43.1093 64.3879 41.3544 64.3771 39.8893 63.5968L10.0596 47.7104C9.23862 47.2731 8.92746 46.253 9.36464 45.4319C9.52967 45.1219 9.78742 44.8713 10.1018 44.7151Z" fill="#005249"/>
<path id="-path_3" fill-rule="evenodd" clip-rule="evenodd" d="M41.6667 58.4681V62.6536C41.6667 63.2789 41.1588 63.7858 40.5324 63.7858C40.3839 63.7858 40.2372 63.7567 40.1005 63.7005L40 63.6533L39.9998 56.1167C40.9987 56.4686 41.6667 57.4109 41.6667 58.4681ZM10 40.1964L40 56.1167V63.6533L9.99985 47.7308L9.99919 47.7115L9.88514 47.645C9.43976 47.3578 9.16669 46.8629 9.16669 46.3277V38.4048L10 40.1964Z" fill="#007B55"/>
<path id="-path_4" d="M10.1018 37.2292L35.13 24.7924C36.5547 24.0845 38.2297 24.089 39.6506 24.8046L69.9062 40.0421C70.737 40.4605 71.0714 41.4733 70.653 42.3042C70.4933 42.6214 70.2375 42.88 69.922 43.043L44.5839 56.1398C43.1093 56.902 41.3544 56.8912 39.8893 56.1109L10.0596 40.2246C9.23862 39.7873 8.92746 38.7672 9.36464 37.946C9.52967 37.6361 9.78742 37.3855 10.1018 37.2292Z" fill="#00AB55"/>
</g>
</g>
<g id="icons/ic_plan_free_2">
<mask id="mask2_2601_11884" style="mask-type:alpha" maskUnits="userSpaceOnUse" x="0" y="-5" width="80" height="81">
<rect id="mask_3" y="-4.84741" width="80" height="79.8505" fill="white"/>
</mask>
<g mask="url(#mask2_2601_11884)">
<rect id="-path_5" x="62.5" y="32.5825" width="8.33334" height="7.48598" fill="#007B55"/>
<path id="-path_6" fill-rule="evenodd" clip-rule="evenodd" d="M10.1018 35.5656L35.13 23.1289C36.5547 22.4209 38.2297 22.4254 39.6506 23.141L69.9062 38.3785C70.737 38.7969 71.0714 39.8097 70.653 40.6406C70.4933 40.9578 70.2375 41.2164 69.922 41.3795L44.5839 54.4762C43.1093 55.2384 41.3544 55.2276 39.8893 54.4474L10.0596 38.561C9.23862 38.1237 8.92746 37.1036 9.36464 36.2825C9.52967 35.9725 9.78742 35.7219 10.1018 35.5656Z" fill="#005249"/>
<path id="-path_7" fill-rule="evenodd" clip-rule="evenodd" d="M41.6667 49.3187V53.5042C41.6667 54.1295 41.1588 54.6364 40.5324 54.6364C40.3839 54.6364 40.2372 54.6073 40.1005 54.5511L40 54.5039L39.9998 46.9673C40.9987 47.3191 41.6667 48.2615 41.6667 49.3187ZM10 31.047L40 46.9673V54.5039L9.99985 38.5813L9.99919 38.5621L9.88514 38.4956C9.43976 38.2084 9.16669 37.7135 9.16669 37.1783V29.2554L10 31.047Z" fill="#007B55"/>
<path id="-path_8" d="M10.1018 28.0798L35.13 15.643C36.5547 14.9351 38.2297 14.9396 39.6506 15.6552L69.9062 30.8927C70.737 31.3111 71.0714 32.3239 70.653 33.1548C70.4933 33.472 70.2375 33.7306 69.922 33.8936L44.5839 46.9904C43.1093 47.7526 41.3544 47.7418 39.8893 46.9615L10.0596 31.0751C9.23862 30.6379 8.92746 29.6178 9.36464 28.7966C9.52967 28.4867 9.78742 28.236 10.1018 28.0798Z" fill="#00AB55"/>
</g>
</g>
</g>
</g>
</svg>
