<svg width="24" height="25" viewBox="0 0 24 25" fill="none" xmlns="http://www.w3.org/2000/svg">
<path fill-rule="evenodd" clip-rule="evenodd" d="M6.12082 0.152588H14.1479L20.9502 7.24266V21.0318C20.9502 22.7508 19.5484 24.1526 17.8294 24.1526H6.12082C4.39442 24.1526 3 22.7508 3 21.0318V3.27341C3 1.547 4.39442 0.152588 6.12082 0.152588V0.152588Z" fill="#FF5630"/>
<path opacity="0.302" fill-rule="evenodd" clip-rule="evenodd" d="M14.1396 0.152588V7.18365H20.9493L14.1396 0.152588Z" fill="white"/>
<path d="M11.6754 12.0531C9.87523 12.1417 8.44394 13.6393 8.46607 15.4617C8.49558 17.2766 9.97114 18.7596 11.7861 18.7817C13.6158 18.8112 15.1135 17.3799 15.1946 15.5797C15.202 15.4912 15.1282 15.4174 15.0397 15.4174H11.9927C11.9041 15.4174 11.8303 15.3436 11.8303 15.2625V12.208C11.8304 12.1195 11.764 12.0531 11.6754 12.0531ZM12.487 11.5588V14.6058C12.487 14.6944 12.5534 14.7607 12.6419 14.7607H15.6963C15.7848 14.7607 15.8512 14.687 15.8512 14.5984C15.7701 12.872 14.383 11.485 12.6493 11.4038C12.5607 11.3965 12.487 11.4703 12.487 11.5588Z" fill="white"/>
<path fill-rule="evenodd" clip-rule="evenodd" d="M6.14982 0.152588H14.1738L20.9744 7.24105V21.0282C20.9744 22.7553 19.5771 24.1526 17.8559 24.1526H6.14982C4.42269 24.1526 3.02539 22.7553 3.02539 21.0282V3.27701C3.02536 1.54988 4.42266 0.152588 6.14982 0.152588V0.152588Z" fill="#FF5630"/>
<path opacity="0.4" fill-rule="evenodd" clip-rule="evenodd" d="M14.168 0.152588V7.18707H20.9746L14.168 0.152588Z" fill="white"/>
<path d="M6.79785 17.322V12.9622H8.65092C9.10669 12.9622 9.47251 13.0881 9.74837 13.346C10.0182 13.5978 10.1562 13.9337 10.1562 14.3595C10.1562 14.7793 10.0182 15.1211 9.74837 15.3729C9.47251 15.6248 9.10669 15.7507 8.65092 15.7507H7.90728V17.322H6.79785ZM7.90731 14.8032H8.52501C8.69292 14.8032 8.81885 14.7673 8.91483 14.6893C9.00477 14.6113 9.04677 14.4974 9.04677 14.3595C9.04677 14.2155 9.0048 14.1076 8.91483 14.0296C8.81888 13.9517 8.69295 13.9097 8.52501 13.9097H7.90731V14.8032ZM10.6239 17.322V12.9622H12.477C12.9328 12.9622 13.2986 13.0881 13.5745 13.346C13.8503 13.5978 13.9823 13.9337 13.9823 14.3595C13.9823 14.7793 13.8503 15.1211 13.5745 15.3729C13.2986 15.6248 12.9328 15.7507 12.477 15.7507H11.7394V17.322H10.6239ZM11.7394 14.8032H12.3511C12.519 14.8032 12.6509 14.7673 12.7409 14.6893C12.8308 14.6113 12.8788 14.4974 12.8788 14.3595C12.8788 14.2155 12.8309 14.1076 12.7409 14.0296C12.6509 13.9517 12.519 13.9097 12.3511 13.9097H11.7394V14.8032ZM15.5835 17.322V13.9097H14.3421V12.9622H17.9463V13.9097H16.6989V17.322H15.5835Z" fill="white"/>
</svg>
