<svg width="24" height="24" viewBox="0 0 24 24" fill="none" xmlns="http://www.w3.org/2000/svg">
<path fill-rule="evenodd" clip-rule="evenodd" d="M1.99988 12C1.99988 6.47715 6.47703 2 11.9999 2C14.652 2 17.1956 3.05357 19.0709 4.92893C20.9463 6.8043 21.9999 9.34784 21.9999 12C21.9999 17.5228 17.5227 22 11.9999 22C6.47703 22 1.99988 17.5228 1.99988 12ZM15.0057 14C15.0057 13.7334 14.8992 13.4778 14.7099 13.29L13.4099 12L14.7099 10.71C15.102 10.3179 15.102 9.68212 14.7099 9.29C14.3178 8.89788 13.682 8.89788 13.2899 9.29L11.9999 10.59L10.7099 9.29C10.3178 8.89788 9.682 8.89788 9.28988 9.29C8.89776 9.68212 8.89776 10.3179 9.28988 10.71L10.5899 12L9.28988 13.29C9.10057 13.4778 8.99408 13.7334 8.99408 14C8.99408 14.2666 9.10057 14.5222 9.28988 14.71C9.47764 14.8993 9.73324 15.0058 9.99988 15.0058C10.2665 15.0058 10.5221 14.8993 10.7099 14.71L11.9999 13.41L13.2899 14.71C13.4776 14.8993 13.7332 15.0058 13.9999 15.0058C14.2665 15.0058 14.5221 14.8993 14.7099 14.71C14.8992 14.5222 15.0057 14.2666 15.0057 14Z" fill="#212B36"/>
</svg>
