<svg width="24" height="24" viewBox="0 0 24 24" fill="none" xmlns="http://www.w3.org/2000/svg">
<path fill-rule="evenodd" clip-rule="evenodd" d="M2 12C2 6.47715 6.47715 2 12 2C14.6522 2 17.1957 3.05357 19.0711 4.92893C20.9464 6.8043 22 9.34784 22 12C22 17.5228 17.5228 22 12 22C6.47715 22 2 17.5228 2 12ZM3.5 12C3.5 16.6944 7.30558 20.5 12 20.5C14.2543 20.5 16.4163 19.6045 18.0104 18.0104C19.6045 16.4163 20.5 14.2543 20.5 12C20.5 7.30558 16.6944 3.5 12 3.5C7.30558 3.5 3.5 7.30558 3.5 12Z" fill="#212B36"/>
<path d="M12 7C9.23858 7 7 9.23858 7 12C7 14.7614 9.23858 17 12 17C14.7614 17 17 14.7614 17 12C17 9.23858 14.7614 7 12 7Z" fill="#212B36"/>
</svg>
