<svg width="64" height="65" viewBox="0 0 64 65" fill="none" xmlns="http://www.w3.org/2000/svg">
<g clip-path="url(#clip0_2601_11796)">
<path d="M58.9345 16.817C50.7574 10.5304 42.8261 15.6539 33.9795 13.8424C25.069 12.0178 21.5189 5.94238 11.37 8.74675C2.37975 11.2309 -3.07525 21.1906 1.867 29.529C3.27537 31.9051 5.67462 33.6978 6.65512 36.3564C8.23675 40.6453 5.82925 43.938 6.29887 48.1529C8.25037 65.6655 34.9956 58.8821 44.8368 53.4335C60.2705 44.8885 70.7115 25.8714 58.9345 16.817Z" fill="url(#paint0_linear_2601_11796)" fill-opacity="0.12"/>
<path opacity="0.24" d="M51.3966 10.4495C50.9324 10.4495 50.4683 10.2727 50.1149 9.91949C49.4083 9.21286 49.4083 8.06299 50.1149 7.35623C50.8216 6.64948 51.9716 6.64948 52.6782 7.35623C53.3848 8.06299 53.3848 9.21274 52.6782 9.91949C52.3249 10.2727 51.8608 10.4495 51.3966 10.4495ZM51.3967 8.07561C51.2526 8.07561 51.1086 8.13036 50.9989 8.24011C50.7797 8.45936 50.7797 8.81624 50.9989 9.03561C51.2182 9.25486 51.5751 9.25499 51.7944 9.03561C52.0137 8.81636 52.0137 8.45949 51.7944 8.24011C51.6847 8.13036 51.5407 8.07561 51.3967 8.07561Z" fill="#00AB55"/>
<path opacity="0.48" d="M54.54 16.5608C54.0759 16.5609 53.6118 16.3841 53.2584 16.0308C52.916 15.6884 52.7275 15.2333 52.7275 14.7491C52.7275 14.265 52.916 13.8099 53.2584 13.4675C53.9649 12.7609 55.1148 12.7608 55.8215 13.4675C56.1639 13.8099 56.3524 14.265 56.3524 14.7491C56.3524 15.2334 56.1639 15.6885 55.8214 16.0308C55.4684 16.384 55.0042 16.5608 54.54 16.5608ZM54.54 14.1869C54.396 14.1869 54.2519 14.2416 54.1423 14.3514C54.0359 14.4576 53.9775 14.5989 53.9775 14.7491C53.9775 14.8994 54.036 15.0406 54.1423 15.1469C54.3617 15.3663 54.7185 15.3663 54.9378 15.1469C55.0442 15.0406 55.1025 14.8994 55.1025 14.7491C55.1025 14.5989 55.044 14.4578 54.9378 14.3514C54.8282 14.2416 54.6842 14.1869 54.54 14.1869Z" fill="#00AB55"/>
<path opacity="0.24" d="M13.1719 29.7474C12.7078 29.7474 12.2436 29.5707 11.8903 29.2174C11.1837 28.5107 11.1837 27.3608 11.8903 26.6542C12.5969 25.9477 13.7469 25.9476 14.4536 26.6542C15.1602 27.3609 15.1602 28.5107 14.4536 29.2174C14.1003 29.5707 13.6361 29.7474 13.1719 29.7474ZM13.1719 27.3736C13.0279 27.3736 12.8838 27.4283 12.7742 27.5381C12.5548 27.7573 12.5548 28.1142 12.7742 28.3336C12.9934 28.5529 13.3504 28.5528 13.5697 28.3336C13.7891 28.1143 13.7891 27.7574 13.5697 27.5381C13.4601 27.4283 13.3161 27.3736 13.1719 27.3736Z" fill="#00AB55"/>
<path opacity="0.48" d="M12.3662 35.3651C12.2062 35.3651 12.0463 35.3041 11.9242 35.1821L11.1787 34.4366L10.4332 35.1821C10.1891 35.4261 9.79343 35.4261 9.5493 35.1821C9.30518 34.938 9.30518 34.5422 9.5493 34.2982L10.7368 33.1107C10.9809 32.8667 11.3766 32.8667 11.6207 33.1107L12.8082 34.2982C13.0523 34.5424 13.0523 34.9381 12.8082 35.1821C12.6861 35.304 12.5262 35.3651 12.3662 35.3651Z" fill="#00AB55"/>
<path opacity="0.48" d="M53.3525 53.4649C53.1925 53.4649 53.0326 53.404 52.9105 53.282L52.165 52.5365L51.4195 53.282C51.1754 53.526 50.7798 53.526 50.5356 53.282C50.2915 53.0378 50.2915 52.6421 50.5356 52.3981L51.7231 51.2106C51.9673 50.9666 52.3629 50.9666 52.607 51.2106L53.7945 52.3981C54.0386 52.6422 54.0386 53.038 53.7945 53.282C53.6724 53.4038 53.5125 53.4649 53.3525 53.4649Z" fill="#00AB55"/>
<path d="M34.0284 42.7036C39.2045 41.4801 42.4087 36.2922 41.1852 31.1161C39.9617 25.94 34.7737 22.7358 29.5976 23.9594C24.4215 25.1829 21.2173 30.3709 22.4408 35.5469C23.6644 40.723 28.8523 43.9272 34.0284 42.7036Z" fill="#FFD666"/>
<path d="M31.8136 23.7075V42.972C37.1249 42.972 41.4458 38.651 41.4458 33.3398C41.4458 28.0286 37.1248 23.7075 31.8136 23.7075Z" fill="#FFAB00"/>
<path d="M42.2873 22.8654C39.9941 20.5723 37.0814 19.1243 33.9268 18.6763L34.85 17.7529C35.2161 17.3868 35.2161 16.7933 34.85 16.4271C34.4839 16.0611 33.8903 16.0611 33.5242 16.4271L31.15 18.8013C30.7839 19.1674 30.7839 19.761 31.15 20.1271L33.5241 22.5013C33.7072 22.6843 33.9471 22.7759 34.187 22.7759C34.4269 22.7759 34.6669 22.6843 34.8499 22.5013C35.216 22.1352 35.216 21.5416 34.8499 21.1754L34.321 20.6466C40.2586 21.8178 44.7508 27.0636 44.7508 33.3396C44.7509 40.4736 38.9469 46.2776 31.8129 46.2776C24.679 46.2776 18.875 40.4736 18.875 33.3397C18.875 30.6175 19.7104 28.0135 21.2911 25.8093C22.8389 23.6507 24.9726 22.04 27.4618 21.1514C27.9494 20.9773 28.2036 20.4409 28.0295 19.9532C27.8554 19.4656 27.3189 19.2114 26.8313 19.3855C23.9811 20.4031 21.5384 22.2466 19.7673 24.7166C17.9569 27.2414 17 30.2232 17 33.3398C17 37.2965 18.5408 41.0163 21.3386 43.8141C24.1364 46.6117 27.8563 48.1526 31.8129 48.1526C35.7696 48.1526 39.4894 46.6118 42.2873 43.814C45.0851 41.0162 46.6259 37.2964 46.6259 33.3397C46.6259 29.383 45.085 25.6631 42.2873 22.8654Z" fill="#00B8D9"/>
<path d="M32.9587 32.4094C32.217 32.1473 31.3978 31.8314 30.9452 31.4764C30.8319 31.3875 30.7836 31.1624 30.8276 30.9289C30.8507 30.8064 30.958 30.3971 31.3702 30.273C32.0957 30.0544 32.5899 30.3419 32.7688 30.4754C33.1837 30.7855 33.771 30.7007 34.081 30.2859C34.391 29.8712 34.3062 29.2837 33.8915 28.9737C33.7196 28.8452 33.3005 28.5704 32.7006 28.4212V28.1697C32.7006 27.6519 32.2808 27.2322 31.7631 27.2322C31.2453 27.2322 30.8256 27.6519 30.8256 28.1697V28.479C29.8806 28.7652 29.1755 29.5704 28.985 30.5816C28.8088 31.5168 29.1165 32.4249 29.7881 32.9517C30.4523 33.4726 31.4041 33.8485 32.3337 34.1772C33.067 34.4364 33.0887 34.9979 33.0363 35.3095C32.9488 35.8297 32.5112 36.392 31.7568 36.397C30.9692 36.4021 30.7451 36.3667 30.1506 35.9777C29.7173 35.6942 29.1363 35.8157 28.8528 36.249C28.5694 36.6824 28.6908 37.2634 29.1241 37.5469C29.7708 37.9699 30.2553 38.1544 30.8256 38.2282V38.5095C30.8256 39.0272 31.2453 39.447 31.7631 39.447C32.2808 39.447 32.7006 39.0272 32.7006 38.5095V38.1324C33.1423 37.998 33.546 37.7684 33.894 37.4488C34.4157 36.9695 34.7677 36.3201 34.8853 35.6203C35.1255 34.192 34.3512 32.9017 32.9587 32.4094Z" fill="#B76E00"/>
<path d="M33.9274 18.6763L34.8507 17.7529C35.2168 17.3868 35.2168 16.7933 34.8507 16.4271C34.4846 16.0611 33.891 16.0611 33.5248 16.4271L31.1507 18.8013C30.7846 19.1674 30.7846 19.761 31.1507 20.1271L33.5248 22.5013C33.7079 22.6843 33.9478 22.7759 34.1877 22.7759C34.4276 22.7759 34.6676 22.6843 34.8506 22.5013C35.2167 22.1352 35.2167 21.5416 34.8506 21.1754L34.3217 20.6466C40.2594 21.8178 44.7515 27.0636 44.7515 33.3396C44.7516 40.4736 38.9476 46.2776 31.8137 46.2776V48.1526C35.7703 48.1526 39.4902 46.6118 42.288 43.814C45.0858 41.0162 46.6266 37.2964 46.6266 33.3397C46.6266 29.383 45.0858 25.6632 42.288 22.8654C39.9949 20.5723 37.0821 19.1243 33.9274 18.6763Z" fill="#00B8D9"/>
<path d="M32.9583 32.4097C32.577 32.2749 32.1756 32.1258 31.8136 31.9646V33.9883C31.9863 34.0534 32.1602 34.1163 32.3333 34.1775C33.0666 34.4367 33.0883 34.9982 33.0359 35.3098C32.9507 35.8165 32.5323 36.3616 31.8136 36.3943V39.4447C32.3076 39.4181 32.7002 39.0103 32.7002 38.5098V38.1327C33.1419 37.9983 33.5456 37.7687 33.8936 37.4491C34.4153 36.9698 34.7673 36.3204 34.885 35.6206C35.1251 34.1923 34.3508 32.9019 32.9583 32.4097Z" fill="#B76E00"/>
<path d="M31.8136 27.2349V30.1964C32.2968 30.1747 32.6289 30.3714 32.7684 30.4756C33.1833 30.7857 33.7706 30.7009 34.0806 30.2861C34.3906 29.8714 34.3058 29.2839 33.8911 28.9739C33.7192 28.8454 33.3001 28.5706 32.7002 28.4214V28.1699C32.7002 27.6692 32.3076 27.2615 31.8136 27.2349Z" fill="#B76E00"/>
</g>
<defs>
<linearGradient id="paint0_linear_2601_11796" x1="43.8414" y1="68.5541" x2="70.1982" y2="13.0735" gradientUnits="userSpaceOnUse">
<stop stop-color="#00AB55"/>
<stop offset="1" stop-color="#00AB55" stop-opacity="0.01"/>
</linearGradient>
<clipPath id="clip0_2601_11796">
<rect width="64" height="64" fill="white" transform="translate(0 0.152588)"/>
</clipPath>
</defs>
</svg>
