<svg width="20" height="21" viewBox="0 0 20 21" fill="none" xmlns="http://www.w3.org/2000/svg">
    <path fill-rule="evenodd" clip-rule="evenodd" d="M10 11.3334C11.9967 11.3334 13.8125 11.9117 15.1483 12.7259C15.815 13.1342 16.385 13.6134 16.7967 14.1342C17.2017 14.6475 17.5 15.2609 17.5 15.9167C17.5 16.6209 17.1575 17.1759 16.6642 17.5717C16.1975 17.9467 15.5817 18.195 14.9275 18.3684C13.6125 18.7159 11.8575 18.8334 10 18.8334C8.1425 18.8334 6.3875 18.7167 5.0725 18.3684C4.41833 18.195 3.8025 17.9467 3.33583 17.5717C2.84167 17.175 2.5 16.6209 2.5 15.9167C2.5 15.2609 2.79833 14.6475 3.20333 14.1342C3.615 13.6134 4.18417 13.1342 4.85167 12.7259C6.1875 11.9117 8.00417 11.3334 10 11.3334ZM10 13C8.31417 13 6.7975 13.4917 5.72 14.1492C5.18083 14.4775 4.77417 14.8342 4.51167 15.1675C4.24167 15.5092 4.16667 15.7675 4.16667 15.9167C4.16667 16.0184 4.1975 16.1259 4.37917 16.2717C4.58667 16.4384 4.9475 16.6109 5.49917 16.7567C6.5975 17.0484 8.17583 17.1667 10 17.1667C11.825 17.1667 13.4025 17.0475 14.5 16.7567C15.0525 16.6109 15.4133 16.4384 15.6208 16.2717C15.8025 16.1259 15.8333 16.0184 15.8333 15.9167C15.8333 15.7667 15.7583 15.5092 15.4892 15.1675C15.2258 14.8342 14.8192 14.4775 14.28 14.1492C13.2025 13.4909 11.6858 13 10 13ZM10 2.16669C11.1051 2.16669 12.1649 2.60567 12.9463 3.38708C13.7277 4.16848 14.1667 5.22829 14.1667 6.33335C14.1667 7.43842 13.7277 8.49823 12.9463 9.27963C12.1649 10.061 11.1051 10.5 10 10.5C8.89493 10.5 7.83512 10.061 7.05372 9.27963C6.27232 8.49823 5.83333 7.43842 5.83333 6.33335C5.83333 5.22829 6.27232 4.16848 7.05372 3.38708C7.83512 2.60567 8.89493 2.16669 10 2.16669ZM10 3.83335C9.6717 3.83335 9.34661 3.89802 9.04329 4.02366C8.73998 4.14929 8.46438 4.33344 8.23223 4.56559C8.00009 4.79773 7.81594 5.07333 7.6903 5.37665C7.56466 5.67996 7.5 6.00505 7.5 6.33335C7.5 6.66166 7.56466 6.98675 7.6903 7.29006C7.81594 7.59338 8.00009 7.86897 8.23223 8.10112C8.46438 8.33327 8.73998 8.51742 9.04329 8.64305C9.34661 8.76869 9.6717 8.83335 10 8.83335C10.663 8.83335 11.2989 8.56996 11.7678 8.10112C12.2366 7.63228 12.5 6.9964 12.5 6.33335C12.5 5.67031 12.2366 5.03443 11.7678 4.56559C11.2989 4.09675 10.663 3.83335 10 3.83335Z" fill="#212B36"/>
</svg>
    