<svg width="24" height="25" viewBox="0 0 24 25" fill="none" xmlns="http://www.w3.org/2000/svg">
<g id="icons/notification/ic_shipping">
<g id="on-time">
<path id="Combined Shape" fill-rule="evenodd" clip-rule="evenodd" d="M23.9844 13.7193L20.4737 9.89437C20.2156 9.61301 19.8513 9.45285 19.4696 9.45288H15.1111V13.7193V19.9253H16.7782C16.7782 18.6081 17.846 17.5403 19.1631 17.5403C20.4803 17.5403 21.5481 18.6081 21.5481 19.9253H22.6214C22.9829 19.9253 23.3296 19.7817 23.5852 19.5261C23.8408 19.2705 23.9844 18.9238 23.9844 18.5623V13.7193Z" fill="url(#paint0_linear_2601_11695)"/>
<circle id="Oval" cx="19.1632" cy="19.9252" r="2.38493" fill="#7A4F01"/>
<path id="Path" fill-rule="evenodd" clip-rule="evenodd" d="M15.1111 13.7192V19.9251H7.85246C7.85246 18.6078 6.78457 17.5399 5.46725 17.5399C4.14994 17.5399 3.08204 18.6078 3.08204 19.9251H1.3786C1.0171 19.9252 0.670387 19.7816 0.414766 19.526C0.159146 19.2704 0.0155658 18.9237 0.015625 18.5622V7.1828C0.0155658 6.8213 0.159146 6.47459 0.414766 6.21897C0.670387 5.96334 1.0171 5.81977 1.3786 5.81982H2.85711C2.94212 8.22291 4.91485 10.1271 7.31944 10.1271C9.72402 10.1271 11.6968 8.22291 11.7818 5.81982H13.7481C14.5008 5.81989 15.111 6.43008 15.1111 7.1828V13.7192Z" fill="#B78103"/>
<path id="Path_2" fill-rule="evenodd" clip-rule="evenodd" d="M11.7845 5.66971C11.7845 5.71994 11.784 5.77017 11.7818 5.81985C11.6967 8.22293 9.72401 10.1271 7.31943 10.1271C4.91484 10.1271 2.9421 8.22293 2.8571 5.81985C2.85487 5.77017 2.85431 5.71994 2.85431 5.66971C2.85431 3.20369 4.85341 1.20459 7.31943 1.20459C9.78544 1.20459 11.7845 3.20369 11.7845 5.66971Z" fill="#74CAFF" stroke="#74CAFF"/>
<path id="Path_3" fill-rule="evenodd" clip-rule="evenodd" d="M5.46696 17.5403C6.78412 17.5403 7.85189 18.6081 7.85189 19.9252C7.85189 21.2424 6.78412 22.3101 5.46696 22.3101C4.1498 22.3101 3.08203 21.2424 3.08203 19.9252C3.08206 18.6081 4.14981 17.5403 5.46696 17.5403Z" fill="#7A4F01"/>
<path id="Path_4" fill-rule="evenodd" clip-rule="evenodd" d="M8.80962 7.45567C8.71045 7.4558 8.61496 7.41807 8.54266 7.35018L7.05243 5.95484C6.97355 5.88096 6.92879 5.7777 6.9288 5.66963V2.774C6.9288 2.55822 7.10372 2.3833 7.3195 2.3833C7.53528 2.3833 7.7102 2.55822 7.7102 2.774V5.50051L9.07675 6.78005C9.19382 6.88965 9.23202 7.05967 9.17309 7.20883C9.11415 7.35798 8.97005 7.45597 8.80968 7.45595L8.80962 7.45567Z" fill="#0C53B7"/>
</g>
</g>
<defs>
<linearGradient id="paint0_linear_2601_11695" x1="10.6744" y1="14.6891" x2="21.0046" y2="23.4419" gradientUnits="userSpaceOnUse">
<stop stop-color="#FFE16A"/>
<stop offset="1" stop-color="#B78103"/>
</linearGradient>
</defs>
</svg>
