<svg width="16" height="12" viewBox="0 0 16 12" fill="none" xmlns="http://www.w3.org/2000/svg">
    <path d="M11.9375 0L11.8625 0.00524998C11.7276 0.0234038 11.6038 0.0898844 11.5142 0.192359C11.4245 0.294834 11.3751 0.426346 11.375 0.5625V10.0815L8.96004 7.668L8.89704 7.614C8.78289 7.52915 8.64083 7.49069 8.49947 7.50638C8.3581 7.52206 8.22793 7.59071 8.13514 7.69851C8.04236 7.80631 7.99386 7.94526 7.99941 8.08739C8.00496 8.22951 8.06414 8.36426 8.16504 8.4645L11.543 11.8395L11.606 11.8935C11.7144 11.9735 11.8479 12.012 11.9822 12.002C12.1165 11.9919 12.2428 11.934 12.338 11.8387L15.7108 8.46375L15.7648 8.40075C15.845 8.29234 15.8836 8.1587 15.8736 8.0242C15.8635 7.8897 15.8055 7.76328 15.71 7.668L15.647 7.614C15.5386 7.53376 15.405 7.49515 15.2705 7.5052C15.136 7.51525 15.0096 7.57329 14.9143 7.66875L12.5 10.0845V0.5625L12.4955 0.486C12.4771 0.351335 12.4104 0.227919 12.308 0.138575C12.2056 0.0492322 12.0735 5.73217e-06 11.9375 0ZM3.66054 0.165L0.290043 3.53625L0.235293 3.59925C0.155258 3.7076 0.116764 3.84108 0.126812 3.97541C0.136859 4.10974 0.19478 4.23601 0.290043 4.33125L0.353043 4.386C0.461396 4.46603 0.594873 4.50453 0.729205 4.49448C0.863537 4.48443 0.989802 4.42651 1.08504 4.33125L3.49779 1.91775V11.4412L3.50379 11.5177C3.52228 11.6524 3.5889 11.7758 3.69135 11.8652C3.79379 11.9545 3.92512 12.0037 4.06104 12.0037L4.13679 11.9985C4.2716 11.9802 4.39519 11.9136 4.48469 11.8112C4.57418 11.7087 4.62351 11.5773 4.62354 11.4412L4.62279 1.91925L7.04004 4.332L7.10304 4.386C7.21727 4.46979 7.35891 4.50739 7.49966 4.49128C7.64041 4.47518 7.7699 4.40657 7.86225 4.29915C7.95461 4.19173 8.00304 4.05342 7.99785 3.91185C7.99267 3.77028 7.93426 3.63588 7.83429 3.5355L4.45629 0.165L4.39254 0.111C4.28419 0.0309644 4.15071 -0.00752894 4.01638 0.00251842C3.88205 0.0125658 3.75579 0.0704869 3.66054 0.16575V0.165Z" fill="#111111"/>
    </svg>
    