<svg width="24" height="24" viewBox="0 0 24 24" fill="none" xmlns="http://www.w3.org/2000/svg">
<path d="M17.56 21C17.4 21.0007 17.2423 20.9629 17.1 20.89L12 18.22L6.89997 20.89C6.5621 21.0677 6.15257 21.0375 5.8444 20.8122C5.53623 20.5869 5.3832 20.2059 5.44997 19.83L6.44997 14.2L2.32997 10.2C2.06803 9.93862 1.97186 9.55393 2.07997 9.20002C2.19822 8.83744 2.51239 8.57369 2.88997 8.52002L8.58997 7.69002L11.1 2.56002C11.2671 2.21503 11.6166 1.99591 12 1.99591C12.3833 1.99591 12.7329 2.21503 12.9 2.56002L15.44 7.68002L21.14 8.51002C21.5175 8.56369 21.8317 8.82744 21.95 9.19002C22.0581 9.54393 21.9619 9.92862 21.7 10.19L17.58 14.19L18.58 19.82C18.6529 20.2028 18.4968 20.5931 18.18 20.82C17.9989 20.9469 17.7809 21.0102 17.56 21Z" fill="#212B36"/>
</svg>
