<svg width="24" height="24" viewBox="0 0 24 24" fill="none" xmlns="http://www.w3.org/2000/svg">
<path fill-rule="evenodd" clip-rule="evenodd" d="M17.1 20.89C17.2423 20.9629 17.4 21.0007 17.56 21C17.7809 21.0102 17.9989 20.9469 18.18 20.82C18.4968 20.5931 18.6529 20.2028 18.58 19.82L17.58 14.19L21.7 10.19C21.9619 9.92862 22.0581 9.54393 21.95 9.19002C21.8317 8.82744 21.5175 8.56369 21.14 8.51002L15.44 7.68002L12.9 2.56002C12.7329 2.21503 12.3833 1.99591 12 1.99591C11.6166 1.99591 11.2671 2.21503 11.1 2.56002L8.58997 7.69002L2.88997 8.52002C2.51239 8.57369 2.19822 8.83744 2.07997 9.20002C1.97186 9.55393 2.06803 9.93862 2.32997 10.2L6.44997 14.2L5.44997 19.83C5.3832 20.2059 5.53623 20.5869 5.8444 20.8122C6.15257 21.0375 6.5621 21.0677 6.89997 20.89L12 18.22L17.1 20.89ZM12.46 16.21C12.3188 16.1339 12.1603 16.096 12 16.1C11.8328 16.0668 11.6597 16.0806 11.5 16.14L7.72997 18.14L8.44997 13.98C8.50669 13.6536 8.39809 13.3203 8.15997 13.09L5.15997 10.16L9.35997 9.54002C9.68314 9.49327 9.96313 9.29168 10.11 9.00002L12 5.25002L13.89 9.00002C14.0239 9.28914 14.2876 9.49713 14.6 9.56002L18.8 10.18L15.8 13.11C15.5619 13.3403 15.4533 13.6736 15.51 14L16.23 18.21L12.46 16.21Z" fill="#212B36"/>
</svg>
