<svg width="24" height="25" viewBox="0 0 24 25" fill="none" xmlns="http://www.w3.org/2000/svg">
<path fill-rule="evenodd" clip-rule="evenodd" d="M12.0406 2.44411C12.0793 2.4418 12.1185 2.4427 12.1579 2.44698L17.826 3.06219C18.1327 3.09548 18.3768 3.32416 18.4365 3.61866L20.4641 6.34564L22.5699 9.29894C22.7561 9.56002 22.7411 9.9142 22.5335 10.1586L12.5335 21.9296C12.4005 22.0862 12.2054 22.1764 12 22.1764C11.7946 22.1764 11.5995 22.0862 11.4665 21.9296L1.46651 10.1586C1.25894 9.91424 1.24389 9.56013 1.42998 9.29906L3.53503 6.34583L3.54339 6.33435L5.74566 3.37368C5.8573 3.20398 6.04098 3.08544 6.25516 3.06219L11.9232 2.44698C11.9626 2.4427 12.0019 2.4418 12.0406 2.44411ZM3.51317 10.4054L8.71217 16.5251L5.61794 10.4054H3.51317ZM7.18671 10.4054L12 19.925L16.8129 10.4054H7.18671ZM18.3817 10.4054L15.2874 16.5256L20.4868 10.4054H18.3817ZM10.2419 4.03803L7.00677 4.38918L6.86908 7.75704L10.2419 4.03803ZM5.52013 6.06173L3.37596 9.0053L5.37986 9.00519L5.52013 6.06173ZM16.3714 9.00536H7.62827L12 4.18509L16.3714 9.00536ZM16.9931 4.38917L13.8481 4.0478L17.1264 7.66265L16.9931 4.38917ZM20.624 9.0053L18.5667 6.18093L18.7013 9.0052L20.624 9.0053Z" fill="#212B36"/>
</svg>
