<svg width="24" height="25" viewBox="0 0 24 25" fill="none" xmlns="http://www.w3.org/2000/svg">
<path d="M11.73 6.85201H8.25844V19.2325H5.41369V6.85201H2V4.34729H11.73V6.85201Z" fill="#212B36"/>
<path d="M19.136 15.3272C19.136 14.7206 18.9881 14.2639 18.6924 13.9572C18.4031 13.6437 17.8727 13.32 17.1013 12.986C15.6933 12.4203 14.6808 11.7592 14.0636 11.0027C13.4465 10.2393 13.1379 9.33969 13.1379 8.30372C13.1379 7.04966 13.5558 6.04436 14.3915 5.28784C15.2337 4.52449 16.3009 4.14282 17.5931 4.14282C18.4545 4.14282 19.2228 4.33707 19.8978 4.72555C20.5728 5.10722 21.0903 5.64906 21.4503 6.35106C21.8168 7.05307 22 7.85049 22 8.74333H19.1745C19.1745 8.04814 19.0331 7.51993 18.7502 7.15871C18.4738 6.79067 18.072 6.60665 17.5448 6.60665C17.0498 6.60665 16.6641 6.76341 16.3877 7.07692C16.1112 7.38362 15.973 7.79937 15.973 8.32417C15.973 8.7331 16.1273 9.10455 16.4359 9.43851C16.7445 9.76566 17.2909 10.1064 18.0752 10.4608C19.4446 10.9856 20.4378 11.6297 21.055 12.3931C21.6786 13.1564 21.9904 14.1276 21.9904 15.3067C21.9904 16.6017 21.6014 17.6138 20.8235 18.343C20.0456 19.0723 18.9881 19.4369 17.6509 19.4369C16.7445 19.4369 15.9184 19.2393 15.1726 18.844C14.4269 18.4487 13.8419 17.883 13.4176 17.1469C12.9997 16.4108 12.7907 15.5418 12.7907 14.54H15.6355C15.6355 15.3987 15.793 16.0223 16.108 16.4108C16.423 16.7993 16.9373 16.9936 17.6509 16.9936C18.641 16.9936 19.136 16.4381 19.136 15.3272Z" fill="#212B36"/>
</svg>
