<svg width="20" height="21" viewBox="0 0 20 21" fill="none" xmlns="http://www.w3.org/2000/svg">
    <path fill-rule="evenodd" clip-rule="evenodd" d="M8.75009 1.5C8.02075 1.5 7.32127 1.78973 6.80555 2.30546C6.28982 2.82118 6.00009 3.52065 6.00009 4.25V4.693C5.20903 4.7693 4.42036 4.86867 3.63509 4.991C3.53634 5.00445 3.44126 5.03745 3.35541 5.08807C3.26956 5.13869 3.19465 5.20591 3.13508 5.28581C3.0755 5.36571 3.03245 5.45668 3.00843 5.5534C2.98441 5.65013 2.97992 5.75067 2.9952 5.84916C3.01048 5.94764 3.04524 6.04209 3.09745 6.12699C3.14965 6.21189 3.21825 6.28553 3.29924 6.34361C3.38023 6.40169 3.47199 6.44305 3.56914 6.46526C3.6663 6.48748 3.76691 6.49011 3.86509 6.473L4.01409 6.451L4.85509 16.969C4.91015 17.6582 5.22279 18.3014 5.73075 18.7704C6.23871 19.2394 6.9047 19.4999 7.59609 19.5H12.4031C13.0945 19.5002 13.7606 19.24 14.2687 18.7711C14.7769 18.3022 15.0898 17.6592 15.1451 16.97L15.9861 6.45L16.1351 6.473C16.3298 6.49952 16.5271 6.44858 16.6847 6.33111C16.8422 6.21365 16.9473 6.03906 16.9775 5.84488C17.0076 5.65071 16.9603 5.45246 16.8458 5.29278C16.7313 5.1331 16.5587 5.02474 16.3651 4.991C15.5798 4.86878 14.7911 4.76941 14.0001 4.693V4.25C14.0001 3.52065 13.7104 2.82118 13.1946 2.30546C12.6789 1.78973 11.9794 1.5 11.2501 1.5H8.75009ZM10.0001 4.5C10.8401 4.5 11.6731 4.525 12.5001 4.575V4.25C12.5001 3.56 11.9401 3 11.2501 3H8.75009C8.06009 3 7.50009 3.56 7.50009 4.25V4.575C8.32709 4.525 9.16009 4.5 10.0001 4.5ZM8.58009 8.22C8.57213 8.02109 8.48549 7.83348 8.33921 7.69846C8.19293 7.56343 7.999 7.49204 7.80009 7.5C7.60118 7.50796 7.41357 7.5946 7.27855 7.74088C7.14352 7.88716 7.07213 8.08109 7.08009 8.28L7.38009 15.78C7.38403 15.8785 7.40733 15.9752 7.44866 16.0647C7.48999 16.1542 7.54854 16.2347 7.62097 16.3015C7.6934 16.3684 7.77829 16.4203 7.8708 16.4544C7.9633 16.4884 8.0616 16.5039 8.16009 16.5C8.25858 16.4961 8.35533 16.4728 8.44482 16.4314C8.53431 16.3901 8.61478 16.3315 8.68163 16.2591C8.74849 16.1867 8.80043 16.1018 8.83448 16.0093C8.86853 15.9168 8.88403 15.8185 8.88009 15.72L8.58009 8.22ZM12.9201 8.28C12.924 8.18151 12.9085 8.08321 12.8745 7.9907C12.8404 7.8982 12.7885 7.81331 12.7216 7.74088C12.6548 7.66845 12.5743 7.6099 12.4848 7.56857C12.3953 7.52724 12.2986 7.50394 12.2001 7.5C12.0012 7.49204 11.8073 7.56343 11.661 7.69846C11.5147 7.83348 11.428 8.02109 11.4201 8.22L11.1201 15.72C11.1162 15.8185 11.1317 15.9168 11.1657 16.0093C11.1998 16.1018 11.2517 16.1867 11.3185 16.2591C11.3854 16.3315 11.4659 16.3901 11.5554 16.4314C11.6448 16.4728 11.7416 16.4961 11.8401 16.5C11.9386 16.5039 12.0369 16.4884 12.1294 16.4544C12.2219 16.4203 12.3068 16.3684 12.3792 16.3015C12.4516 16.2347 12.5102 16.1542 12.5515 16.0647C12.5929 15.9752 12.6162 15.8785 12.6201 15.78L12.9201 8.28Z" fill="#637381"/>
    </svg>
    