<svg width="24" height="24" viewBox="0 0 24 24" fill="none" xmlns="http://www.w3.org/2000/svg">
<path d="M21 12C21 11.4477 20.5523 11 20 11C19.4477 11 19 11.4477 19 12V14.3L14.76 9.29999C14.444 8.93061 13.9081 8.842 13.49 9.08999L9.22 11.7L4.77 6.35999C4.54135 6.08489 4.18331 5.95268 3.83074 6.01315C3.47818 6.07362 3.18466 6.31759 3.06074 6.65315C2.93683 6.98871 3.00135 7.36489 3.23 7.63999L8.23 13.64C8.54451 14.0181 9.08729 14.1114 9.51 13.86L13.79 11.29L17.79 16H15C14.4477 16 14 16.4477 14 17C14 17.5523 14.4477 18 15 18H20C20.1231 17.997 20.2448 17.9733 20.36 17.93L20.5 17.85C20.5521 17.8237 20.6023 17.7936 20.65 17.76C20.7048 17.7105 20.752 17.6532 20.79 17.59C20.8235 17.5457 20.8536 17.4989 20.88 17.45C20.9045 17.3959 20.9213 17.3387 20.93 17.28C20.9705 17.1918 20.9943 17.0969 21 17V12Z" fill="#212B36"/>
</svg>
