<svg width="24" height="25" viewBox="0 0 24 25" fill="none" xmlns="http://www.w3.org/2000/svg">
<g clip-path="url(#clip0_2601_11947)">
<path fill-rule="evenodd" clip-rule="evenodd" d="M6.14982 0.152588H14.1738L20.9744 7.24105V21.0282C20.9744 22.7553 19.5771 24.1526 17.8559 24.1526H6.14982C4.42269 24.1526 3.02539 22.7553 3.02539 21.0282V3.27701C3.02536 1.54988 4.42266 0.152588 6.14982 0.152588V0.152588Z" fill="#212B36"/>
<path opacity="0.4" fill-rule="evenodd" clip-rule="evenodd" d="M14.168 0.152588V7.18707H20.9746L14.168 0.152588Z" fill="white"/>
<path d="M7.5589 17.6757V14.2635H6.31152V13.3159H9.91574V14.2635H8.67436V17.6757H7.5589ZM13.9697 17.6757H12.8003L12.0027 16.3384L11.2051 17.6757H10.0297L11.415 15.3489L10.2036 13.3159H11.373L12.0027 14.3714L12.6264 13.3159H13.8018L12.5904 15.3549L13.9697 17.6757ZM15.325 17.6757V14.2635H14.0836V13.3159H17.6879V14.2635H16.4405V17.6757H15.325Z" fill="white"/>
</g>
<defs>
<clipPath id="clip0_2601_11947">
<rect width="24" height="24" fill="white" transform="translate(0 0.152588)"/>
</clipPath>
</defs>
</svg>
