<svg width="24" height="25" viewBox="0 0 24 25" fill="none" xmlns="http://www.w3.org/2000/svg">
<path fill-rule="evenodd" clip-rule="evenodd" d="M6.12443 0.152588H14.1484L20.949 7.24105V21.0282C20.949 22.7553 19.5517 24.1526 17.8306 24.1526H6.12443C4.3973 24.1526 3 22.7553 3 21.0282V3.27701C2.99997 1.54988 4.39727 0.152588 6.12443 0.152588V0.152588Z" fill="#FF5630"/>
<path opacity="0.4" fill-rule="evenodd" clip-rule="evenodd" d="M14.1426 0.152588V7.18707H20.9492L14.1426 0.152588Z" fill="white"/>
<path d="M11.9777 11.0432C9.83679 11.0432 8.09766 12.7824 8.09766 14.9233C8.09766 17.0642 9.83679 18.7973 11.9777 18.7973C14.1187 18.7973 15.8518 17.0642 15.8518 14.9233C15.8518 12.7823 14.1127 11.0492 11.9777 11.0432ZM13.6089 15.0432C13.5789 15.0972 13.537 15.1392 13.483 15.1691L11.2701 16.2786C11.1321 16.3445 10.9642 16.2906 10.8983 16.1526C10.8743 16.1166 10.8683 16.0747 10.8683 16.0267V13.8138C10.8683 13.6579 10.9942 13.538 11.1442 13.538C11.1861 13.538 11.2281 13.544 11.2701 13.568L13.483 14.6714C13.6209 14.7433 13.6749 14.9053 13.6089 15.0432Z" fill="white"/>
</svg>
