<svg width="24" height="25" viewBox="0 0 24 25" fill="none" xmlns="http://www.w3.org/2000/svg">
<path d="M6.14751 0.152588H14.1777L20.9753 7.24454V21.0305C20.9753 22.7549 19.5776 24.1526 17.8531 24.1526H6.14751C4.42305 24.1526 3.02539 22.7549 3.02539 21.0305V3.27471C3.02539 1.55028 4.42305 0.152588 6.14751 0.152588V0.152588Z" fill="#00AB55"/>
<path opacity="0.4" fill-rule="evenodd" clip-rule="evenodd" d="M14.168 0.152588V7.18629H20.9752L14.168 0.152588Z" fill="white"/>
<path d="M5.92383 17.2774V13.3043H7.33122C7.61269 13.3043 7.87478 13.3464 8.11743 13.4241C8.36008 13.5049 8.58008 13.6214 8.77746 13.7767C8.97481 13.932 9.13013 14.1391 9.24336 14.3979C9.35659 14.6567 9.41484 14.9544 9.41484 15.2909C9.41484 15.6273 9.35659 15.925 9.24336 16.1838C9.13013 16.4426 8.97481 16.6497 8.77746 16.805C8.58011 16.9603 8.36008 17.0768 8.11743 17.1577C7.87478 17.2353 7.61272 17.2774 7.33122 17.2774H5.92383ZM6.91709 16.4135H7.2115C7.37004 16.4135 7.51887 16.3941 7.6515 16.3585C7.78739 16.3197 7.91032 16.2583 8.02679 16.1773C8.14327 16.0964 8.23384 15.98 8.29856 15.8279C8.36651 15.6791 8.39884 15.4979 8.39884 15.2909C8.39884 15.0838 8.36648 14.9026 8.29856 14.7505C8.23384 14.6017 8.14327 14.4852 8.02679 14.4044C7.91032 14.3202 7.78739 14.262 7.6515 14.2232C7.51887 14.1876 7.37004 14.1682 7.2115 14.1682H6.91709V16.4135ZM11.8252 17.3227C11.2266 17.3227 10.7316 17.1285 10.3401 16.7436C9.94866 16.3585 9.75453 15.8732 9.75453 15.2909C9.75453 14.7085 9.94866 14.2232 10.3401 13.8382C10.7316 13.4532 11.2266 13.2591 11.8252 13.2591C12.414 13.2591 12.9025 13.4532 13.294 13.8382C13.6823 14.2232 13.8764 14.7085 13.8764 15.2909C13.8764 15.8732 13.6823 16.3586 13.294 16.7436C12.9025 17.1285 12.414 17.3227 11.8252 17.3227ZM11.0616 16.1288C11.259 16.3488 11.5113 16.4588 11.8187 16.4588C12.126 16.4588 12.3752 16.3488 12.5725 16.1288C12.7699 15.9056 12.8669 15.6273 12.8669 15.2909C12.8669 14.9544 12.7699 14.6761 12.5725 14.4529C12.3752 14.2329 12.126 14.1229 11.8187 14.1229C11.5113 14.1229 11.259 14.2329 11.0616 14.4529C10.8643 14.6761 10.764 14.9544 10.764 15.2909C10.764 15.6273 10.8643 15.9056 11.0616 16.1288ZM16.2382 17.3227C15.6591 17.3227 15.177 17.1415 14.7952 16.7856C14.4102 16.4265 14.2194 15.9282 14.2194 15.2909C14.2194 14.6567 14.4135 14.1585 14.8017 13.7993C15.1932 13.4402 15.6688 13.259 16.2382 13.259C16.7527 13.259 17.1732 13.3852 17.5065 13.6408C17.8365 13.8932 18.0274 14.2296 18.0759 14.6502L17.073 14.8541C17.0309 14.6341 16.9306 14.4561 16.7753 14.3235C16.62 14.1908 16.4388 14.1229 16.2318 14.1229C15.947 14.1229 15.7108 14.2232 15.52 14.427C15.3291 14.634 15.232 14.9188 15.232 15.2908C15.232 15.6629 15.3291 15.9476 15.5167 16.1515C15.7076 16.3585 15.9438 16.4588 16.2317 16.4588C16.4388 16.4588 16.6167 16.4006 16.7623 16.2841C16.9079 16.1676 16.9985 16.0124 17.0373 15.8182L18.063 16.0512C17.9691 16.4524 17.762 16.763 17.4385 16.9862C17.1182 17.2095 16.7171 17.3227 16.2382 17.3227Z" fill="white"/>
</svg>
