<svg width="24" height="25" viewBox="0 0 24 25" fill="none" xmlns="http://www.w3.org/2000/svg">
<g clip-path="url(#clip0_2601_11929)">
<path fill-rule="evenodd" clip-rule="evenodd" d="M6.14572 0.152588H14.1728L20.9751 7.24266V21.0318C20.9751 22.7508 19.5733 24.1526 17.8543 24.1526H6.14572C4.41932 24.1526 3.0249 22.7508 3.0249 21.0318V3.27341C3.0249 1.547 4.41932 0.152588 6.14572 0.152588V0.152588Z" fill="#FFAB00"/>
<path opacity="0.4" fill-rule="evenodd" clip-rule="evenodd" d="M14.1654 0.152588V7.18365H20.9751L14.1654 0.152588Z" fill="white"/>
<path d="M9.63539 12.6211V10.9832C9.63539 10.8062 9.4952 10.666 9.31814 10.666H8.4328C8.25574 10.666 8.11555 10.8062 8.11555 10.9832V12.6211L7.62124 14.0672C7.48105 14.4729 7.54746 14.923 7.7983 15.2697C8.04177 15.6165 8.44754 15.8231 8.87547 15.8231C9.3034 15.8231 9.7018 15.6165 9.95264 15.2697C10.2035 14.923 10.2699 14.473 10.1297 14.0672L9.63539 12.6211ZM9.42882 14.8935C9.17798 15.255 8.57299 15.255 8.31478 14.8935C8.18936 14.7164 8.15245 14.4803 8.22623 14.2737L8.38856 13.7868H9.35504L9.52473 14.2737C9.59114 14.4803 9.56161 14.7164 9.42882 14.8935ZM6.91299 1.87163V2.77173C6.91299 2.94879 7.05318 3.08898 7.23024 3.08898H8.43283V4.43176H7.23024C7.05318 4.43176 6.91299 4.57194 6.91299 4.749V5.44251C6.91299 5.61957 7.05318 5.76713 7.23024 5.76713H8.43283V7.10251H7.23024C7.05318 7.10251 6.91299 7.24269 6.91299 7.41975V8.12063C6.91299 8.29769 7.05318 8.43788 7.23024 8.43788H8.43283V9.45601C8.43283 9.63307 8.58039 9.77326 8.75745 9.77326H10.5208C10.6904 9.77326 10.838 9.63307 10.838 9.45601V8.75513C10.838 8.58544 10.6904 8.43788 10.5208 8.43788H9.3108V7.10251H10.5208C10.6904 7.10251 10.838 6.96232 10.838 6.78526V6.08438C10.838 5.90732 10.6904 5.76713 10.5208 5.76713H9.3108V4.43176H10.5208C10.6904 4.43176 10.838 4.2842 10.838 4.10714V3.41363C10.838 3.23657 10.6904 3.08901 10.5208 3.08901H9.3108V1.86426C9.31077 1.86426 6.91299 1.87163 6.91299 1.87163Z" fill="white"/>
</g>
<defs>
<clipPath id="clip0_2601_11929">
<rect width="24" height="24" fill="white" transform="translate(0 0.152588)"/>
</clipPath>
</defs>
</svg>
