<svg width="32" height="32" viewBox="0 0 32 32" fill="none" xmlns="http://www.w3.org/2000/svg">
<path d="M22.6259 11.7296C24.6014 13.1468 27.0215 13.9807 29.6353 13.9807V8.93301C29.1406 8.93312 28.6472 8.88135 28.1633 8.77845V12.7517C25.5497 12.7517 23.13 11.9178 21.1539 10.5007V20.8015C21.1539 25.9545 16.9915 30.1315 11.8571 30.1315C9.9414 30.1315 8.16079 29.5502 6.68164 28.5534C8.36985 30.2857 10.7242 31.3604 13.3288 31.3604C18.4635 31.3604 22.6262 27.1834 22.6262 22.0302V11.7296H22.6259ZM24.4418 6.63718C23.4323 5.53028 22.7694 4.09981 22.6259 2.51837V1.86914H21.231C21.5821 3.87915 22.7798 5.59638 24.4418 6.63718ZM9.92911 24.5992C9.36505 23.857 9.06023 22.949 9.06159 22.0154C9.06159 19.6587 10.9655 17.7477 13.3143 17.7477C13.7521 17.7476 14.1872 17.8149 14.6044 17.9477V12.7873C14.1169 12.7202 13.6248 12.6918 13.133 12.7022V16.7189C12.7155 16.586 12.2802 16.5185 11.8423 16.519C9.49346 16.519 7.58969 18.4297 7.58969 20.7867C7.58969 22.4534 8.54131 23.8963 9.92911 24.5992Z" fill="#FF004F"/>
<path d="M21.154 10.5006C23.13 11.9177 25.5497 12.7516 28.1633 12.7516V8.77835C26.7044 8.46649 25.4129 7.70139 24.4419 6.63718C22.7797 5.59628 21.5822 3.87905 21.2311 1.86914H17.5669V22.03C17.5586 24.3803 15.658 26.2834 13.3142 26.2834C11.933 26.2834 10.706 25.6227 9.92884 24.5992C8.54115 23.8963 7.58952 22.4533 7.58952 20.7869C7.58952 18.43 9.4933 16.5191 11.8422 16.5191C12.2922 16.5191 12.726 16.5894 13.1328 16.719V12.7023C8.0887 12.8069 4.03198 16.9431 4.03198 22.0301C4.03198 24.5694 5.0422 26.8715 6.68179 28.5535C8.16094 29.5502 9.94155 30.1316 11.8573 30.1316C16.9917 30.1316 21.1541 25.9544 21.1541 20.8015V10.5006H21.154Z" fill="black"/>
<path d="M28.1633 8.77861V7.70429C26.8477 7.70629 25.558 7.33655 24.4419 6.63734C25.4299 7.72295 26.731 8.4715 28.1633 8.77861ZM21.231 1.8694C21.1975 1.67731 21.1718 1.48395 21.154 1.28986V0.640625H16.0948V20.8017C16.0867 23.1517 14.1862 25.0548 11.8422 25.0548C11.154 25.0548 10.5042 24.8909 9.92882 24.5996C10.7059 25.623 11.933 26.2836 13.3142 26.2836C15.6578 26.2836 17.5587 24.3807 17.5669 22.0303V1.8694H21.231ZM13.133 12.7026V11.5589C12.7103 11.5009 12.2841 11.4718 11.8574 11.472C6.72251 11.4719 2.56006 15.6491 2.56006 20.8017C2.56006 24.032 4.19598 26.8789 6.68188 28.5536C5.04228 26.8717 4.03207 24.5695 4.03207 22.0302C4.03207 16.9434 8.08868 12.8072 13.133 12.7026Z" fill="#00F2EA"/>
</svg>
